<svg xmlns="http://www.w3.org/2000/svg" width="62" height="70" viewBox="0 0 62 70">
    <g fill="#83AED8" fill-rule="evenodd">
        <path d="M34.691 1.373l23.556 13.562c2.498 1.428 3.569 3.57 3.569 6.424v27.125c0 2.855-1.071 4.996-3.57 6.424L34.692 68.47c-2.14 1.427-4.996 1.427-7.494 0L3.64 54.908C1.501 53.48.072 51.338.072 48.484V21.359c0-2.855 1.428-4.996 3.57-6.424L27.196 1.373c2.498-1.427 5.353-1.427 7.494 0zM32.952 3.92a3.323 3.323 0 0 0-3.658 0L5.148 17.821c-1.463.732-1.83 1.83-1.83 3.293v27.804c0 1.464.367 2.561 1.83 3.293l24.146 13.902a3.323 3.323 0 0 0 3.658 0l24.146-13.902c1.098-.732 1.83-1.83 1.83-3.293V21.114c0-1.463-.732-2.561-1.83-3.293L32.952 3.92z"/>
        <path fill-rule="nonzero" stroke="#83AED8" d="M30.872 17.661a.784.784 0 0 0-.699.797v1.2c-7.81.397-14.085 6.671-14.482 14.482h-1.2a.784.784 0 1 0 0 1.569h1.2c.397 7.81 6.671 14.097 14.482 14.494v1.188a.784.784 0 1 0 1.568 0v-1.188c7.817-.391 14.098-6.68 14.495-14.494h1.188a.784.784 0 1 0 0-1.569h-1.188c-.397-7.815-6.678-14.09-14.495-14.482v-1.2a.784.784 0 0 0-.87-.797zm-.699 3.553v1.164a.784.784 0 1 0 1.568 0v-1.164c6.961.39 12.52 5.966 12.914 12.926h-1.151a.784.784 0 1 0 0 1.569h1.151a13.699 13.699 0 0 1-12.914 12.913v-1.151a.784.784 0 1 0-1.568 0v1.151c-6.96-.394-12.524-5.953-12.914-12.913h1.152a.784.784 0 1 0 0-1.569H17.26c.396-6.955 5.958-12.53 12.914-12.926zm.784 8.221a5.5 5.5 0 0 0-5.489 5.49 5.5 5.5 0 0 0 5.49 5.488 5.5 5.5 0 0 0 5.488-5.489 5.5 5.5 0 0 0-5.489-5.489zm0 1.569a3.909 3.909 0 0 1 3.921 3.92 3.909 3.909 0 0 1-3.92 3.921 3.909 3.909 0 0 1-3.921-3.92 3.909 3.909 0 0 1 3.92-3.921z"/>
    </g>
</svg>
