<svg xmlns="http://www.w3.org/2000/svg" width="63" height="70" viewBox="0 0 63 70">
    <g fill="#FF7E2E" fill-rule="evenodd">
        <path d="M34.733 1.373l23.555 13.562c2.499 1.428 3.57 3.57 3.57 6.424v27.125c0 2.855-1.071 4.996-3.57 6.424L34.733 68.47c-2.141 1.427-4.996 1.427-7.495 0L3.683 54.908C1.542 53.48.114 51.338.114 48.484V21.359c0-2.855 1.428-4.996 3.57-6.424L27.237 1.373c2.499-1.427 5.354-1.427 7.495 0zM32.994 3.92a3.323 3.323 0 0 0-3.658 0L5.19 17.821c-1.464.732-1.83 1.83-1.83 3.293v27.804c0 1.464.366 2.561 1.83 3.293l24.146 13.902a3.323 3.323 0 0 0 3.658 0L57.14 52.211c1.097-.732 1.83-1.83 1.83-3.293V21.114c0-1.463-.733-2.561-1.83-3.293L32.994 3.92z"/>
        <g fill-rule="nonzero" transform="translate(13.327 17.955)">
            <path d="M26.554 3.963c.238 0 .397-.158.397-.396V1.189c0-.238-.159-.396-.397-.396-.238 0-.396.158-.396.396v2.378c0 .238.158.396.396.396zM30.518 30.914c-.238 0-.397.158-.397.396v1.586c0 .237.159.396.397.396.237 0 .396-.159.396-.396V31.31c0-.238-.159-.396-.396-.396zM30.518 3.963c.237 0 .396-.158.396-.396V1.982c0-.238-.159-.397-.396-.397-.238 0-.397.159-.397.397v1.585c0 .238.159.396.397.396zM33.688 22.987c-.238 0-.396.159-.396.397v3.963c0 .238.158.396.396.396.238 0 .397-.158.397-.396v-3.963c0-.238-.159-.397-.397-.397zM33.292 8.323v2.378c0 .238.158.396.396.396.238 0 .397-.158.397-.396V8.323c0-.238-.159-.396-.397-.396-.238 0-.396.158-.396.396zM9.116 15.853h4.756c.237 0 .396-.158.396-.396 0-.238-.159-.396-.396-.396H9.116c-.238 0-.397.158-.397.396 0 .238.159.396.397.396zM13.475 20.213c0 .238.159.396.397.396h4.756c.237 0 .396-.158.396-.396 0-.238-.159-.396-.396-.396h-4.756c-.238 0-.397.158-.397.396zM13.872 24.573H9.116c-.238 0-.397.158-.397.396 0 .238.159.396.397.396h4.756c.237 0 .396-.158.396-.396 0-.238-.159-.396-.396-.396zM9.116 20.61h3.17c.238 0 .397-.16.397-.397 0-.238-.159-.396-.397-.396h-3.17c-.238 0-.397.158-.397.396 0 .238.159.396.397.396zM9.116 23.78h3.17c.238 0 .397-.159.397-.396 0-.238-.159-.397-.397-.397h-3.17c-.238 0-.397.159-.397.397 0 .237.159.396.397.396zM9.116 17.439h5.548c.238 0 .397-.159.397-.397 0-.238-.159-.396-.397-.396H9.116c-.238 0-.397.158-.397.396 0 .238.159.397.397.397zM11.89 18.628c0 .237.158.396.396.396h5.549c.238 0 .396-.159.396-.396 0-.238-.158-.397-.396-.397h-5.549c-.238 0-.396.159-.396.397zM9.116 22.195h5.548c.238 0 .397-.159.397-.397 0-.238-.159-.396-.397-.396H9.116c-.238 0-.397.158-.397.396 0 .238.159.397.397.397zM15.06 15.457c0 .238.16.396.397.396h2.378c.238 0 .396-.158.396-.396 0-.238-.158-.396-.396-.396h-2.378c-.238 0-.396.158-.396.396zM13.079 13.475h3.963c.238 0 .397-.158.397-.396 0-.238-.159-.396-.397-.396H13.08c-.238 0-.396.158-.396.396 0 .238.158.396.396.396zM9.116 19.024H10.7c.238 0 .396-.159.396-.396 0-.238-.158-.397-.396-.397H9.116c-.238 0-.397.159-.397.397 0 .237.159.396.397.396zM17.835 22.987H16.25c-.238 0-.397.159-.397.397 0 .237.159.396.397.396h1.585c.238 0 .396-.159.396-.396 0-.238-.158-.397-.396-.397zM19.42 22.195h.793c.238 0 .396-.159.396-.397 0-.238-.158-.396-.396-.396h-.793c-.238 0-.396.158-.396.396 0 .238.158.397.396.397zM13.079 28.536h-.793c-.238 0-.396.158-.396.396 0 .238.158.397.396.397h.793c.238 0 .396-.159.396-.397 0-.238-.158-.396-.396-.396zM14.664 22.987h-.792c-.238 0-.397.159-.397.397 0 .237.159.396.397.396h.792c.238 0 .397-.159.397-.396 0-.238-.159-.397-.397-.397zM10.701 28.536H9.116c-.238 0-.397.158-.397.396 0 .238.159.397.397.397H10.7c.238 0 .396-.159.396-.397 0-.238-.158-.396-.396-.396zM17.835 21.402H16.25c-.238 0-.397.158-.397.396 0 .238.159.397.397.397h1.585c.238 0 .396-.159.396-.397 0-.238-.158-.396-.396-.396zM19.024 23.78c-.793 0-1.506.317-2.061.793h-1.506c-.238 0-.396.158-.396.396 0 .238.158.396.396.396h.872c-.238.476-.476 1.03-.476 1.586a3.18 3.18 0 0 0 3.17 3.17 3.18 3.18 0 0 0 3.172-3.17 3.18 3.18 0 0 0-3.171-3.171zm0 4.756a1.59 1.59 0 0 1-1.585-1.585 1.59 1.59 0 0 1 1.585-1.586 1.59 1.59 0 0 1 1.585 1.586 1.59 1.59 0 0 1-1.585 1.585z"/>
            <circle cx="19.024" cy="26.951" r="1"/>
            <path d="M31.707 11.494v-3.33c0-.317.158-.634.317-.871l1.426-1.427c.397-.317.635-.872.635-1.348V3.091c.475-.158.792-.634.792-1.11 0-.633-.555-1.188-1.189-1.188S32.5 1.348 32.5 1.982c0 .555.317.95.793 1.11v1.426c0 .317-.159.634-.317.872l-1.427 1.427c-.396.317-.634.872-.634 1.347v2.854c-.476-.238-1.03-.476-1.585-.555V7.055c.475-.159.792-.634.792-1.11 0-.634-.555-1.189-1.189-1.189s-1.189.555-1.189 1.189c0 .555.317.951.793 1.11v3.329c-.238 0-.555-.08-.793-.08-.872 0-1.664.16-2.378.397V5.549c0-1.348-1.03-2.378-2.378-2.378h-1.585v-.793C21.402 1.03 20.372 0 19.024 0s-2.378 1.03-2.378 2.378v.793H2.378C1.03 3.17 0 4.2 0 5.549v25.365c0 1.347 1.03 2.378 2.378 2.378h20.61c1.347 0 2.377-1.03 2.377-2.378v-6.738a7.472 7.472 0 0 0 2.378.397v4.835a1.192 1.192 0 0 0-.792 1.11c0 .634.554 1.189 1.189 1.189.634 0 1.189-.555 1.189-1.19 0-.554-.317-.95-.793-1.11v-4.914c.555-.079 1.11-.158 1.585-.396v1.744c0 .555.238 1.03.555 1.427l1.427 1.426c.238.238.317.555.317.872v1.427a1.192 1.192 0 0 0-.793 1.11c0 .634.555 1.189 1.19 1.189.633 0 1.188-.555 1.188-1.19 0-.554-.317-.95-.792-1.109v-1.427c0-.554-.238-1.03-.555-1.426l-1.427-1.427c-.238-.238-.317-.555-.317-.872V23.78c2.378-1.19 3.963-3.567 3.963-6.42 0-2.379-1.268-4.598-3.17-5.866zm1.981-9.909c.238 0 .397.159.397.397 0 .237-.159.396-.397.396-.238 0-.396-.159-.396-.396 0-.238.158-.397.396-.397zm-.792 30.122c.237 0 .396.158.396.396 0 .238-.159.396-.396.396-.238 0-.397-.158-.397-.396 0-.238.159-.396.397-.396zM28.932 5.549c.238 0 .397.158.397.396 0 .238-.159.396-.397.396-.238 0-.396-.158-.396-.396 0-.238.158-.396.396-.396zm-10.7-3.171c0-.476.316-.793.792-.793.476 0 .793.317.793.793v.793H18.23v-.793zM2.377 31.707c-.476 0-.793-.318-.793-.793V5.549c0-.476.317-.793.793-.793h.159c-.08.238-.159.476-.159.793v25.365c0 .317.08.555.159.793h-.159zm2.537 0h-.159c-.476 0-.793-.318-.793-.793V5.549c0-.476.317-.793.793-.793h5.232L5.469 9.274c-.475.476-.713 1.03-.713 1.665v19.975c0 .317.08.555.159.793zm6.182-25.841v2.853c0 .476-.317.793-.792.793H7.45l3.646-3.646zM23.78 30.914c0 .475-.317.793-.793.793H7.134c-.476 0-.793-.318-.793-.793V11.89c0-.476.317-.793.793-.793h3.17c1.348 0 2.379-1.03 2.379-2.378V5.55c0-.476.317-.793.792-.793h6.342v4.756c0 .476-.317.793-.793.793-.476 0-.793-.317-.793-.793V7.134c0-.476-.317-.793-.792-.793-.476 0-.793.317-.793.793v2.378c0 1.347 1.03 2.378 2.378 2.378 1.347 0 2.378-1.03 2.378-2.378V4.756h1.585c.476 0 .793.317.793.793v5.945c-1.665 1.11-2.854 3.012-3.091 5.152h-4.44c-.237 0-.396.158-.396.396 0 .238.159.397.397.397h4.36c0 .237 0 .554.079.792H19.42c-.238 0-.396.159-.396.397 0 .237.158.396.396.396h1.348c.396 1.823 1.506 3.33 3.012 4.36v7.53zm4.36 0c-.238 0-.397-.159-.397-.396 0-.238.159-.397.397-.397.237 0 .396.159.396.397 0 .237-.159.396-.396.396zm-.397-7.927a5.514 5.514 0 0 1-5.548-5.548 5.514 5.514 0 0 1 5.548-5.549 5.514 5.514 0 0 1 5.549 5.549 5.514 5.514 0 0 1-5.549 5.548z"/>
            <path d="M30.121 16.646V15.06c0-1.348-1.03-2.378-2.378-2.378-1.347 0-2.378 1.03-2.378 2.378v1.585c-.475 0-.792.317-.792.793v3.17c0 .476.317.793.792.793h4.756c.476 0 .793-.317.793-.793v-3.17c0-.476-.317-.793-.793-.793zm-2.378 3.17c-.475 0-.792-.316-.792-.792 0-.476.317-.793.792-.793.476 0 .793.317.793.793 0 .476-.317.793-.793.793zm.793-3.17H26.95V15.06c0-.476.317-.793.792-.793.476 0 .793.317.793.793v1.585z"/>
        </g>
    </g>
</svg>
