<svg xmlns="http://www.w3.org/2000/svg" xmlns:xlink="http://www.w3.org/1999/xlink" width="70" height="71" viewBox="0 0 70 71">
    <defs>
        <circle id="a" cx="35" cy="35.187" r="35"/>
    </defs>
    <g fill="none" fill-rule="evenodd">
        <mask id="b" fill="#fff">
            <use xlink:href="#a"/>
        </mask>
        <use fill="#E5F4DC" xlink:href="#a"/>
        <g fill-rule="nonzero" mask="url(#b)">
            <path fill="#11A817" stroke="#11A817" d="M50.523 17.566H18.679c-2.985 0-6.179 1.625-6.179 6.178v21.35c0 4.553 3.194 6.179 6.179 6.179h11.787v3.935h-1.958a.95.95 0 0 0 0 1.901h12.547a.95.95 0 0 0 0-1.9h-2.32v-3.936h11.788c4.553 0 6.179-3.194 6.179-6.179v-21.35c0-4.553-3.194-6.178-6.18-6.178zM36.835 55.208h-4.468v-3.935h4.468v3.935zM54.8 45.094c0 1.283-.418 4.278-4.277 4.278H18.679c-1.284 0-4.278-.418-4.278-4.278v-1.36h40.4v1.36zm0-3.25H14.401V23.781c0-3.859 2.994-4.277 4.278-4.277h31.844c1.283 0 4.277.418 4.277 4.277v18.061z"/>
            <path fill="#4CBBFD" stroke="#4CBBFD" d="M50.01 22.052a.95.95 0 0 0-1.33.19h-.001.047l-7.09 9.506-3.328-4.325a.95.95 0 0 0-.722-.37.95.95 0 0 0-.742.323l-5.418 6.16-3.974-6.788a.95.95 0 0 0-.807-.466.95.95 0 0 0-.818.457l-6.559 10.599a.95.95 0 1 0 1.616.95l5.703-9.296 3.803 6.549a.95.95 0 0 0 1.53.152l5.533-6.188 3.393 4.41c.194.22.468.354.76.371a.95.95 0 0 0 .751-.38L50.2 23.383a.95.95 0 0 0-.19-1.33z"/>
        </g>
    </g>
</svg>
