<svg xmlns="http://www.w3.org/2000/svg" width="63" height="70" viewBox="0 0 63 70">
    <g fill="#8D9AA7" fill-rule="evenodd">
        <path d="M35.504 1.373l23.555 13.562c2.498 1.428 3.57 3.57 3.57 6.424v27.125c0 2.855-1.072 4.996-3.57 6.424L35.504 68.47c-2.141 1.427-4.997 1.427-7.495 0L4.454 54.908C2.313 53.48.885 51.338.885 48.484V21.359c0-2.855 1.428-4.996 3.569-6.424L28.009 1.373c2.498-1.427 5.354-1.427 7.495 0zm-1.74 2.546a3.323 3.323 0 0 0-3.658 0L5.961 17.821c-1.464.732-1.83 1.83-1.83 3.293v27.804c0 1.464.366 2.561 1.83 3.293l24.145 13.902a3.323 3.323 0 0 0 3.659 0L57.91 52.211c1.097-.732 1.829-1.83 1.829-3.293V21.114c0-1.463-.732-2.561-1.83-3.293L33.766 3.92z"/>
        <path fill-rule="nonzero" d="M47.086 31.08c-1.569 0-2.902 1.019-3.411 2.39H38.93a7.715 7.715 0 0 0-1.294-3.135l3.333-3.333a3.6 3.6 0 0 0 4.155-.706 3.644 3.644 0 0 0 0-5.135 3.644 3.644 0 0 0-5.136 0c-1.097 1.097-1.332 2.783-.705 4.116l-3.411 3.372a7.777 7.777 0 0 0-3.097-1.294v-4.744a3.61 3.61 0 0 0 2.391-3.41c0-2-1.646-3.647-3.646-3.647s-3.646 1.647-3.646 3.646c0 1.608 1.02 2.94 2.47 3.45v4.744c-1.137.196-2.234.627-3.136 1.294l-3.372-3.372c.628-1.333.392-3.018-.705-4.116a3.644 3.644 0 0 0-5.136 0 3.644 3.644 0 0 0 0 5.136c1.137 1.137 2.822 1.372 4.155.705l3.372 3.372c-.666.902-1.098 1.96-1.294 3.136h-4.783a3.61 3.61 0 0 0-3.41-2.391c-2 0-3.646 1.646-3.646 3.646s1.646 3.646 3.646 3.646c1.607 0 2.94-1.02 3.45-2.47h4.743c.196 1.137.628 2.235 1.294 3.136l-3.372 3.372c-1.333-.627-3.018-.392-4.116.706a3.644 3.644 0 0 0 0 5.135 3.644 3.644 0 0 0 5.136 0c1.137-1.136 1.372-2.822.705-4.155l3.372-3.372c.94.667 2 1.137 3.176 1.333v4.744c-1.412.51-2.47 1.842-2.47 3.45 0 2 1.646 3.646 3.646 3.646s3.646-1.647 3.646-3.646c0-1.568-1.02-2.901-2.392-3.41v-4.862c1.176-.196 2.235-.628 3.137-1.294l3.332 3.332a3.6 3.6 0 0 0 .706 4.156 3.644 3.644 0 0 0 5.135 0 3.644 3.644 0 0 0 0-5.136c-1.097-1.097-2.783-1.333-4.116-.705l-3.372-3.372c.667-.902 1.098-2 1.294-3.136h4.744c.51 1.411 1.843 2.47 3.45 2.47 2 0 3.646-1.647 3.646-3.647-.078-1.999-1.686-3.646-3.724-3.646zm-5.49-8.273c.51-.51 1.334-.51 1.843 0 .51.51.51 1.333 0 1.843s-1.332.51-1.842 0a1.301 1.301 0 0 1 0-1.843zM21.525 24.69c-.51.51-1.333.51-1.842 0a1.301 1.301 0 0 1 0-1.843c.51-.51 1.333-.51 1.842 0 .51.47.51 1.294 0 1.843zm-5.488 11.37a1.322 1.322 0 0 1-1.333-1.334c0-.744.588-1.332 1.333-1.332.744 0 1.332.588 1.332 1.332 0 .745-.627 1.333-1.332 1.333zm5.488 10.585c-.51.51-1.333.51-1.842 0a1.301 1.301 0 0 1 0-1.843c.51-.51 1.333-.51 1.842 0 .51.51.51 1.333 0 1.843zM30.228 19.2c0-.744.588-1.332 1.333-1.332.744 0 1.332.588 1.332 1.332 0 .745-.588 1.333-1.332 1.333-.745-.039-1.333-.627-1.333-1.333zm2.665 31.05c0 .745-.588 1.333-1.332 1.333a1.322 1.322 0 0 1-1.333-1.333c0-.744.588-1.332 1.333-1.332.744.039 1.332.627 1.332 1.332zm-.94-14.192l-1.177 1.137-1.137-1.176-1.097-1.137 1.176-1.137 1.098 1.137 2.666-2.626 1.136 1.176-2.665 2.626zm9.644 8.704c.51-.51 1.333-.51 1.842 0 .51.51.51 1.333 0 1.842-.51.51-1.332.51-1.842 0-.51-.47-.51-1.293 0-1.842zm5.489-8.704a1.322 1.322 0 0 1-1.333-1.333c0-.744.588-1.332 1.333-1.332.744 0 1.332.588 1.332 1.332 0 .745-.588 1.333-1.332 1.333z"/>
    </g>
</svg>
