<svg xmlns="http://www.w3.org/2000/svg" width="39" height="39" viewBox="0 0 39 39">
    <g fill="#7FC850" fill-rule="evenodd">
        <path d="M31.196 34.3c-3.174 2.563-7.179 4.092-11.531 4.092-4.353 0-8.358-1.53-11.532-4.092L4.82 37.612l-3.536-3.535 3.404-3.404a19.407 19.407 0 0 1-3.692-11.44c0-4.289 1.373-8.248 3.692-11.44L1.285 4.389 4.821.853l3.312 3.312C11.307 1.603 15.313.074 19.665.074s8.357 1.529 11.531 4.091L34.508.853l3.536 3.536-3.404 3.404a19.407 19.407 0 0 1 3.692 11.44c0 4.288-1.373 8.247-3.692 11.44l3.404 3.404-3.536 3.535-3.312-3.312zm-11.538-.242c7.978 0 14.445-6.638 14.445-14.825 0-8.188-6.467-14.825-14.445-14.825-7.978 0-14.445 6.637-14.445 14.825 0 8.187 6.467 14.825 14.445 14.825z"/>
        <path d="M21.543 11.081c3.404 0 5.9 2.586 5.9 6.079s-2.496 6.055-5.9 6.055h-2.95v4.169h-4.72V11.081h7.67zm-.999 8.385c1.203 0 2.11-.979 2.11-2.306 0-1.328-.907-2.306-2.087-2.306h-1.974v4.612h1.951z"/>
    </g>
</svg>
