<svg xmlns="http://www.w3.org/2000/svg" width="160" height="160" viewBox="0 0 160 160">
    <g fill="none" fill-rule="evenodd" transform="translate(.195 -.516)">
        <circle cx="80" cy="80.516" r="72" fill="#052892"/>
        <g transform="translate(0 .297)">
            <circle cx="79.9" cy="80.1" r="72.5" stroke="#052892" stroke-linecap="round" stroke-linejoin="round" stroke-width="2"/>
            <g transform="translate(16.933 34.933)">
                <circle cx="2.9" cy="45.2" r="2" fill="#FFF" fill-rule="nonzero"/>
                <circle cx="122.9" cy="45.2" r="2" fill="#FFF" fill-rule="nonzero"/>
                <circle cx="63" cy="45.2" r="44.8" stroke="#FFF" stroke-linecap="round" stroke-linejoin="round" stroke-width="2"/>
                <path fill="#FFF" fill-rule="nonzero" d="M63 4.9c-.5 0-.8-.4-.8-.8s.4-.8.8-.8c.5 0 .8.4.8.8s-.4.8-.8.8zm3.5.2c-.5 0-.8-.5-.8-.9s.5-.8.9-.8.8.5.8.9-.4.8-.9.8zm3.5.5c-.5-.1-.8-.5-.7-1 .1-.5.5-.8 1-.7.5.1.8.5.7 1-.1.5-.5.7-1 .7zm3.5.7c-.5-.1-.7-.6-.6-1 .1-.4.6-.7 1-.6.4.1.7.6.6 1-.1.4-.5.8-1 .6zm3.4 1.1c-.4-.2-.7-.6-.5-1.1.2-.5.6-.7 1.1-.5.4.2.7.6.5 1.1-.2.5-.6.7-1.1.5zm3.3 1.4c-.4-.2-.6-.7-.4-1.1.2-.4.7-.6 1.1-.4.4.2.6.7.4 1.1-.2.4-.7.6-1.1.4zm3.1 1.7c-.4-.2-.5-.7-.3-1.2s.7-.5 1.2-.3c.4.2.5.7.3 1.2-.2.4-.7.5-1.2.3zm3 1.9c-.4-.3-.5-.8-.2-1.2.3-.4.8-.5 1.2-.2.4.3.5.8.2 1.2-.3.4-.8.5-1.2.2zm2.8 2.2c-.4-.3-.4-.8-.1-1.2.3-.4.8-.4 1.2-.1.4.3.4.8.1 1.2-.3.4-.8.4-1.2.1zm2.6 2.4c-.3-.3-.3-.9 0-1.2.3-.3.9-.3 1.2 0 .3.3.3.9 0 1.2-.3.4-.8.4-1.2 0zm2.4 2.7c-.3-.4-.2-.9.1-1.2.3-.3.9-.2 1.2.1.3.3.2.9-.1 1.2-.4.3-.9.3-1.2-.1zm2.1 2.8c-.3-.4-.2-.9.2-1.2.4-.3.9-.2 1.2.2.3.4.2.9-.2 1.2-.4.3-.9.2-1.2-.2zm1.9 3.1c-.2-.4-.1-.9.3-1.1.4-.2.9-.1 1.1.3.2.4.1.9-.3 1.1-.4.2-.9.1-1.1-.3zm1.6 3.2c-.2-.4 0-.9.4-1.1.4-.2.9 0 1.1.4.2.4 0 .9-.4 1.1-.4.2-.9 0-1.1-.4zm1.3 3.3c-.2-.4.1-.9.5-1.1.4-.2.9.1 1.1.5.2.4-.1.9-.5 1.1-.4.2-.9-.1-1.1-.5zm1 3.4c-.1-.5.2-.9.6-1 .4-.1.9.2 1 .6.1.4-.2.9-.6 1-.4.1-.9-.2-1-.6zm.7 3.5c-.1-.5.2-.9.7-1 .5-.1.9.2 1 .7.1.5-.2.9-.7 1-.5.1-.9-.3-1-.7zm.4 3.5c0-.5.3-.9.8-.9s.9.3.9.8-.3.9-.8.9-.8-.3-.9-.8zm.1 3.6c0-.5.4-.8.9-.8s.8.4.8.9-.4.8-.9.8c-.4-.1-.8-.4-.8-.9zm-.2 3.5c0-.5.5-.8.9-.8s.8.5.8.9-.5.8-.9.8-.9-.4-.8-.9zm-.6 3.6c.1-.5.5-.8 1-.7.5.1.8.5.7 1-.1.5-.5.8-1 .7-.5-.1-.8-.6-.7-1zm-.8 3.4c.1-.4.6-.7 1-.6.4.1.7.6.6 1-.1.4-.6.7-1 .6-.4-.1-.8-.5-.6-1zm-1.2 3.4c.2-.4.7-.6 1.1-.5.4.1.6.7.5 1.1-.1.4-.7.6-1.1.5-.4-.1-.7-.7-.5-1.1zM99 63.2c.2-.4.7-.6 1.1-.4.4.2.6.7.4 1.1-.2.4-.7.6-1.1.4-.5-.1-.7-.7-.4-1.1zm-1.8 3.1c.2-.4.8-.5 1.2-.3.4.2.5.8.3 1.2-.2.4-.8.5-1.2.3-.4-.2-.5-.8-.3-1.2zm-2 3c.3-.4.8-.4 1.2-.2.4.2.4.8.2 1.2-.2.4-.8.4-1.2.2-.4-.2-.5-.8-.2-1.2zM93 72c.3-.3.8-.4 1.2-.1.4.3.4.8.1 1.2-.3.4-.8.4-1.2.1-.4-.3-.5-.8-.1-1.2zm-2.5 2.6c.3-.3.9-.3 1.2 0 .3.3.3.9 0 1.2-.3.3-.9.3-1.2 0-.3-.3-.4-.9 0-1.2zm-2.7 2.3c.4-.3.9-.2 1.2.1.3.3.2.9-.1 1.2-.4.3-.9.2-1.2-.1-.3-.3-.3-.9.1-1.2zM84.9 79c.4-.3.9-.1 1.2.2.3.3.1.9-.2 1.2-.3.3-.9.1-1.2-.2-.3-.3-.2-1 .2-1.2zm-3.1 1.8c.4-.2.9-.1 1.1.3.2.4.1.9-.3 1.1-.4.2-.9.1-1.1-.3-.3-.4-.1-.9.3-1.1zm-3.2 1.5c.4-.2.9 0 1.1.4.2.4 0 .9-.4 1.1-.4.2-.9 0-1.1-.4-.2-.4-.1-.9.4-1.1zm-3.4 1.2c.4-.1.9.1 1.1.5.2.4-.1.9-.5 1.1-.4.2-.9-.1-1.1-.5-.2-.4.1-.9.5-1.1zm-3.4 1c.5-.1.9.2 1 .6.1.5-.2.9-.6 1-.5.1-.9-.2-1-.6-.2-.5.1-.9.6-1zm-3.5.6c.5-.1.9.3 1 .7.1.5-.3.9-.7 1-.4.1-.9-.3-1-.7-.1-.5.2-.9.7-1zm-3.6.3c.5 0 .9.3.9.8s-.3.9-.8.9-.9-.3-.9-.8.4-.9.8-.9zm-3.5 0c.5 0 .8.4.8.9s-.4.8-.9.8-.8-.4-.8-.9c0-.4.4-.8.9-.8zm-3.6-.3c.5.1.8.5.7 1-.1.5-.5.8-1 .7-.5-.1-.8-.5-.7-1 .1-.4.6-.8 1-.7zm-3.5-.6c.5.1.7.6.6 1-.1.4-.6.7-1 .6-.4-.1-.7-.6-.6-1 .1-.4.6-.7 1-.6zm-3.4-1c.4.1.7.6.5 1.1-.2.5-.6.7-1.1.5-.5-.2-.7-.6-.5-1.1.2-.5.6-.6 1.1-.5zm-3.4-1.2c.4.2.6.7.4 1.1-.2.4-.7.6-1.1.4-.4-.2-.6-.7-.4-1.1.2-.4.7-.6 1.1-.4zm-3.2-1.5c.4.2.6.7.3 1.1-.3.4-.7.6-1.1.3-.4-.3-.6-.7-.3-1.1.3-.4.7-.5 1.1-.3zM41 79c.4.3.5.8.2 1.2-.3.4-.8.5-1.2.2-.4-.3-.5-.8-.2-1.2.3-.4.9-.5 1.2-.2zm-2.9-2.1c.4.3.4.8.1 1.2-.3.4-.8.4-1.2.1-.4-.3-.4-.8-.1-1.2.3-.4.9-.4 1.2-.1zm-2.7-2.3c.3.3.4.9 0 1.2-.3.3-.9.4-1.2 0-.3-.4-.4-.9 0-1.2.4-.3.9-.3 1.2 0zM32.9 72c.3.3.3.9-.1 1.2-.3.3-.9.3-1.2-.1-.3-.4-.3-.9.1-1.2.4-.2.9-.2 1.2.1zm-2.2-2.7c.3.4.2.9-.2 1.2-.4.3-.9.2-1.2-.2-.3-.4-.2-.9.2-1.2.4-.3.9-.2 1.2.2zm-2-3c.2.4.1.9-.3 1.2-.4.3-.9.1-1.2-.3-.2-.4-.1-.9.3-1.2.4-.3.9-.1 1.2.3zm-1.8-3.1c.2.4 0 .9-.4 1.1-.4.2-.9 0-1.1-.4-.2-.4 0-.9.4-1.1.4-.1.9 0 1.1.4zM25.5 60c.2.4 0 .9-.5 1.1-.5.2-.9 0-1.1-.5-.2-.4 0-.9.5-1.1.5-.2.9 0 1.1.5zm-1.2-3.4c.1.4-.1.9-.6 1-.5.1-.9-.1-1-.6-.1-.4.1-.9.6-1 .5-.1.9.2 1 .6zm-.8-3.4c.1.5-.2.9-.7 1-.5.1-.9-.2-1-.7-.1-.5.2-.9.7-1 .4-.1.9.2 1 .7zm-.6-3.6c0 .5-.3.9-.8.9s-.9-.3-.9-.8.3-.9.8-.9.9.4.9.8zm-.2-3.5c0 .5-.4.9-.8.9s-.9-.4-.9-.9.4-.9.8-.9.9.4.9.9zm.1-3.6c0 .5-.4.8-.9.8s-.8-.4-.8-.9.4-.8.9-.8.8.5.8.9zm.4-3.5c-.1.5-.5.8-1 .7-.5-.1-.8-.5-.7-1 .1-.5.5-.8 1-.7.5.1.7.5.7 1zm.7-3.5c-.1.5-.6.7-1 .6-.4-.1-.7-.6-.6-1 .1-.4.6-.7 1-.6.4.1.7.5.6 1zm1-3.4c-.2.4-.6.7-1.1.5-.5-.2-.7-.6-.5-1.1.2-.5.6-.7 1.1-.5.5.2.6.6.5 1.1zm1.3-3.3c-.2.4-.7.6-1.1.4-.4-.2-.6-.7-.4-1.1.2-.4.7-.6 1.1-.4.4.1.6.6.4 1.1zm1.6-3.2c-.2.4-.7.6-1.1.3-.4-.3-.6-.7-.3-1.1.3-.4.7-.6 1.1-.3.4.3.5.7.3 1.1zm1.9-3.1c-.3.4-.8.5-1.2.2-.4-.3-.5-.7-.2-1.1.3-.4.8-.5 1.2-.2.4.3.4.8.2 1.1zm2.1-2.8c-.3.4-.8.4-1.2.1-.4-.3-.4-.8-.1-1.2.3-.4.8-.4 1.2-.1.4.3.4.8.1 1.2zm2.4-2.7c-.3.3-.9.3-1.2 0-.3-.3-.3-.9 0-1.2.3-.3.9-.3 1.2 0 .3.3.3.9 0 1.2zm2.6-2.4c-.4.3-.9.3-1.2-.1-.3-.4-.3-.9.1-1.2.4-.3.9-.3 1.2.1.3.4.2.9-.1 1.2zm2.8-2.2c-.4.3-.9.2-1.2-.2-.3-.4-.2-.9.2-1.2.4-.3.9-.2 1.2.2.3.4.1.9-.2 1.2zm3-1.9c-.4.2-.9.1-1.2-.3-.3-.4-.1-.9.3-1.2.4-.2.9-.1 1.2.3.3.4.1.9-.3 1.2zm3.1-1.7c-.4.2-.9 0-1.1-.4-.2-.4 0-.9.4-1.1.4-.2.9 0 1.1.4.2.4 0 .9-.4 1.1zM49 7.4c-.4.2-.9-.1-1.1-.5-.2-.4.1-.9.5-1.1.4-.2.9.1 1.1.5.2.4-.1 1-.5 1.1zm3.4-1.1c-.5.1-.9-.1-1-.6-.1-.5.1-.9.6-1 .5-.1.9.1 1 .6.1.5-.2.9-.6 1zm3.5-.7c-.5.1-.9-.2-1-.7-.1-.5.2-.9.7-1 .5-.1.9.2 1 .7 0 .4-.3.9-.7 1zm3.5-.5c-.5 0-.9-.3-.9-.8s.3-.9.8-.9.9.3.9.8-.3.8-.8.9zM63 7.8c-.4 0-.8-.4-.8-.8s.4-.8.8-.8.8.4.8.8-.4.8-.8.8zm3.3.2c-.4 0-.8-.4-.7-.8.1-.4.4-.8.8-.7.4.1.8.4.7.8-.1.4-.4.7-.8.7zm3.2.4c-.4-.1-.7-.5-.6-.9.1-.4.5-.7.9-.6.4.1.7.5.6.9-.1.4-.4.7-.9.6zm3.3.7c-.4-.1-.7-.5-.6-1 .1-.4.5-.7 1-.6.5.1.7.5.6 1-.2.5-.6.7-1 .6zm3.1 1c-.4-.1-.6-.6-.5-1 .1-.4.6-.6 1-.5.4.1.6.6.5 1-.1.5-.6.7-1 .5zm3.1 1.3c-.4-.2-.6-.6-.4-1 .2-.4.6-.6 1-.4.4.2.6.6.4 1-.2.4-.6.6-1 .4zm2.9 1.6c-.4-.2-.5-.7-.3-1.1.2-.4.7-.5 1.1-.3.4.2.5.7.3 1.1-.3.3-.7.5-1.1.3zm2.8 1.8c-.4-.2-.4-.7-.2-1.1.2-.4.7-.4 1.1-.2.4.2.4.7.2 1.1-.2.4-.8.4-1.1.2zm2.6 2c-.3-.3-.4-.8-.1-1.1.3-.3.8-.4 1.1-.1.3.3.4.8.1 1.1-.3.3-.8.4-1.1.1zm2.4 2.2c-.3-.3-.3-.8 0-1.1.3-.3.8-.3 1.1 0 .3.3.3.8 0 1.1-.3.4-.8.4-1.1 0zm2.2 2.5c-.3-.3-.2-.8.1-1.1.3-.3.8-.2 1.1.1.3.3.2.8-.1 1.1-.3.3-.8.2-1.1-.1zm2 2.7c-.2-.4-.1-.8.2-1.1.4-.2.8-.1 1.1.2.3.3.1.8-.2 1.1-.4.2-.9.1-1.1-.2zm1.7 2.8c-.2-.4-.1-.9.3-1.1.4-.2.9-.1 1.1.3.2.4.1.9-.3 1.1-.4.2-.9.1-1.1-.3zm1.5 2.9c-.2-.4 0-.9.4-1 .4-.1.9 0 1 .4.1.4 0 .9-.4 1-.4.1-.8 0-1-.4zm1.2 3.1c-.1-.4.1-.9.5-1 .4-.1.9.1 1 .5.1.4-.1.9-.5 1-.4.1-.9-.1-1-.5zm.9 3.2c-.1-.4.2-.8.6-1 .4-.1.8.2 1 .6.1.4-.2.8-.6 1-.4.2-.9-.2-1-.6zm.7 3.2c-.1-.4.2-.8.7-.9.4-.1.8.2.9.7.1.4-.2.8-.7.9-.5.1-.8-.2-.9-.7zm.4 3.3c0-.4.3-.8.7-.8.4 0 .8.3.8.7 0 .4-.3.8-.7.8-.4.1-.8-.3-.8-.7zm0 3.3c0-.4.4-.8.8-.8s.8.4.8.8-.4.8-.8.8-.8-.3-.8-.8zm-.2 3.3c0-.4.4-.7.9-.7s.7.4.7.9-.4.7-.9.7-.7-.4-.7-.9zm-.5 3.3c.1-.4.5-.7.9-.6.4.1.7.5.6.9-.1.4-.5.7-.9.6-.4-.1-.7-.5-.6-.9zm-.8 3.2c.1-.4.6-.7 1-.5.4.2.7.6.5 1-.2.4-.6.7-1 .5-.4-.2-.6-.6-.5-1zm-1.1 3.1c.2-.4.6-.6 1-.4.4.2.6.6.4 1-.2.4-.6.6-1 .4-.4-.2-.5-.6-.4-1zm-1.3 3c.2-.4.7-.5 1.1-.3.4.2.5.7.3 1.1-.2.4-.7.5-1.1.3-.4-.2-.5-.7-.3-1.1zm-1.6 2.9c.2-.4.7-.5 1.1-.2.4.3.5.7.2 1.1-.3.4-.7.5-1.1.2-.4-.3-.5-.7-.2-1.1zm-1.9 2.8c.3-.3.8-.4 1.1-.2.3.3.4.8.2 1.1-.3.3-.8.4-1.1.2-.4-.3-.5-.8-.2-1.1zm-2.1 2.5c.3-.3.8-.3 1.1-.1.3.3.3.8.1 1.1-.3.3-.8.3-1.1.1-.3-.2-.4-.8-.1-1.1zm-2.3 2.4c.3-.3.8-.3 1.1 0 .3.3.3.8 0 1.1-.3.3-.8.3-1.1 0-.3-.3-.3-.8 0-1.1zM86 74.6c.3-.3.8-.2 1.1.1.3.3.2.8-.1 1.1-.3.3-.8.2-1.1-.1-.3-.3-.3-.8.1-1.1zm-2.7 2c.4-.2.8-.1 1.1.2.2.4.1.8-.2 1.1-.3.3-.8.1-1.1-.2-.3-.4-.2-.9.2-1.1zm-2.9 1.6c.4-.2.9-.1 1.1.3.2.4.1.9-.3 1.1-.4.2-.9.1-1.1-.3-.2-.4 0-.9.3-1.1zm-3 1.5c.4-.2.9 0 1 .4.1.4 0 .9-.4 1-.4.2-.9 0-1-.4-.1-.4 0-.9.4-1zm-3.1 1.1c.4-.1.9.1 1 .5.1.4-.1.9-.5 1-.4.1-.9-.1-1-.5-.1-.4.1-.9.5-1zm-3.1.9c.4-.1.8.2.9.6.1.4-.2.8-.6.9-.4.1-.8-.2-.9-.6-.1-.4.1-.8.6-.9zm-3.3.6c.4-.1.8.2.9.7.1.5-.2.8-.7.9-.5.1-.8-.2-.9-.7-.1-.5.3-.9.7-.9zm-3.3.2c.4 0 .8.3.8.7 0 .4-.3.8-.7.8-.4 0-.8-.3-.8-.7-.1-.4.3-.7.7-.8zm-3.3 0c.4 0 .8.4.7.8 0 .4-.4.8-.8.7-.4-.1-.8-.4-.7-.8.1-.4.4-.7.8-.7zm-3.3-.2c.4.1.7.5.7.9s-.5.7-.9.7-.7-.5-.7-.9.5-.8.9-.7zm-3.2-.6c.4.1.7.5.6.9-.1.4-.5.7-.9.6-.4-.1-.7-.5-.6-.9 0-.5.4-.7.9-.6zm-3.2-.9c.4.1.6.6.5 1-.1.4-.6.6-1 .5-.4-.1-.6-.6-.5-1 .1-.4.5-.6 1-.5zm-3.1-1.1c.4.2.6.6.4 1-.2.4-.6.6-1 .4-.4-.2-.6-.6-.4-1 .2-.4.6-.6 1-.4zm-3-1.5c.4.2.5.7.3 1.1-.2.4-.7.5-1.1.3-.4-.2-.5-.7-.3-1.1.2-.4.7-.5 1.1-.3zm-2.9-1.6c.4.2.5.7.2 1.1-.2.4-.7.5-1.1.2-.4-.3-.5-.7-.2-1.1.3-.4.7-.5 1.1-.2zm-2.7-2c.3.3.4.8.1 1.1-.3.3-.8.4-1.1.1-.3-.3-.4-.8-.1-1.1.3-.3.8-.3 1.1-.1zm-2.5-2.1c.3.3.3.8 0 1.1-.3.3-.8.3-1.1 0-.3-.3-.3-.8 0-1.1.3-.3.8-.3 1.1 0zm-2.3-2.4c.3.3.3.8-.1 1.1-.4.3-.8.3-1.1-.1-.3-.3-.3-.8.1-1.1.4-.3.8-.2 1.1.1zM33 67.6c.3.3.2.8-.2 1.1-.4.3-.8.2-1.1-.2-.3-.4-.2-.8.2-1.1.4-.3.8-.2 1.1.2zm-1.9-2.8c.2.4.1.9-.2 1.1-.3.2-.9.1-1.1-.2-.2-.4-.1-.9.2-1.1.3-.2.9-.1 1.1.2zm-1.6-2.9c.2.4 0 .9-.3 1.1-.3.2-.9 0-1.1-.3-.2-.3 0-.9.3-1.1.3-.2.9 0 1.1.3zm-1.3-3c.2.4 0 .9-.4 1-.4.1-.9 0-1-.4-.1-.4 0-.9.4-1 .4-.2.8 0 1 .4zm-1.1-3.1c.1.4-.1.9-.5 1-.4.1-.9-.1-1-.5-.1-.4.1-.9.5-1 .4-.1.9.1 1 .5zm-.8-3.2c.1.4-.2.8-.6.9-.4.1-.8-.2-.9-.6-.1-.4.2-.8.6-.9.4-.1.8.2.9.6zm-.5-3.3c0 .4-.3.8-.7.9-.4 0-.8-.3-.9-.7 0-.4.3-.8.7-.9.5 0 .8.3.9.7zm-.2-3.3c0 .4-.3.8-.8.8s-.8-.3-.8-.7c0-.4.3-.8.8-.8s.8.3.8.7zm0-3.3c0 .4-.4.8-.8.7-.4 0-.8-.4-.7-.8 0-.4.4-.8.8-.7.4 0 .8.4.7.8zm.4-3.3c-.1.4-.5.7-.9.7-.4-.1-.7-.5-.7-.9.1-.4.5-.7.9-.7.5.1.8.5.7.9zm.7-3.2c-.1.4-.5.7-1 .6-.5-.1-.7-.5-.6-1 .1-.5.5-.7 1-.6.4.1.7.6.6 1zm.9-3.2c-.1.4-.6.6-1 .5-.4-.1-.6-.6-.5-1 .1-.4.6-.6 1-.5.4.2.6.6.5 1zm1.2-3.1c-.2.4-.6.6-1 .4-.4-.2-.6-.6-.4-1 .2-.4.6-.6 1-.4.4.2.6.6.4 1zm1.5-2.9c-.2.4-.7.5-1.1.3-.4-.2-.5-.7-.3-1.1.2-.4.7-.5 1.1-.3.4.2.5.7.3 1.1zm1.7-2.8c-.2.4-.7.5-1.1.2-.4-.2-.5-.7-.2-1.1.2-.4.7-.5 1.1-.2.4.2.5.7.2 1.1zm2-2.7c-.3.3-.8.4-1.1.1-.3-.3-.4-.8-.1-1.1.3-.3.8-.4 1.1-.1.3.3.4.8.1 1.1zm2.2-2.5c-.3.3-.8.3-1.1 0-.3-.3-.3-.8 0-1.1.3-.3.8-.3 1.1 0 .3.3.3.8 0 1.1zm2.4-2.2c-.3.3-.8.2-1.1-.1-.3-.3-.2-.8.1-1.1.3-.3.8-.2 1.1.1.3.3.3.8-.1 1.1zm2.6-2c-.4.2-.8.2-1.1-.2-.2-.4-.2-.8.2-1.1.4-.2.8-.2 1.1.2.3.3.2.8-.2 1.1zM44 13c-.4.2-.9.1-1.1-.3-.2-.4-.1-.9.3-1.1.4-.2.9-.1 1.1.3.2.4.1.8-.3 1.1zm2.9-1.6c-.4.2-.9 0-1-.4-.1-.4 0-.9.4-1 .4-.1.9 0 1 .4.1.4 0 .8-.4 1zm3.1-1.3c-.4.1-.9-.1-1-.5-.1-.4.1-.9.5-1 .4-.1.9.1 1 .5.1.4-.1.9-.5 1zm3.1-1c-.4.1-.8-.1-1-.6-.2-.5.1-.8.6-1 .5-.2.8.1 1 .6.2.5-.1.9-.6 1zm3.3-.7c-.4.1-.8-.2-.9-.6-.1-.4.2-.8.6-.9.4-.1.8.2.9.6.1.4-.2.8-.6.9zm3.2-.4c-.4 0-.8-.3-.8-.7 0-.4.3-.8.7-.8.4 0 .8.3.8.7.1.3-.2.7-.7.8zm3.4 2.7c-.4 0-.7-.3-.7-.7 0-.4.3-.7.7-.7.4 0 .7.3.7.7 0 .4-.3.7-.7.7zm3 .1c-.4 0-.7-.4-.7-.8s.4-.7.8-.7.7.4.7.8-.4.8-.8.7zm3 .4c-.4-.1-.7-.4-.6-.8.1-.4.4-.7.8-.6.4.1.7.4.6.8-.1.4-.4.7-.8.6zm3 .7c-.4-.1-.6-.5-.5-.9.1-.4.5-.6.9-.5.4.1.6.5.5.9-.1.4-.5.6-.9.5zm2.9.9c-.4-.1-.6-.6-.4-.9.2-.3.6-.6.9-.4.3.2.6.6.4.9-.1.4-.5.6-.9.4zm2.8 1.2c-.4-.2-.5-.6-.4-1 .1-.4.6-.5 1-.4.4.1.5.6.4 1-.1.4-.6.6-1 .4zm2.7 1.4c-.3-.2-.5-.6-.3-1 .2-.3.6-.5 1-.3s.5.6.3 1-.6.5-1 .3zm2.6 1.7c-.3-.2-.4-.7-.2-1 .2-.3.7-.4 1-.2.3.2.4.7.2 1-.2.3-.7.4-1 .2zm2.4 1.9c-.3-.3-.3-.7-.1-1 .3-.3.7-.3 1-.1.3.2.3.7.1 1-.3.3-.7.3-1 .1zm2.2 2.1c-.3-.3-.3-.7 0-1 .3-.3.7-.3 1 0 .3.3.3.7 0 1-.3.3-.7.2-1 0zm2.1 2.2c-.3-.3-.2-.8.1-1 .3-.3.8-.2 1 .1.2.3.2.8-.1 1-.3.2-.8.2-1-.1zm1.8 2.5c-.2-.3-.1-.8.2-1 .3-.2.8-.1 1 .2.2.3.1.8-.2 1-.3.2-.8.1-1-.2zm1.6 2.6c-.2-.3-.1-.8.3-1 .4-.2.8-.1 1 .3.2.4.1.8-.3 1-.4.2-.8 0-1-.3zm1.4 2.7c-.2-.4 0-.8.4-1 .4-.2.8 0 1 .4.2.4 0 .8-.4 1-.4.2-.9 0-1-.4zm1.1 2.8c-.1-.4.1-.8.4-.9.4-.1.8.1.9.4.1.3-.1.8-.4.9-.3.1-.8 0-.9-.4zm.8 3c-.1-.4.1-.8.5-.9.4-.1.8.1.9.5.1.4-.1.8-.5.9-.4.1-.8-.1-.9-.5zm.6 3c-.1-.4.2-.8.6-.8.4-.1.8.2.8.6 0 .4-.2.8-.6.8-.4 0-.7-.2-.8-.6zm.4 3c0-.4.3-.7.7-.8.4-.1.7.3.8.7.1.4-.3.7-.7.8-.4.1-.8-.3-.8-.7zm.1 3.1c0-.4.3-.7.7-.7.4 0 .7.3.7.7 0 .4-.3.7-.7.7-.4 0-.8-.3-.7-.7zm-.3 3c0-.4.4-.7.8-.6.4.1.7.4.6.8-.1.4-.4.7-.8.6-.4-.1-.6-.4-.6-.8zm-.4 3c.1-.4.5-.6.8-.6.3 0 .6.5.6.8-.1.4-.5.6-.8.6-.3 0-.7-.4-.6-.8zm-.8 3c.1-.4.5-.6.9-.5.4.1.6.5.5.9-.1.4-.5.6-.9.5-.4-.1-.6-.5-.5-.9zm-1 2.9c.1-.4.6-.5.9-.4.4.1.5.6.4.9-.1.4-.6.5-.9.4-.3-.1-.5-.6-.4-.9zm-1.2 2.8c.2-.4.6-.5 1-.3s.5.6.3 1-.6.5-1 .3-.5-.7-.3-1zm-1.5 2.6c.2-.3.7-.4 1-.2.3.2.4.7.2 1-.2.3-.7.4-1 .2-.3-.2-.4-.6-.2-1zm-1.7 2.5c.2-.3.7-.4 1-.1.3.3.4.7.1 1-.3.3-.7.4-1 .1-.3-.3-.3-.6-.1-1zm-1.9 2.4c.3-.3.7-.3 1-.1.3.2.3.7.1 1-.2.3-.7.3-1 .1-.3-.2-.4-.7-.1-1zm-2.2 2.2c.3-.3.8-.3 1 0 .2.3.3.8 0 1-.3.2-.8.3-1 0-.2-.3-.3-.7 0-1zm-2.3 2c.3-.2.8-.2 1 .1.2.3.2.8-.1 1-.3.2-.8.2-1-.1-.3-.3-.2-.8.1-1zm-2.5 1.7c.3-.2.8-.1 1 .2.2.3.1.8-.2 1-.3.2-.8.1-1-.2-.2-.3-.1-.7.2-1zm-2.6 1.6c.4-.2.8-.1 1 .3.2.4.1.8-.3 1-.4.2-.8.1-1-.3-.2-.4-.1-.8.3-1zM76.3 77c.4-.2.8 0 .9.4.1.4 0 .8-.4.9-.4.1-.8 0-.9-.4-.1-.4.1-.7.4-.9zm-2.8 1.1c.4-.1.8.1.9.5.1.4-.1.8-.5.9-.4.1-.8-.1-.9-.5-.1-.4.1-.8.5-.9zm-3 .8c.4-.1.8.2.9.5.1.3-.2.8-.5.9-.3.1-.8-.2-.9-.5-.1-.3.1-.8.5-.9zm-3 .5c.4-.1.8.2.8.6.1.4-.2.8-.6.8-.4.1-.8-.2-.8-.6-.1-.4.2-.7.6-.8zm-3 .3c.4 0 .7.3.8.7.1.4-.3.7-.7.8-.4.1-.7-.3-.8-.7-.1-.4.3-.8.7-.8zm-3.1 0c.4 0 .7.4.7.8s-.4.7-.8.7-.7-.4-.7-.8c.1-.4.4-.8.8-.7zm-3-.3c.4.1.7.4.6.8-.1.4-.4.7-.8.6-.4-.1-.7-.4-.6-.8.1-.4.4-.7.8-.6zm-3-.5c.4.1.6.5.5.9-.1.4-.5.6-.9.5-.4-.1-.6-.5-.5-.9.1-.4.5-.6.9-.5zm-3-.8c.4.1.6.5.5.9-.1.4-.5.6-.9.5-.4-.1-.6-.5-.5-.9.1-.4.6-.7.9-.5zM49.6 77c.4.2.5.6.4.9-.1.3-.6.5-.9.4-.4-.2-.5-.6-.4-.9.1-.3.5-.6.9-.4zm-2.8-1.3c.4.2.5.6.3 1s-.6.5-1 .3-.5-.6-.3-1 .7-.5 1-.3zm-2.6-1.6c.3.2.4.7.2 1-.2.3-.7.4-1 .2-.3-.2-.4-.7-.2-1 .2-.3.6-.4 1-.2zm-2.5-1.7c.3.2.4.7.1 1-.3.3-.7.4-1 .1-.3-.2-.4-.7-.1-1 .3-.3.7-.4 1-.1zm-2.3-2c.3.3.3.7 0 1-.3.3-.7.3-1 0-.3-.3-.3-.7 0-1 .2-.3.7-.3 1 0zm-2.2-2.2c.3.3.2.8-.1 1-.3.3-.8.2-1-.1-.2-.3-.2-.8.1-1 .3-.2.8-.2 1 .1zm-1.9-2.4c.2.3.2.8-.1 1-.3.2-.8.2-1-.1-.2-.3-.2-.8.1-1 .3-.2.8-.2 1 .1zm-1.7-2.5c.2.3.1.8-.2 1-.3.2-.8.1-1-.2-.2-.3-.1-.8.2-1 .3-.2.8-.1 1 .2zm-1.5-2.6c.2.4 0 .8-.3 1-.3.2-.8 0-1-.3-.2-.3 0-.8.3-1 .3-.2.8-.1 1 .3zm-1.2-2.8c.1.4 0 .8-.4.9-.4.1-.8 0-.9-.4-.1-.4 0-.8.4-.9.4-.1.7 0 .9.4zm-1-2.9c.1.4-.1.8-.5.9-.4.1-.8-.1-.9-.5-.1-.4.1-.8.5-.9.4-.1.8.1.9.5zm-.8-3c.1.4-.2.8-.6.8-.4 0-.8-.2-.8-.6-.1-.4.2-.8.6-.8.4 0 .7.2.8.6zm-.4-3c0 .4-.2.8-.6.8-.4 0-.8-.2-.8-.6 0-.4.2-.8.6-.8.4 0 .7.2.8.6zm-.2-3c0 .4-.3.7-.7.7-.4 0-.7-.3-.7-.7 0-.4.3-.7.7-.7.3-.1.6.3.7.7zm0-3.1c0 .4-.4.7-.8.7s-.7-.4-.7-.8.4-.7.8-.7c.4.1.7.4.7.8zm.4-3c-.1.4-.4.7-.8.6-.4-.1-.7-.4-.6-.8.1-.4.4-.7.8-.6.4.1.6.4.6.8zm.6-3c-.1.4-.5.6-.9.5-.4-.1-.6-.5-.5-.9.1-.4.5-.6.9-.5.3.1.6.5.5.9zm.8-3c-.1.4-.5.6-.9.4-.4-.2-.6-.5-.4-.9.1-.4.5-.6.9-.4.4.2.6.6.4.9zm1.1-2.8c-.2.4-.6.5-1 .4-.4-.2-.5-.6-.4-1 .2-.4.6-.5 1-.4.4.2.6.6.4 1zm1.4-2.7c-.2.3-.6.5-1 .3s-.5-.6-.3-1 .6-.5 1-.3.5.6.3 1zm1.6-2.6c-.2.3-.7.4-1 .2-.3-.2-.4-.7-.2-1 .2-.3.7-.4 1-.2.3.2.4.6.2 1zm1.8-2.5c-.3.3-.7.4-1 .1-.3-.3-.4-.7-.1-1 .3-.3.7-.4 1-.1.4.3.4.7.1 1zm2.1-2.2c-.3.3-.7.3-1 0-.3-.3-.3-.7 0-1 .3-.3.7-.3 1 0 .3.3.3.7 0 1zm2.2-2.1c-.3.3-.8.2-1-.1-.2-.3-.2-.8.1-1 .3-.2.8-.2 1 .1.2.3.2.7-.1 1zm2.4-1.9c-.3.2-.8.1-1-.2-.2-.3-.1-.8.2-1 .3-.2.8-.1 1 .2.2.3.1.8-.2 1zm2.6-1.7c-.3.2-.8.1-1-.3-.2-.3-.1-.8.3-1 .3-.2.8-.1 1 .3.1.4 0 .8-.3 1zm2.7-1.4c-.4.2-.8 0-1-.4-.2-.4 0-.8.4-1 .4-.2.8 0 1 .4.2.4-.1.8-.4 1zm2.8-1.2c-.4.1-.8-.1-.9-.4-.1-.3.1-.8.4-.9.3-.1.8.1.9.4.1.3 0 .8-.4.9zm2.9-.9c-.4.1-.8-.1-.9-.5-.1-.4.1-.8.5-.9.4-.1.8.1.9.5.1.4-.1.8-.5.9zm3-.7c-.4.1-.8-.2-.8-.6 0-.4.2-.8.6-.8.4 0 .8.2.8.6 0 .4-.2.8-.6.8zm3-.4c-.4 0-.7-.3-.8-.7 0-.4.3-.7.7-.8.4 0 .7.3.8.7 0 .4-.3.8-.7.8zm3.1 2.8c-.4 0-.7-.3-.7-.7 0-.4.3-.7.7-.7.4 0 .7.3.7.7 0 .4-.4.7-.7.7zm2.7.1c-.4 0-.6-.4-.6-.7 0-.3.4-.6.7-.6.4 0 .6.4.6.7 0 .3-.3.6-.7.6zm2.8.4c-.4-.1-.6-.4-.5-.8.1-.4.4-.6.8-.5.4.1.6.4.5.8-.1.3-.4.5-.8.5zm2.8.6c-.4-.1-.6-.5-.5-.8.1-.4.5-.6.8-.5.4.1.6.5.5.8-.1.3-.5.6-.8.5zm2.6.8c-.3-.1-.5-.5-.4-.9.1-.4.5-.5.9-.4.3.1.5.5.4.9-.1.4-.5.6-.9.4zm2.6 1.1c-.3-.2-.5-.5-.3-.9.2-.3.5-.5.9-.3.3.2.5.5.3.9-.2.3-.6.5-.9.3zm2.5 1.3c-.3-.2-.4-.6-.2-.9.2-.3.6-.4.9-.2.3.2.4.6.2.9-.2.3-.6.4-.9.2zm2.3 1.5c-.3-.2-.4-.6-.2-.9.2-.3.6-.4.9-.2.3.2.4.6.2.9-.2.3-.6.5-.9.2zm2.2 1.8c-.3-.2-.3-.7-.1-.9.2-.2.7-.3.9-.1.3.2.3.7.1.9-.2.2-.6.3-.9.1zm2.1 1.9c-.3-.3-.2-.7 0-.9.3-.3.7-.2.9 0 .3.3.2.7 0 .9-.2.2-.7.2-.9 0zm1.8 2.1c-.2-.3-.2-.7.1-.9.3-.2.7-.2.9.1.2.3.2.7-.1.9-.3.2-.6.1-.9-.1zm1.7 2.2c-.2-.3-.1-.7.2-.9.3-.2.7-.1.9.2.2.3.1.7-.2.9-.3.2-.7.1-.9-.2zm1.5 2.4c-.2-.3-.1-.7.3-.9.4-.2.7-.1.9.3.2.4.1.7-.3.9-.4.2-.8 0-.9-.3zm1.2 2.5c-.1-.3 0-.7.3-.9.3-.2.7 0 .9.3.2.3 0 .7-.3.9-.3.2-.7 0-.9-.3zm1.1 2.6c-.1-.3.1-.7.4-.8.3-.1.7.1.8.4.1.3-.1.7-.4.8-.3.1-.7-.1-.8-.4zm.7 2.7c-.1-.4.1-.7.5-.8.4-.1.7.1.8.5.1.4-.1.7-.5.8-.4.1-.7-.2-.8-.5zm.6 2.7c-.1-.4.2-.7.6-.8.4-.1.7.2.8.6.1.4-.2.7-.6.8-.4 0-.7-.2-.8-.6zm.3 2.8c0-.4.3-.7.6-.7.4 0 .7.3.7.6s-.3.7-.6.7-.7-.2-.7-.6zm.1 2.8c0-.4.3-.7.7-.7.4 0 .7.3.7.7 0 .4-.3.7-.7.7-.4 0-.7-.3-.7-.7zm-.2 2.8c0-.4.4-.6.7-.6.3 0 .6.4.6.7 0 .3-.4.6-.7.6-.4 0-.7-.3-.6-.7zm-.4 2.8c.1-.4.4-.6.8-.5.4.1.6.4.5.8-.1.4-.4.6-.8.5-.4-.1-.6-.5-.5-.8zm-.7 2.7c.1-.4.5-.6.8-.5.3.1.6.5.5.8-.1.4-.5.6-.8.5-.3-.1-.6-.5-.5-.8zm-.9 2.6c.1-.3.5-.5.9-.4.4.1.5.5.4.9-.1.4-.5.5-.9.4-.4-.1-.6-.6-.4-.9zm-1.2 2.6c.2-.3.6-.5.9-.3.3.2.5.6.3.9-.2.3-.6.5-.9.3-.3-.2-.4-.6-.3-.9zm-1.3 2.4c.2-.3.6-.4.9-.2.3.2.4.6.2.9-.2.3-.6.4-.9.2-.3-.2-.4-.6-.2-.9zm-1.6 2.3c.2-.3.6-.4.9-.1.3.3.4.6.1.9-.3.3-.6.4-.9.1-.3-.2-.3-.6-.1-.9zm-1.8 2.2c.2-.3.7-.3.9 0 .3.2.3.7 0 .9-.2.3-.7.3-.9 0-.2-.3-.2-.6 0-.9zm-1.9 2c.3-.2.7-.2.9 0 .2.3.2.7 0 .9-.3.2-.7.2-.9 0-.2-.2-.3-.7 0-.9zm-2.2 1.8c.3-.2.7-.2.9.1.2.3.2.7-.1.9-.3.2-.7.2-.9-.1-.2-.3-.2-.7.1-.9zm-2.2 1.6c.3-.2.7-.1.9.2.2.3.1.7-.2.9-.3.2-.7.2-.9-.2-.2-.3-.2-.7.2-.9zm-2.5 1.4c.3-.2.7 0 .9.3.2.3 0 .7-.3.9-.3.2-.7 0-.9-.3-.2-.3 0-.7.3-.9zm-2.5 1.2c.3-.1.7 0 .9.4.2.4 0 .7-.4.9-.4.2-.7 0-.9-.4-.2-.4.1-.7.4-.9zm-2.6 1c.3-.1.7.1.8.4.1.3-.1.7-.4.8-.3.1-.7-.1-.8-.4-.2-.3 0-.7.4-.8zm-2.7.7c.4-.1.7.1.8.5.1.4-.1.7-.5.8-.4.1-.7-.1-.8-.5-.1-.4.1-.7.5-.8zm-2.8.5c.4-.1.7.2.7.6 0 .4-.2.7-.6.7-.4 0-.7-.2-.7-.6 0-.4.3-.6.6-.7zm-2.8.3c.4 0 .7.3.7.6s-.3.7-.6.7-.7-.3-.7-.6.3-.7.6-.7zm-2.7 0c.4 0 .6.3.6.7 0 .4-.3.6-.7.6-.4 0-.6-.3-.6-.7 0-.4.3-.6.7-.6zm-2.8-.3c.4.1.6.4.6.7 0 .3-.4.6-.7.6-.3 0-.6-.4-.6-.7 0-.3.3-.6.7-.6zM56 76c.4.1.6.4.5.8-.1.4-.4.6-.8.5-.4-.1-.6-.4-.5-.8.1-.4.5-.5.8-.5zm-2.7-.7c.3.1.5.5.4.8-.1.3-.5.5-.8.4-.3-.1-.5-.5-.4-.8.1-.3.5-.5.8-.4zm-2.6-1c.3.1.5.5.4.9-.1.4-.5.5-.9.4-.4-.1-.5-.5-.4-.9.2-.3.6-.5.9-.4zm-2.5-1.2c.3.2.4.6.3.9-.1.3-.6.4-.9.3-.3-.1-.4-.6-.3-.9.1-.3.5-.4.9-.3zm-2.5-1.4c.3.2.4.6.2.9-.2.4-.6.4-.9.2-.3-.2-.4-.6-.2-.9.2-.3.6-.4.9-.2zm-2.2-1.6c.3.2.3.6.1.9-.2.3-.6.3-.9.1-.3-.2-.3-.6-.1-.9.2-.3.6-.3.9-.1zm-2.2-1.8c.3.2.3.7 0 .9-.3.2-.7.3-.9 0-.3-.2-.3-.7 0-.9.3-.2.7-.3.9 0zm-1.9-2c.2.3.2.7 0 .9-.2.2-.7.2-.9 0-.2-.2-.2-.7 0-.9.2-.2.6-.3.9 0zm-1.8-2.2c.2.3.2.7-.1.9-.3.2-.7.2-.9-.1-.2-.3-.2-.7.1-.9.3-.2.7-.2.9.1zM36 61.8c.2.3.1.7-.2.9-.3.2-.7.1-.9-.2-.2-.3-.1-.7.2-.9.3-.2.7-.1.9.2zm-1.3-2.4c.2.3 0 .7-.3.9-.3.2-.7 0-.9-.3-.2-.3 0-.7.3-.9.3-.2.7-.1.9.3zm-1.2-2.6c.1.3 0 .7-.4.9-.3.1-.7 0-.9-.4-.1-.3 0-.7.4-.9.4-.1.8.1.9.4zm-.9-2.6c.1.4-.1.7-.5.8-.4.1-.7-.1-.8-.5-.1-.4.1-.7.5-.8.4-.1.7.1.8.5zm-.7-2.7c.1.4-.2.7-.5.8-.3.1-.7-.2-.8-.5-.1-.3.2-.7.5-.8.3-.1.8.1.8.5zm-.4-2.8c0 .4-.2.7-.6.7-.4 0-.7-.2-.7-.6 0-.4.2-.7.6-.7.4 0 .7.2.7.6zm-.2-2.8c0 .4-.3.7-.7.7-.4 0-.6-.3-.6-.7 0-.4.3-.7.7-.7.3 0 .6.3.6.7zm.1-2.8c0 .4-.3.6-.7.6-.4 0-.7-.3-.6-.7.1-.4.3-.6.7-.6.4 0 .6.3.6.7zm.3-2.8c-.1.4-.4.6-.8.6-.4-.1-.6-.4-.6-.8.1-.4.4-.6.8-.6s.7.5.6.8zm.6-2.7c-.1.4-.4.6-.8.5-.4-.1-.6-.4-.5-.8.1-.4.4-.6.8-.5.4.1.5.4.5.8zm.7-2.7c-.1.3-.5.5-.8.4-.3-.1-.5-.5-.4-.8.1-.3.5-.5.8-.4.3.1.6.4.4.8zm1.1-2.6c-.1.3-.5.5-.9.3s-.5-.5-.3-.9.5-.5.9-.3.4.5.3.9zm1.2-2.5c-.2.3-.6.4-.9.3-.3-.2-.4-.6-.3-.9.2-.3.6-.4.9-.3.4.2.5.6.3.9zm1.5-2.4c-.2.3-.6.4-.9.2-.3-.2-.4-.6-.2-.9.2-.3.6-.4.9-.2.3.2.4.6.2.9zm1.7-2.2c-.2.3-.6.3-.9.1-.3-.2-.3-.6-.1-.9.2-.3.6-.3.9-.1.3.2.3.6.1.9zm1.8-2.1c-.3.3-.7.3-.9 0-.3-.3-.3-.7 0-.9.3-.3.7-.3.9 0 .2.3.3.6 0 .9zm2.1-1.9c-.3.2-.7.2-.9-.1-.2-.3-.2-.7.1-.9.3-.2.7-.2.9.1.2.3.2.6-.1.9zm2.2-1.8c-.3.2-.7.1-.9-.2-.2-.3-.1-.7.2-.9.3-.2.7-.1.9.2.2.3.1.7-.2.9zm2.3-1.5c-.3.2-.7.1-.9-.2-.2-.3 0-.7.3-.9.3-.2.7-.1.9.2.2.3 0 .7-.3.9zm2.5-1.3c-.3.2-.7 0-.9-.3-.2-.3 0-.7.3-.9.3-.2.7 0 .9.3.2.3 0 .8-.3.9zm2.6-1.1c-.3.1-.7-.1-.9-.4-.2-.3.1-.7.4-.9.3-.2.7.1.9.4.2.3-.1.8-.4.9zm2.7-.8c-.4.1-.7-.1-.8-.5-.1-.4.1-.7.5-.8.4-.1.7.1.8.5 0 .3-.2.7-.5.8zm2.7-.6c-.4.1-.7-.2-.8-.5-.1-.4.2-.7.5-.8.4-.1.7.2.8.5.1.3-.2.7-.5.8zm2.8-.4c-.4 0-.7-.2-.7-.6 0-.4.2-.7.6-.7.4 0 .7.2.7.6 0 .4-.3.7-.6.7zm2.8 2.7c-.3 0-.6-.3-.6-.6s.3-.6.6-.6.6.3.6.6-.3.6-.6.6zm2.5.2c-.3 0-.6-.3-.5-.7 0-.3.3-.6.7-.5.4.1.6.3.5.7-.1.2-.4.5-.7.5zm2.5.3c-.3-.1-.5-.4-.5-.7 0-.3.4-.5.7-.5.3 0 .5.4.5.7 0 .3-.4.5-.7.5zm2.5.5c-.3-.1-.5-.4-.4-.7.1-.3.4-.5.7-.4.3.1.5.4.4.7-.1.3-.4.5-.7.4zm2.4.8c-.3-.1-.5-.5-.4-.8.1-.3.5-.5.8-.4.3.1.5.5.4.8-.1.3-.5.5-.8.4zm2.4 1c-.3-.1-.4-.5-.3-.8.1-.3.5-.4.8-.3.3.1.4.5.3.8-.2.3-.5.5-.8.3zm2.2 1.2c-.3-.2-.4-.5-.2-.8.2-.3.5-.4.8-.2.3.2.4.5.2.8-.1.3-.5.4-.8.2zm2.1 1.4c-.3-.2-.3-.6-.1-.8.2-.2.6-.3.8-.1.3.2.3.6.1.8-.2.2-.5.3-.8.1zm2 1.5c-.3-.2-.3-.6-.1-.9.2-.3.6-.3.9-.1.3.2.3.6.1.9-.2.3-.6.4-.9.1zm1.9 1.8c-.2-.2-.2-.6 0-.9.2-.3.6-.2.9 0 .3.2.2.6 0 .9-.2.3-.7.2-.9 0zm1.7 1.9c-.2-.3-.2-.6.1-.8.3-.2.6-.2.8.1.2.3.2.6-.1.8-.3.2-.6.1-.8-.1zm1.5 2c-.2-.3-.1-.7.2-.8.3-.1.7-.1.8.2.1.3.1.7-.2.8-.3.1-.6.1-.8-.2zm1.4 2.2c-.2-.3-.1-.7.2-.8.3-.2.7-.1.8.2.1.3.1.7-.2.8-.3.1-.7.1-.8-.2zm1.1 2.3c-.1-.3 0-.7.3-.8.3-.1.7 0 .8.3.1.3 0 .7-.3.8-.3.1-.7 0-.8-.3zm.9 2.3c-.1-.3.1-.7.4-.8.3-.1.7.1.8.4.1.3-.1.7-.4.8-.3.1-.7-.1-.8-.4zm.8 2.5c-.1-.3.1-.7.4-.7.3 0 .7.1.7.4 0 .3-.1.7-.4.7-.3 0-.7-.1-.7-.4zm.5 2.5c-.1-.3.2-.6.5-.7.3-.1.6.2.7.5.1.3-.2.6-.5.7-.3.1-.7-.2-.7-.5zm.2 2.5c0-.3.2-.6.6-.6.4 0 .6.2.6.6 0 .3-.2.6-.6.6-.4 0-.5-.3-.6-.6zm.1 2.5c0-.3.3-.6.6-.6s.6.3.6.6-.3.6-.6.6-.6-.2-.6-.6zm-.2 2.6c0-.3.3-.6.7-.5.3 0 .6.3.5.7 0 .3-.3.6-.7.5-.3-.1-.5-.4-.5-.7zm-.4 2.5c.1-.3.4-.5.7-.5.3.1.5.4.5.7 0 .3-.4.5-.7.5-.3 0-.5-.4-.5-.7zm-.6 2.4c.1-.3.4-.5.7-.4.3.1.5.4.4.7-.1.3-.4.5-.7.4-.3-.1-.5-.3-.4-.7zm-.8 2.4c.1-.3.5-.5.8-.3.3.2.5.5.3.8-.2.3-.5.5-.8.3-.3-.2-.4-.4-.3-.8zm-1 2.4c.2-.3.5-.4.8-.3.3.2.4.5.3.8-.1.3-.5.4-.8.3-.4-.2-.5-.5-.3-.8zm-1.3 2.2c.2-.3.5-.4.8-.2.3.2.4.5.2.8-.2.3-.5.4-.8.2-.3-.2-.4-.5-.2-.8zM86 62.4c.2-.3.6-.3.8-.1.2.2.3.6.1.8-.2.2-.6.3-.8.1-.2-.2-.3-.5-.1-.8zm-1.6 2c.2-.2.6-.3.9 0 .3.3.3.6 0 .9-.3.3-.6.3-.9 0-.3-.3-.2-.7 0-.9zm-1.8 1.8c.2-.2.6-.2.9 0 .3.2.2.6 0 .9-.2.3-.6.2-.9 0-.3-.2-.2-.7 0-.9zm-1.9 1.6c.3-.2.6-.2.8.1.2.3.2.6-.1.8-.3.2-.6.2-.8-.1-.2-.3-.2-.6.1-.8zm-2.1 1.5c.3-.2.7-.1.8.2.1.3.1.7-.2.8-.3.1-.7.1-.8-.2-.1-.3-.1-.6.2-.8zm-2.2 1.3c.3-.2.7 0 .8.2.1.2 0 .7-.2.8-.2.1-.7 0-.8-.2-.1-.2-.1-.6.2-.8zm-2.3 1.1c.3-.1.7 0 .8.3.1.3 0 .7-.3.8-.3.1-.7 0-.8-.3-.2-.3 0-.7.3-.8zm-2.4.9c.3-.1.7.1.8.4.1.3-.1.7-.4.8-.3.1-.7-.1-.8-.4-.1-.3.1-.7.4-.8zm-2.4.6c.3-.1.6.1.7.5.1.4-.1.6-.5.7-.4.1-.6-.1-.7-.5-.1-.4.1-.6.5-.7zm-2.5.5c.3 0 .6.2.7.5 0 .3-.2.6-.5.7-.3 0-.6-.2-.7-.5-.1-.4.1-.7.5-.7zm-2.6.2c.3 0 .6.2.6.6 0 .4-.2.6-.6.6-.4 0-.6-.2-.6-.6 0-.4.3-.6.6-.6zm-2.5 0c.3 0 .6.3.6.6s-.3.6-.6.6-.6-.3-.6-.6c0-.4.3-.6.6-.6zm-2.5-.2c.3 0 .6.4.5.7-.1.3-.4.6-.7.5-.3-.1-.6-.4-.5-.7.1-.3.3-.6.7-.5zm-2.6-.5c.3.1.5.4.5.7 0 .3-.4.5-.7.5-.3 0-.5-.4-.5-.7 0-.3.4-.5.7-.5zm-2.4-.6c.3.1.5.4.4.8-.1.3-.4.5-.8.4-.3-.1-.5-.4-.4-.8.1-.4.5-.5.8-.4zm-2.4-.9c.3.1.4.5.3.8-.1.3-.5.4-.8.3-.3-.1-.4-.5-.3-.8.1-.3.5-.4.8-.3zm-2.3-1.1c.3.2.4.5.2.8-.2.3-.5.4-.8.2-.3-.2-.4-.5-.2-.8.2-.3.5-.4.8-.2zm-2.2-1.3c.3.2.4.6.2.8-.2.2-.6.4-.8.2-.2-.2-.4-.6-.2-.8.2-.2.5-.4.8-.2zm-2.1-1.5c.3.2.3.6.1.8-.2.2-.6.3-.8.1-.2-.2-.3-.6-.1-.8.2-.2.6-.3.8-.1zm-1.9-1.6c.2.2.3.6 0 .9-.3.3-.6.3-.9 0-.3-.3-.3-.6 0-.9.3-.3.7-.2.9 0zm-1.8-1.8c.2.2.2.6 0 .9-.2.3-.6.2-.9 0-.2-.2-.2-.6 0-.9.2-.3.7-.3.9 0zm-1.6-2c.2.3.1.6-.1.8-.2.2-.6.1-.8-.1-.2-.2-.1-.6.1-.8.2-.2.6-.2.8.1zm-1.4-2.1c.2.3.1.7-.2.8-.3.1-.7.1-.8-.2-.2-.3-.1-.7.2-.8.3-.1.6-.1.8.2zm-1.3-2.2c.2.3 0 .7-.3.8-.3.2-.7 0-.8-.3-.1-.3 0-.7.3-.8.3-.1.7 0 .8.3zm-1-2.4c.1.3 0 .7-.3.8-.3.1-.7 0-.8-.3-.1-.3 0-.7.3-.8.3-.1.7 0 .8.3zm-.8-2.4c.1.3-.1.7-.4.7-.3 0-.7-.1-.7-.4 0-.3.1-.7.4-.7.3 0 .6.1.7.4zm-.6-2.4c.1.3-.1.6-.5.7-.4.1-.6-.1-.7-.5-.1-.4.1-.6.5-.7.3-.1.6.2.7.5zm-.4-2.5c0 .3-.2.6-.5.7-.3.1-.6-.2-.7-.5 0-.3.2-.6.5-.7.3-.1.6.1.7.5zm-.2-2.6c0 .3-.3.6-.6.6s-.6-.2-.6-.6c0-.4.3-.6.6-.6s.6.3.6.6zm.1-2.5c0 .3-.3.6-.6.6s-.6-.3-.6-.6.3-.6.6-.6.6.3.6.6zm.2-2.5c-.1.3-.4.6-.7.5-.3-.1-.6-.4-.5-.7.1-.3.4-.6.7-.5.3.1.6.3.5.7zm.5-2.5c-.1.3-.4.5-.7.4-.3-.1-.5-.4-.4-.7.1-.3.4-.5.7-.4.3.1.5.3.4.7zm.8-2.5c-.1.3-.5.5-.8.4-.3-.1-.5-.5-.4-.8.1-.3.5-.5.8-.4.3.1.5.5.4.8zm.9-2.3c-.1.3-.5.4-.8.3-.3-.1-.4-.5-.3-.8.1-.3.5-.4.8-.3.3.1.4.5.3.8zm1.1-2.3c-.2.3-.5.4-.8.2-.3-.2-.4-.5-.2-.8.2-.3.5-.4.8-.2.3.2.4.5.2.8zm1.4-2.2c-.2.3-.6.3-.8.2-.2-.1-.3-.6-.2-.8.1-.2.6-.3.8-.2.2.1.4.5.2.8zm1.5-2c-.2.3-.6.3-.8.1-.2-.2-.3-.6-.1-.8.2-.2.6-.3.8-.1.2.2.3.5.1.8zm1.7-1.9c-.2.2-.6.2-.9 0-.3-.2-.2-.6 0-.9.2-.3.6-.2.9 0 .3.2.2.6 0 .9zm1.9-1.8c-.3.2-.6.2-.9-.1-.2-.3-.2-.6.1-.9.3-.2.6-.2.9.1.1.3.1.7-.1.9zm2-1.5c-.3.2-.6.1-.8-.1-.2-.3-.1-.6.1-.8.3-.2.6-.1.8.1.2.2.1.6-.1.8zm2.1-1.4c-.3.2-.7.1-.8-.2-.1-.3-.1-.7.2-.8.3-.1.7-.1.8.2.1.3.1.6-.2.8zm2.2-1.2c-.3.1-.7 0-.8-.3-.1-.3 0-.7.3-.8.3-.1.7 0 .8.3.1.3 0 .7-.3.8zm2.4-1c-.3.1-.7 0-.8-.4-.1-.3 0-.7.4-.8.3-.1.7 0 .8.4.1.4-.1.7-.4.8zm2.4-.8c-.3.1-.7-.1-.7-.4-.1-.3.1-.7.4-.7.3-.1.7.1.7.4.1.3-.1.7-.4.7zm2.5-.5c-.3.1-.6-.2-.7-.5-.1-.3.2-.6.5-.7.3-.1.6.2.7.5 0 .3-.2.6-.5.7zm2.5-.3c-.3 0-.6-.2-.7-.5-.1-.3.2-.6.5-.7.3-.1.6.2.7.5.1.3-.2.6-.5.7zm2.6 2.7c-.3 0-.5-.2-.5-.5s.2-.5.5-.5.5.2.5.5-.2.5-.5.5zm2.2.1c-.3 0-.5-.3-.5-.6s.3-.5.6-.5.5.3.5.6-.3.5-.6.5zm2.3.3c-.3-.1-.5-.3-.4-.6.1-.3.3-.5.6-.4.3.1.5.3.4.6-.1.3-.3.5-.6.4zm2.2.5c-.3-.1-.5-.4-.4-.7.1-.3.4-.5.7-.4.3.1.5.4.4.7-.1.3-.4.5-.7.4zm2.2.7c-.3-.1-.4-.4-.3-.7.1-.3.4-.4.7-.3.3.1.4.4.3.7-.1.3-.4.4-.7.3zm2.1.9c-.3-.1-.4-.4-.3-.7.1-.3.4-.4.7-.3.3.1.4.4.3.7-.1.3-.4.4-.7.3zm2.1 1.1c-.3-.1-.3-.5-.2-.7.1-.3.5-.3.7-.2.3.1.3.5.2.7-.2.2-.5.3-.7.2zm1.9 1.2c-.2-.2-.3-.5-.1-.8.2-.3.5-.3.8-.1.3.2.3.5.1.8-.2.3-.6.3-.8.1zm1.8 1.4c-.2-.2-.3-.5-.1-.8.2-.2.5-.3.8-.1.3.2.3.5.1.8-.2.3-.6.3-.8.1zm1.6 1.6c-.2-.2-.2-.6 0-.8.2-.2.6-.2.8 0 .2.2.2.6 0 .8-.2.2-.5.2-.8 0zm1.6 1.7c-.2-.2-.2-.6.1-.8.2-.2.6-.2.8.1.2.3.2.6-.1.8-.3.2-.6.1-.8-.1zm1.3 1.8c-.2-.2-.1-.6.1-.8.2-.2.6-.1.8.1.2.2.1.6-.1.8-.2.2-.6.2-.8-.1zm1.2 2c-.1-.3-.1-.6.2-.7.3-.1.6-.1.7.2.1.3.1.6-.2.7-.3.1-.5 0-.7-.2zm1.1 2c-.1-.3 0-.6.3-.7.3-.1.6 0 .7.3.1.3 0 .6-.3.7-.3.1-.6 0-.7-.3zm.8 2.2c-.1-.3.1-.6.3-.7.3-.1.6.1.7.3.1.2-.1.6-.3.7-.3.1-.6-.1-.7-.3zm.7 2.2c-.1-.3.1-.6.4-.7.3-.1.6.1.7.4.1.3-.1.6-.4.7-.4 0-.7-.2-.7-.4zm.4 2.2c0-.3.2-.6.5-.6s.6.2.6.5-.2.6-.5.6-.5-.2-.6-.5zm.3 2.3c0-.3.2-.6.5-.6s.6.2.6.5-.2.6-.5.6c-.4 0-.6-.2-.6-.5zm0 2.3c0-.3.3-.5.6-.5s.5.3.5.6-.3.5-.6.5c-.3-.1-.5-.3-.5-.6zm-.1 2.2c0-.3.3-.5.6-.5s.5.3.5.6-.3.5-.6.5-.6-.3-.5-.6zm-.4 2.3c.1-.3.3-.5.6-.4.3.1.5.3.4.6-.1.3-.3.5-.6.4-.3-.1-.4-.3-.4-.6zm-.5 2.2c.1-.3.4-.5.7-.4.3.1.5.4.4.7-.1.3-.4.5-.7.4-.3-.1-.5-.4-.4-.7zm-.8 2.2c.1-.3.4-.4.7-.3.3.1.4.4.3.7-.1.3-.4.4-.7.3-.3-.1-.4-.4-.3-.7zm-.9 2.1c.1-.3.5-.4.7-.2.3.1.4.5.2.7-.1.3-.5.4-.7.2-.3-.1-.4-.5-.2-.7zm-1.1 2c.2-.3.5-.3.7-.2.3.2.3.5.2.7-.2.3-.5.3-.7.2-.3-.1-.4-.5-.2-.7zm-1.3 1.9c.2-.2.5-.3.8-.1.3.2.3.5.1.8-.2.3-.5.3-.8.1-.3-.2-.3-.6-.1-.8zm-1.5 1.7c.2-.2.5-.2.8 0 .3.2.2.5 0 .8-.2.3-.5.2-.8 0-.3-.2-.2-.5 0-.8zm-1.6 1.7c.2-.2.6-.2.8 0 .2.2.2.6 0 .8-.2.2-.6.2-.8 0-.2-.2-.2-.6 0-.8zm-1.7 1.5c.2-.2.6-.1.8.1.2.2.1.6-.1.8-.2.2-.6.1-.8-.1-.2-.3-.1-.7.1-.8zM77 66.9c.3-.2.6-.1.8.2.2.3.1.6-.2.8-.3.2-.6.1-.8-.2-.1-.3 0-.6.2-.8zm-2 1.2c.3-.1.6 0 .7.2.1.2 0 .6-.2.7-.2.1-.6 0-.7-.2-.1-.2 0-.6.2-.7zm-2 .9c.3-.1.6 0 .7.3.1.3 0 .6-.3.7-.3.1-.6 0-.7-.3-.1-.2 0-.5.3-.7zm-2.2.8c.3-.1.6.1.7.3.1.3-.1.6-.3.7-.3.1-.6-.1-.7-.3-.1-.3 0-.6.3-.7zm-2.2.6c.3-.1.6.1.7.4.1.3-.1.6-.4.7-.3.1-.6-.1-.7-.4 0-.3.1-.6.4-.7zm-2.2.4c.3 0 .6.2.6.5s-.2.6-.5.6-.6-.2-.6-.5.2-.5.5-.6zm-2.3.2c.3 0 .6.2.6.5s-.2.6-.5.6-.6-.2-.6-.5.2-.6.5-.6zm-2.3 0c.3 0 .5.3.5.6s-.3.5-.6.5-.5-.3-.5-.6.3-.5.6-.5zm-2.3-.2c.3 0 .5.3.5.6s-.3.5-.6.5-.5-.3-.5-.6.3-.5.6-.5zm-2.2-.4c.3.1.5.4.4.7-.1.3-.4.5-.7.4-.3-.1-.5-.4-.4-.7.1-.3.4-.4.7-.4zm-2.2-.6c.3.1.4.4.3.7-.1.3-.4.4-.7.3-.3-.1-.4-.4-.3-.7.1-.2.4-.4.7-.3zm-2.2-.8c.3.1.4.4.3.7-.1.3-.4.4-.7.3-.3-.1-.4-.4-.3-.7.1-.3.4-.4.7-.3zm-2-.9c.3.1.4.5.2.7-.2.2-.5.4-.7.2-.2-.2-.4-.5-.2-.7.2-.2.4-.4.7-.2zm-2-1.2c.3.2.3.5.2.8-.2.3-.5.3-.8.2-.3-.1-.3-.5-.2-.8.1-.3.5-.4.8-.2zM47 65.6c.2.2.3.5.1.8-.2.3-.5.3-.8.1-.2-.2-.3-.5-.1-.8.2-.3.6-.3.8-.1zm-1.7-1.5c.2.2.2.5 0 .8-.2.3-.5.2-.8 0-.2-.2-.2-.5 0-.8.2-.3.6-.2.8 0zm-1.6-1.7c.2.2.2.6 0 .8-.2.2-.6.2-.8 0-.2-.2-.2-.6 0-.8.2-.2.6-.2.8 0zm-1.5-1.7c.2.2.1.6-.1.8-.2.2-.6.1-.8-.1-.2-.2-.1-.6.1-.8.2-.2.6-.2.8.1zm-1.3-1.9c.2.3.1.6-.2.7-.3.2-.6.1-.7-.2-.1-.3-.1-.6.2-.7.2-.2.6-.1.7.2zm-1.1-2c.1.3 0 .6-.2.7-.2.1-.6 0-.7-.2-.1-.2 0-.6.2-.7.2-.1.6-.1.7.2zm-.9-2.1c.1.3 0 .6-.3.7-.3.1-.6 0-.7-.3-.1-.3 0-.6.3-.7.3-.1.6 0 .7.3zm-.8-2.2c.1.3-.1.6-.4.7-.3.1-.6-.1-.7-.4-.1-.3.1-.6.4-.7.3-.1.7.1.7.4zm-.5-2.2c.1.3-.1.6-.4.6-.3 0-.6-.1-.6-.4 0-.3.1-.6.4-.6.3 0 .5.1.6.4zm-.4-2.3c0 .3-.2.6-.5.6s-.6-.2-.6-.5.2-.6.5-.6.6.2.6.5zm-.1-2.2c0 .3-.2.5-.5.6-.3 0-.5-.2-.6-.5 0-.3.2-.5.5-.6.3-.1.6.2.6.5zm0-2.3c0 .3-.3.5-.6.5s-.5-.3-.5-.6.3-.5.6-.5.6.3.5.6zm.3-2.3c0 .3-.3.5-.6.5s-.5-.3-.5-.6.3-.5.6-.5.5.3.5.6zm.4-2.2c-.1.3-.4.5-.7.4-.3-.1-.5-.4-.4-.7.1-.3.4-.5.7-.4.3.1.5.4.4.7zm.7-2.2c-.1.3-.4.4-.7.3-.3-.1-.4-.4-.3-.7.1-.3.4-.4.7-.3.2.1.4.4.3.7zm.8-2.2c-.1.3-.4.4-.7.3-.3-.1-.4-.4-.3-.7.1-.3.4-.4.7-.3.3.1.5.5.3.7zm1.1-2c-.1.3-.5.4-.7.2-.2-.2-.4-.5-.2-.7.1-.3.5-.4.7-.2.2.2.3.4.2.7zm1.2-2c-.2.2-.5.3-.8.1-.3-.2-.3-.5-.1-.8.2-.3.5-.3.8-.1.3.2.2.6.1.8zm1.3-1.8c-.2.2-.5.3-.8.1-.2-.2-.3-.5-.1-.8.2-.2.5-.3.8-.1.3.2.3.6.1.8zm1.6-1.7c-.2.2-.6.2-.8 0-.2-.2-.2-.6 0-.8.2-.2.6-.2.8 0 .2.2.2.6 0 .8zm1.6-1.6c-.2.2-.6.2-.8-.1-.2-.2-.2-.6.1-.8.2-.2.6-.2.8.1.2.3.2.6-.1.8zm1.8-1.4c-.2.2-.6.1-.8-.1-.2-.2-.1-.6.1-.8.2-.2.6-.1.8.1.2.2.2.7-.1.8zm1.9-1.2c-.3.1-.6.1-.7-.2-.1-.3-.1-.6.2-.7.3-.1.6-.1.7.2.2.2.1.5-.2.7zm2.1-1.1c-.3.1-.6 0-.7-.3-.1-.3 0-.6.3-.7.3-.1.6 0 .7.3.1.3-.1.6-.3.7zm2.1-.9c-.3.1-.6 0-.7-.3-.1-.3 0-.6.3-.7.3-.1.6 0 .7.3.1.3 0 .6-.3.7zm2.2-.7c-.3.1-.6-.1-.7-.4-.1-.3.1-.6.4-.7.3-.1.6.1.7.4.1.3-.1.6-.4.7zm2.2-.5c-.3.1-.6-.1-.6-.4-.1-.3.1-.6.4-.6.3-.1.6.1.6.4 0 .3-.1.6-.4.6zm2.3-.3c-.3 0-.6-.2-.6-.5s.2-.6.5-.6.6.2.6.5-.2.6-.5.6zm2.3 2.8c-.3 0-.5-.2-.5-.5s.2-.5.5-.5.5.2.5.5-.3.5-.5.5zm2 .1c-.3 0-.5-.3-.4-.5.1-.2.3-.5.5-.4.3 0 .5.3.4.5-.1.2-.3.4-.5.4zm2 .3c-.3 0-.4-.3-.4-.6s.3-.4.6-.4.4.3.4.6c-.1.2-.3.4-.6.4zm2 .4c-.3-.1-.4-.3-.3-.6.1-.3.3-.4.6-.3.3.1.4.3.3.6-.1.2-.4.4-.6.3zm1.9.6c-.3-.1-.4-.4-.3-.6.1-.2.4-.4.6-.3.2.1.4.4.3.6-.1.2-.3.4-.6.3zm1.9.8c-.2-.1-.3-.4-.2-.6.1-.2.4-.3.6-.2.2.1.3.4.2.6-.1.2-.4.3-.6.2zm1.8 1c-.2-.1-.3-.4-.2-.7.1-.3.4-.3.7-.2.3.1.3.4.2.7-.1.3-.5.3-.7.2zm1.7 1.1c-.2-.2-.3-.5-.1-.7.2-.2.5-.3.7-.1.2.2.3.5.1.7-.2.2-.5.2-.7.1zm1.6 1.2c-.2-.2-.2-.5 0-.7.2-.2.5-.2.7 0 .2.2.2.5 0 .7-.2.2-.5.2-.7 0zm1.5 1.4c-.2-.2-.2-.5 0-.7.2-.2.5-.2.7 0 .2.2.2.5 0 .7-.2.2-.5.2-.7 0zm1.3 1.5c-.2-.2-.1-.5.1-.7.2-.2.5-.1.7.1.2.2.1.5-.1.7-.2.2-.5.1-.7-.1zm1.3 1.7c-.1-.2-.1-.5.1-.7.2-.2.5-.1.7.1.1.2.1.5-.1.7-.2.2-.6.1-.7-.1zm1 1.7c-.1-.2 0-.5.2-.7.2-.1.5 0 .7.2.1.2 0 .5-.2.7-.3.1-.5 0-.7-.2zm.9 1.8c-.1-.2 0-.5.2-.6.2-.1.5 0 .6.2.1.2 0 .5-.2.6-.2.2-.5 0-.6-.2zm.8 1.9c-.1-.3 0-.5.3-.6.3-.1.5 0 .6.3.1.3 0 .5-.3.6-.3.1-.5-.1-.6-.3zm.6 1.9c-.1-.3.1-.5.4-.6.3-.1.5.1.6.4.1.3-.1.5-.4.6-.3.1-.6-.1-.6-.4zm.4 2c0-.3.1-.5.4-.6.3 0 .5.1.6.4 0 .3-.1.5-.4.6-.3.1-.6-.1-.6-.4zm.2 2.1c0-.3.2-.5.4-.5s.5.2.5.4-.2.5-.4.5-.5-.2-.5-.4zm0 2c0-.3.2-.5.5-.5s.5.2.5.5-.2.5-.5.5-.5-.2-.5-.5zm-.1 2c0-.3.3-.5.5-.4.2.1.5.3.4.5-.1.2-.3.5-.5.4-.2-.1-.4-.2-.4-.5zm-.3 2c.1-.3.3-.4.6-.4.3.1.4.3.4.6-.1.3-.3.4-.6.4s-.5-.3-.4-.6zm-.5 2c.1-.3.3-.4.6-.3.3.1.4.3.3.6-.1.3-.3.4-.6.3-.3-.1-.4-.3-.3-.6zm-.7 1.9c.1-.2.4-.4.6-.3.2.1.4.4.3.6-.1.2-.4.4-.6.3-.2 0-.4-.3-.3-.6zm-.8 1.9c.1-.2.4-.3.6-.2.2.1.3.4.2.6-.1.2-.4.3-.6.2-.2-.1-.3-.4-.2-.6zm-1 1.8c.1-.2.4-.3.7-.2.3.1.3.4.2.7-.1.3-.4.3-.7.2-.3-.1-.3-.5-.2-.7zm-1.1 1.6c.2-.2.5-.3.7-.1.2.2.3.5.1.7-.2.2-.5.3-.7.1-.2-.1-.3-.4-.1-.7zm-1.3 1.6c.2-.2.5-.2.7 0 .2.2.2.5 0 .7-.2.2-.5.2-.7 0-.2-.2-.2-.5 0-.7zM78.7 62c.2-.2.5-.2.7 0 .2.2.2.5 0 .7-.2.2-.5.2-.7 0-.2-.2-.2-.5 0-.7zm-1.6 1.3c.2-.2.5-.1.7.1.2.2.1.5-.1.7-.2.2-.5.1-.7-.1-.2-.2-.1-.5.1-.7zm-1.6 1.2c.2-.1.5-.1.7.1.2.2.1.5-.1.7-.2.2-.5.1-.7-.1-.2-.2-.2-.6.1-.7zm-1.8 1c.2-.1.5 0 .7.2.2.2 0 .5-.2.7-.2.2-.5 0-.7-.2-.2-.2 0-.6.2-.7zm-1.8.9c.2-.1.5 0 .6.3.1.3 0 .5-.3.6-.3.1-.5 0-.6-.3-.1-.3 0-.5.3-.6zm-1.9.7c.3-.1.5.1.6.3.1.3-.1.5-.3.6-.3.1-.5-.1-.6-.3-.1-.3 0-.5.3-.6zm-2 .5c.3-.1.5.1.6.4.1.3-.1.5-.4.6-.3.1-.5-.1-.6-.4 0-.3.1-.5.4-.6zm-2 .4c.3 0 .5.1.5.4 0 .3-.1.5-.4.5-.3 0-.5-.1-.5-.4 0-.3.1-.5.4-.5zm-2 .2c.3 0 .5.2.5.5s-.2.5-.5.5-.5-.2-.5-.5.2-.5.5-.5zm-2.1 0c.3 0 .5.2.5.5s-.2.5-.5.5-.5-.2-.5-.5.3-.6.5-.5zm-2-.2c.3 0 .4.3.4.5s-.3.5-.5.4c-.2-.1-.4-.3-.4-.5s.2-.5.5-.4zm-2-.4c.3.1.4.3.4.6-.1.3-.3.4-.6.4s-.4-.3-.4-.6.3-.4.6-.4zm-2-.5c.3.1.4.4.3.6-.1.2-.4.4-.6.3-.2-.1-.4-.4-.3-.6.1-.2.4-.4.6-.3zm-1.9-.7c.2.1.4.4.3.6-.1.2-.4.4-.6.3-.2-.1-.4-.4-.3-.6.1-.2.4-.4.6-.3zm-1.8-.9c.2.1.3.4.2.7-.1.3-.4.3-.7.2-.2-.1-.3-.4-.2-.7.1-.3.5-.3.7-.2zm-1.8-1c.2.1.3.4.1.7-.2.3-.4.3-.7.1-.3-.2-.3-.4-.1-.7.2-.2.5-.3.7-.1zm-1.6-1.2c.2.2.2.5.1.7-.1.2-.5.2-.7.1-.2-.1-.2-.5-.1-.7.1-.2.5-.3.7-.1zM47.2 62c.2.2.2.5 0 .7-.2.2-.5.2-.7 0-.2-.2-.2-.5 0-.7.2-.2.5-.2.7 0zm-1.4-1.5c.2.2.2.5 0 .7-.2.2-.5.2-.7 0-.2-.2-.2-.5 0-.7.2-.2.5-.2.7 0zm-1.3-1.6c.2.2.1.5-.1.7-.2.2-.5.1-.7-.1-.2-.2-.1-.5.1-.7.3-.1.6-.1.7.1zm-1.1-1.6c.1.2.1.5-.2.7-.3.2-.5.1-.7-.2-.2-.3-.1-.5.2-.7.2-.1.5-.1.7.2zm-1-1.8c.1.2 0 .5-.2.6-.2.1-.5 0-.6-.2-.1-.2 0-.5.2-.6.2-.1.5-.1.6.2zm-.8-1.9c.1.2 0 .5-.3.6-.3.1-.5 0-.6-.3-.1-.3 0-.5.3-.6.3-.1.5.1.6.3zm-.7-1.9c.1.3-.1.5-.3.6-.2.1-.5-.1-.6-.3-.1-.2.1-.5.3-.6.2-.1.5.1.6.3zm-.5-2c.1.3-.1.5-.4.6-.3.1-.5-.1-.6-.4-.1-.3.1-.5.4-.6.3 0 .6.2.6.4zm-.3-2c0 .3-.2.5-.4.5-.3 0-.5-.2-.5-.4 0-.3.2-.5.4-.5s.5.2.5.4zm-.1-2c0 .3-.2.5-.5.5s-.5-.2-.5-.5.2-.5.5-.5c.2 0 .5.2.5.5zm0-2c0 .3-.2.5-.5.4-.3 0-.5-.2-.4-.5.1-.3.2-.5.5-.4.2 0 .4.2.4.5zm.2-2.1c0 .3-.3.4-.6.4s-.4-.3-.4-.6.3-.4.6-.4c.3.1.5.4.4.6zm.4-2c-.1.3-.3.4-.6.4s-.4-.3-.4-.6.3-.4.6-.4.5.4.4.6zm.6-1.9c-.1.3-.4.4-.6.3-.2-.1-.4-.4-.3-.6.1-.2.4-.4.6-.3.2.1.4.3.3.6zm.8-1.9c-.1.2-.4.4-.6.2-.2-.1-.4-.4-.2-.6.1-.2.4-.4.6-.2.2.1.3.4.2.6zm.9-1.8c-.1.2-.4.3-.7.2-.3-.1-.3-.4-.2-.7.1-.3.4-.3.7-.2.3.1.3.5.2.7zm1-1.7c-.1.2-.4.3-.7.1-.2-.1-.3-.4-.1-.7.1-.2.4-.3.7-.1.2.1.3.4.1.7zm1.3-1.7c-.2.2-.5.2-.7.1-.2-.1-.2-.5-.1-.7.1-.2.5-.2.7-.1.2.1.2.5.1.7zm1.3-1.5c-.2.2-.5.2-.7 0-.2-.2-.2-.5 0-.7.2-.2.5-.2.7 0 .2.2.2.5 0 .7zm1.5-1.4c-.2.2-.5.2-.7 0-.2-.2-.2-.5 0-.7.2-.2.5-.2.7 0 .2.2.2.5 0 .7zm1.6-1.2c-.2.2-.5.1-.7-.1-.2-.2-.1-.5.1-.7.2-.2.5-.1.7.1.2.2.1.5-.1.7zm1.7-1.1c-.2.1-.5.1-.7-.2-.2-.3-.1-.5.2-.7.2-.1.5-.1.7.2.2.3 0 .5-.2.7zm1.8-1c-.2.1-.5 0-.6-.2-.1-.2 0-.5.2-.6.2-.1.5 0 .6.2.1.2 0 .5-.2.6zm1.9-.8c-.3.1-.5 0-.6-.3-.1-.3 0-.5.3-.6.3-.1.5 0 .6.3.1.3-.1.5-.3.6zm1.9-.6c-.3.1-.5-.1-.6-.3-.1-.3.1-.5.3-.6.2-.1.5.1.6.3.1.2 0 .5-.3.6zm2-.4c-.3 0-.5-.1-.6-.4-.1-.3.1-.5.4-.6.3 0 .5.1.6.4.1.3-.1.5-.4.6zm2-.3c-.3 0-.5-.2-.5-.4s.2-.5.4-.5c.3 0 .5.2.5.4s-.1.5-.4.5zm2.1 2.3c-.2 0-.4-.2-.4-.4s.2-.4.4-.4.4.2.4.4-.2.4-.4.4zm1.8.1c-.2 0-.4-.2-.4-.5s.2-.4.5-.4.4.2.4.5-.3.4-.5.4zm1.8.2c-.2 0-.4-.3-.4-.5s.3-.4.5-.4.4.3.4.5-.3.5-.5.4zm1.8.4c-.3 0-.4-.3-.4-.5.1-.2.3-.4.5-.3.2.1.4.3.3.5 0 .2-.2.4-.4.3zm1.7.6c-.2-.1-.3-.3-.3-.6s.3-.3.6-.3.3.3.3.6-.4.4-.6.3zm1.7.7c-.2-.1-.3-.4-.2-.6.1-.2.4-.3.6-.2.2.1.3.4.2.6-.1.2-.4.3-.6.2zm1.6.8c-.2-.1-.3-.4-.2-.6.1-.2.4-.3.6-.2.2.1.3.4.2.6-.1.2-.4.4-.6.2zm1.5 1c-.2-.1-.2-.4-.1-.6.1-.2.4-.2.6-.1.2.1.2.4.1.6-.1.2-.4.3-.6.1zm1.4 1.1c-.2-.2-.2-.4 0-.6.2-.2.4-.2.6 0 .2.2.2.4 0 .6-.1.2-.4.2-.6 0zm1.4 1.3c-.2-.2-.2-.4 0-.6.2-.2.4-.2.6 0 .2.2.2.4 0 .6-.2.2-.5.2-.6 0zm1.2 1.3c-.2-.2-.1-.5.1-.6.2-.1.5-.1.6.1.1.2.1.5-.1.6-.2.1-.5.1-.6-.1zm1.1 1.5c-.1-.2-.1-.5.1-.6.2-.1.5-.1.6.1.1.2.1.5-.1.6-.2.1-.5.1-.6-.1zm.9 1.6c-.1-.2 0-.5.2-.6.2-.1.5 0 .6.2.1.2 0 .5-.2.6-.2.1-.5 0-.6-.2zm.8 1.6c-.1-.2 0-.5.2-.6.2-.1.5 0 .6.2.1.2 0 .5-.2.6-.2.1-.5 0-.6-.2zm.7 1.7c-.1-.2 0-.5.3-.5s.5 0 .5.3 0 .5-.3.5-.4-.1-.5-.3zm.5 1.7c-.1-.2.1-.5.3-.5.2 0 .5.1.5.3 0 .2-.1.5-.3.5-.2 0-.4 0-.5-.3zm.4 1.8c0-.2.1-.5.4-.5.3 0 .5.1.5.4 0 .3-.1.5-.4.5-.3 0-.5-.2-.5-.4zm.2 1.8c0-.2.2-.4.4-.5.2-.1.4.2.5.4.1.2-.2.4-.4.5-.2.1-.5-.1-.5-.4zm0 1.8c0-.2.2-.4.4-.4s.4.2.4.4-.2.4-.4.4-.4-.1-.4-.4zm-.1 1.9c0-.2.2-.4.5-.4s.4.2.4.5-.3.4-.5.3c-.2-.1-.4-.2-.4-.4zm-.3 1.8c0-.2.3-.4.5-.3.2.1.4.3.3.5-.1.2-.3.4-.5.3-.2-.1-.3-.3-.3-.5zm-.4 1.7c.1-.2.3-.4.5-.3.2.1.4.3.3.5-.1.2-.3.4-.5.3-.2 0-.4-.2-.3-.5zm-.6 1.7c.1-.2.3-.3.6-.2.2.1.3.3.2.6-.1.3-.3.3-.6.2-.3-.1-.3-.3-.2-.6zm-.7 1.7c.1-.2.4-.3.6-.2.2.1.3.4.2.6-.1.2-.4.3-.6.2-.3-.1-.3-.4-.2-.6zm-.9 1.6c.1-.2.4-.3.6-.1.2.2.3.4.1.6-.2.2-.4.3-.6.1-.2-.2-.3-.4-.1-.6zm-1.1 1.5c.1-.2.4-.2.6-.1.2.1.2.4.1.6-.1.2-.4.2-.6.1-.2-.1-.2-.4-.1-.6zm-1.1 1.4c.2-.2.4-.2.6 0 .2.2.2.4 0 .6-.2.2-.4.2-.6 0-.2-.2-.2-.4 0-.6zM77 60.2c.2-.2.4-.2.6 0 .2.2.2.4 0 .6-.2.2-.4.2-.6 0-.2-.1-.2-.4 0-.6zm-1.4 1.2c.2-.1.5-.1.6.1.1.2.1.5-.1.6-.2.1-.5.1-.6-.1-.1-.2-.1-.4.1-.6zm-1.4 1.1c.2-.1.5-.1.6.1.1.2.1.5-.1.6-.2.1-.5.1-.6-.1-.1-.2-.1-.5.1-.6zm-1.6.9c.2-.1.5 0 .6.2.1.2 0 .5-.2.6-.2.1-.5 0-.6-.2-.1-.2 0-.5.2-.6zm-1.7.8c.2-.1.5 0 .6.2.1.2 0 .5-.2.6-.2.1-.5 0-.6-.2-.1-.2 0-.5.2-.6zm-1.7.6c.2-.1.5.1.5.3 0 .2-.1.5-.3.5-.2.1-.5-.1-.5-.3 0-.2.1-.4.3-.5zm-1.7.5c.2-.1.5.1.5.3 0 .2-.1.5-.3.5-.2 0-.5-.1-.5-.3 0-.2 0-.5.3-.5zm-1.8.3c.2 0 .5.1.5.4 0 .3-.1.5-.4.5-.3 0-.5-.1-.5-.4 0-.3.1-.5.4-.5zm-1.8.2c.2 0 .4.2.5.4.1.2-.2.4-.4.5-.2.1-.4-.2-.5-.4-.1-.3.1-.5.4-.5zm-1.9 0c.2 0 .4.2.4.5s-.2.4-.5.4c-.2 0-.4-.2-.4-.5.1-.3.3-.5.5-.4zm-1.8-.2c.2 0 .4.3.4.5s-.3.4-.5.4-.4-.3-.4-.5.3-.4.5-.4zm-1.8-.3c.2.1.4.3.3.5-.1.2-.3.4-.5.3-.2-.1-.4-.3-.3-.5.1-.2.3-.4.5-.3zm-1.7-.5c.2.1.4.3.3.5-.1.2-.3.4-.5.3-.2-.1-.4-.3-.3-.5 0-.3.3-.4.5-.3zm-1.7-.6c.2.1.3.3.2.6-.1.3-.3.3-.6.2-.3-.1-.3-.3-.2-.6.1-.3.3-.3.6-.2zm-1.7-.8c.2.1.3.4.2.6-.1.2-.4.3-.6.2-.2-.1-.3-.4-.2-.6.1-.2.4-.3.6-.2zm-1.5-.9c.2.1.3.4.1.6-.2.2-.4.3-.6.1-.2-.1-.3-.4-.1-.6.2-.2.4-.3.6-.1zm-1.5-1.1c.2.1.2.4.1.6-.1.2-.4.2-.6.1-.2-.1-.2-.4-.1-.6.1-.2.4-.2.6-.1zm-1.4-1.2c.2.2.2.4 0 .6-.2.2-.4.2-.6 0-.2-.2-.2-.4 0-.6.2-.2.4-.1.6 0zm-1.3-1.3c.2.2.1.5 0 .6-.2.2-.5.1-.6 0-.1-.1-.1-.5 0-.6.2-.2.4-.2.6 0zm-1.1-1.4c.1.2.1.5-.1.6-.2.1-.5.1-.6-.1-.1-.2-.1-.5.1-.6.1-.1.4-.1.6.1zM45.4 56c.1.2.1.5-.1.6-.2.1-.5.1-.6-.1-.1-.2-.1-.5.1-.6.2-.1.5-.1.6.1zm-.9-1.6c.1.2 0 .5-.2.6-.2.1-.5 0-.6-.2-.1-.2 0-.5.2-.6.2-.1.5 0 .6.2zm-.7-1.7c.1.2 0 .5-.2.6-.2.1-.5 0-.6-.2-.1-.2 0-.5.2-.6.2-.1.5 0 .6.2zm-.6-1.7c.1.2-.1.5-.3.5-.2.1-.5-.1-.5-.3 0-.2.1-.5.3-.5.2 0 .4.1.5.3zm-.4-1.7c0 .2-.1.5-.3.5-.2 0-.5-.1-.5-.3 0-.2.1-.5.3-.5.2 0 .4 0 .5.3zm-.3-1.8c0 .2-.1.4-.4.5-.3.1-.4-.1-.5-.4-.1-.3.1-.4.4-.5.3-.1.5.1.5.4zm-.1-1.9c0 .2-.2.4-.4.4s-.4-.2-.4-.4.2-.4.4-.4.4.2.4.4zm0-1.8c0 .2-.2.4-.5.4-.2 0-.4-.2-.4-.5s.2-.4.5-.4.4.3.4.5zm.2-1.8c0 .2-.3.4-.5.4s-.4-.3-.4-.5.3-.4.5-.4.4.3.4.5zm.4-1.8c-.1.2-.3.4-.5.3-.2-.1-.4-.3-.3-.5.1-.2.3-.4.5-.3.2.1.3.3.3.5zm.5-1.7c-.1.2-.3.3-.5.3-.2-.1-.3-.3-.3-.5s.3-.3.5-.3.4.3.3.5zm.7-1.7c-.1.2-.4.3-.6.2-.2-.1-.3-.4-.2-.6.1-.2.4-.3.6-.2.2.1.3.4.2.6zm.8-1.6c-.1.2-.4.3-.6.2-.2-.1-.3-.4-.2-.6.1-.2.4-.3.6-.2.2.1.3.3.2.6zm.9-1.6c-.1.2-.4.2-.6.1-.2-.1-.2-.4-.1-.6.1-.2.4-.2.6-.1.2.1.3.4.1.6zm1.1-1.5c-.2.2-.4.2-.6.1-.2-.1-.2-.4-.1-.6.1-.2.4-.2.6-.1.2.2.3.5.1.6zm1.2-1.3c-.2.2-.4.2-.6 0-.2-.2-.2-.4 0-.6.2-.2.4-.2.6 0 .2.2.2.4 0 .6zm1.4-1.3c-.2.2-.5.1-.6 0-.2-.2-.1-.5 0-.6.1-.1.5-.1.6 0 .2.2.1.5 0 .6zm1.4-1.1c-.2.1-.5.1-.6-.1-.1-.2-.1-.5.1-.6.2-.1.5-.1.6.1.1.2.1.5-.1.6zm1.5-1c-.2.1-.5 0-.6-.2-.1-.2 0-.5.2-.6.2-.1.5 0 .6.2.1.2 0 .5-.2.6zm1.6-.8c-.2.1-.5 0-.6-.2-.1-.2 0-.5.2-.6.2-.1.5 0 .6.2.1.2 0 .5-.2.6zm1.7-.7c-.2.1-.5 0-.6-.3-.1-.3 0-.5.3-.6.3-.1.5 0 .6.3.1.3-.1.5-.3.6zm1.7-.6c-.2.1-.5-.1-.5-.3 0-.2.1-.5.3-.5.2 0 .5.1.5.3 0 .2 0 .5-.3.5zm1.8-.4c-.2 0-.5-.1-.5-.4 0-.2.1-.5.4-.5.3 0 .5.1.5.4 0 .3-.1.5-.4.5zm1.8-.2c-.2 0-.4-.2-.5-.4-.1-.2.2-.4.4-.5.2-.1.4.2.5.4.1.2-.1.5-.4.5z"/>
                <path fill="#052892" fill-rule="nonzero" stroke="#FFF" stroke-width="2.5" d="M81.3 45.2c0-3.5-1-7-3-9.9l7.2-7.2-5.4-5.4-7.2 7.2c-6-3.9-13.8-3.9-19.9 0l-7.2-7.2-5.4 5.4 7.2 7.2c-3.9 6-3.9 13.8 0 19.9l-7.2 7.2 5.4 5.4 7.2-7.2c6 3.9 13.8 3.9 19.9 0l7.2 7.2 5.4-5.4-7.2-7.2c1.9-3 3-6.5 3-10zm-29 0c0-4.4 2.6-8.3 6.7-9.9 4-1.6 8.7-.6 11.7 2.5s3.8 7.8 2 11.8l-7-7-5.4 5.4 7 7c-3.3 1.5-7.1 1.2-10.2-.8-3-2-4.8-5.4-4.8-9z"/>
            </g>
            <path fill="#052892" fill-rule="nonzero" d="M79.9 3.9c-.9 0-1.6-.7-1.6-1.6 0-.9.7-1.6 1.6-1.6.9 0 1.6.7 1.6 1.6 0 .9-.7 1.6-1.6 1.6zm6.7.3c-.9-.1-1.5-.9-1.5-1.7 0-.8.9-1.6 1.8-1.5.9.1 1.5.9 1.5 1.7 0 .8-.9 1.5-1.8 1.5zm6.7.9c-.9-.2-1.5-1-1.3-1.9.2-.9 1-1.5 1.9-1.3.9.2 1.5 1 1.3 1.9-.2.8-1 1.4-1.9 1.3zm6.6 1.4c-.9-.2-1.4-1.1-1.1-2 .3-.9 1.1-1.4 2-1.1.9.3 1.4 1.1 1.1 2-.3.9-1.1 1.4-2 1.1zm6.4 2.1c-.8-.3-1.3-1.2-1-2.1.3-.9 1.2-1.3 2.1-1 .8.3 1.3 1.2 1 2.1-.3.9-1.2 1.3-2.1 1zm6.3 2.6c-.8-.4-1.1-1.3-.8-2.1.3-.8 1.3-1.1 2.1-.8.8.3 1.1 1.3.8 2.1-.3.8-1.3 1.2-2.1.8zm5.9 3.2c-.8-.4-1-1.4-.6-2.2.4-.8 1.4-1 2.2-.6.8.4 1 1.4.6 2.2-.4.8-1.4 1-2.2.6zm5.7 3.6c-.7-.5-.9-1.5-.4-2.2.5-.7 1.5-.9 2.2-.4.7.5.9 1.5.4 2.2-.5.7-1.5 1-2.2.4zm5.3 4.2c-.7-.6-.7-1.6-.2-2.3.6-.7 1.6-.7 2.3-.2.7.5.7 1.6.2 2.3-.6.7-1.6.8-2.3.2zm4.9 4.6c-.6-.6-.6-1.6 0-2.3.6-.6 1.6-.6 2.3 0 .6.6.6 1.6 0 2.3-.7.7-1.7.6-2.3 0zm4.5 5c-.6-.7-.5-1.7.2-2.3.7-.6 1.7-.5 2.3.2.6.7.5 1.7-.2 2.3-.7.6-1.7.5-2.3-.2zm4.1 5.4c-.5-.7-.3-1.7.4-2.2.7-.5 1.7-.3 2.2.4.5.7.3 1.7-.4 2.2-.8.6-1.7.4-2.2-.4zm3.5 5.8c-.4-.8-.1-1.7.6-2.2.8-.4 1.7-.1 2.2.6.4.8.1 1.7-.6 2.2-.8.4-1.8.2-2.2-.6zm3 6c-.4-.8 0-1.8.8-2.1.8-.4 1.8 0 2.1.8.3.8 0 1.8-.8 2.1-.8.4-1.7 0-2.1-.8zm2.5 6.3c-.3-.8.2-1.7 1-2 .8-.3 1.7.2 2 1 .3.8-.2 1.7-1 2-.8.3-1.7-.2-2-1zm1.9 6.5c-.2-.9.3-1.7 1.2-1.9.9-.2 1.7.3 1.9 1.2.2.9-.3 1.7-1.2 1.9-.8.1-1.7-.4-1.9-1.2zm1.4 6.6c-.1-.9.5-1.7 1.3-1.8.8-.1 1.7.5 1.8 1.3.1.8-.5 1.7-1.3 1.8-.8.1-1.7-.5-1.8-1.3zm.7 6.7c-.1-.9.6-1.6 1.5-1.7.9-.1 1.6.6 1.7 1.5.1.9-.6 1.6-1.5 1.7-.9.1-1.6-.6-1.7-1.5zm.2 6.7c0-.9.7-1.6 1.6-1.6.9 0 1.6.7 1.6 1.6 0 .9-.7 1.6-1.6 1.6-.9 0-1.7-.7-1.6-1.6zm-.5 6.8c.1-.9.9-1.5 1.8-1.4.9.1 1.5.9 1.4 1.8-.1.9-.9 1.5-1.8 1.4-.9-.1-1.5-1-1.4-1.8zm-1 6.6c.2-.9 1-1.4 1.9-1.3.9.1 1.4 1 1.3 1.9-.1.9-1 1.4-1.9 1.3-.9-.1-1.5-1-1.3-1.9zm-1.7 6.6c.2-.8 1.1-1.3 2-1.1.9.2 1.3 1.1 1.1 2-.2.9-1.1 1.3-2 1.1-.9-.2-1.3-1.2-1.1-2zm-2.2 6.3c.3-.8 1.3-1.2 2.1-.9.8.3 1.2 1.3.9 2.1-.3.8-1.3 1.2-2.1.9-.8-.3-1.2-1.2-.9-2.1zm-2.7 6.2c.4-.8 1.4-1.1 2.2-.7.8.4 1.1 1.4.7 2.2-.4.8-1.4 1.1-2.2.7-.8-.4-1.1-1.4-.7-2.2zm-3.3 5.9c.5-.7 1.5-1 2.2-.5.7.5 1 1.5.5 2.2-.5.7-1.5 1-2.2.5-.7-.5-1-1.5-.5-2.2zm-3.8 5.6c.5-.7 1.5-.8 2.2-.3.7.5.8 1.5.3 2.2-.5.7-1.5.8-2.2.3-.7-.5-.8-1.5-.3-2.2zm-4.3 5.2c.6-.7 1.6-.7 2.3-.1.7.6.7 1.6.1 2.3-.6.7-1.6.7-2.3.1-.7-.6-.7-1.6-.1-2.3zm-4.7 4.8c.6-.6 1.7-.6 2.3.1.6.6.6 1.7-.1 2.3-.7.6-1.7.6-2.3-.1-.6-.7-.5-1.7.1-2.3zm-5.1 4.4c.7-.5 1.7-.4 2.2.3.5.7.4 1.7-.3 2.2-.7.5-1.7.4-2.2-.3-.5-.7-.4-1.6.3-2.2zm-5.5 3.9c.7-.5 1.7-.3 2.2.5.5.8.3 1.7-.5 2.2-.8.5-1.7.3-2.2-.5-.5-.8-.2-1.7.5-2.2zm-5.8 3.4c.8-.4 1.7-.1 2.2.7.4.8.1 1.7-.7 2.2-.8.4-1.7.1-2.2-.7-.5-.8-.1-1.7.7-2.2zm-6.1 2.9c.8-.3 1.8 0 2.1.8.3.8 0 1.8-.8 2.1-.8.3-1.8 0-2.1-.8-.3-.8 0-1.7.8-2.1zm-6.4 2.4c.8-.3 1.7.2 2 1 .3.8-.2 1.7-1 2-.8.3-1.7-.2-2-1-.3-.8.2-1.8 1-2zm-6.5 1.7c.9-.2 1.7.3 1.9 1.2.2.9-.3 1.7-1.2 1.9-.9.2-1.7-.3-1.9-1.2-.2-.8.4-1.7 1.2-1.9zm-6.6 1.2c.9-.1 1.7.5 1.8 1.4.1.9-.5 1.7-1.4 1.8-.9.1-1.7-.5-1.8-1.4-.1-.9.5-1.6 1.4-1.8zm-6.7.6c.9 0 1.6.6 1.7 1.5.1.9-.6 1.6-1.5 1.7-.9.1-1.6-.6-1.7-1.5-.1-.9.6-1.6 1.5-1.7zm-6.8 0c.9 0 1.6.8 1.5 1.7-.1.9-.8 1.6-1.7 1.5-.9-.1-1.6-.8-1.5-1.7.1-.9.9-1.5 1.7-1.5zm-6.7-.6c.9.1 1.5.9 1.4 1.8-.1.9-.9 1.5-1.8 1.4-.9-.1-1.5-.9-1.4-1.8.1-.9.9-1.5 1.8-1.4zm-6.6-1.2c.9.2 1.4 1.1 1.2 1.9-.2.8-1.1 1.4-1.9 1.2-.8-.2-1.4-1.1-1.2-1.9.2-.8 1-1.4 1.9-1.2zm-6.5-1.7c.8.3 1.3 1.2 1 2-.3.8-1.2 1.3-2 1-.8-.3-1.3-1.2-1-2 .3-.8 1.1-1.3 2-1zm-6.4-2.4c.8.3 1.2 1.3.8 2.1-.4.8-1.3 1.2-2.1.8-.8-.4-1.2-1.3-.8-2.1.4-.8 1.3-1.1 2.1-.8zm-6.1-2.9c.8.4 1.1 1.4.7 2.2-.4.8-1.4 1.1-2.2.7-.8-.4-1.1-1.4-.7-2.2.5-.8 1.5-1.1 2.2-.7zm-5.8-3.4c.7.5 1 1.5.5 2.2-.5.7-1.5 1-2.2.5-.7-.5-1-1.5-.5-2.2.5-.7 1.5-1 2.2-.5zm-5.5-3.9c.7.5.8 1.5.3 2.2-.5.7-1.5.8-2.2.3-.7-.5-.8-1.5-.3-2.2.5-.7 1.5-.8 2.2-.3zm-5.1-4.4c.6.6.7 1.6.1 2.3-.6.7-1.6.7-2.3.1-.6-.6-.7-1.6-.1-2.3.6-.7 1.6-.7 2.3-.1zm-4.7-4.8c.6.7.5 1.7-.1 2.3-.6.6-1.7.5-2.3-.1-.6-.6-.5-1.7.1-2.3.6-.6 1.7-.6 2.3.1zm-4.3-5.2c.5.7.4 1.7-.3 2.2-.7.5-1.7.4-2.2-.3-.5-.7-.4-1.7.3-2.2.7-.5 1.7-.4 2.2.3zm-3.8-5.6c.5.7.2 1.7-.5 2.2-.7.5-1.7.2-2.2-.5-.5-.7-.2-1.7.5-2.2.7-.5 1.7-.3 2.2.5zm-3.3-5.9c.4.8.1 1.8-.7 2.2-.8.4-1.8.1-2.2-.7-.4-.8-.1-1.8.7-2.2.8-.4 1.8-.1 2.2.7zM9 108.1c.3.8-.1 1.8-.9 2.1-.8.3-1.8-.1-2.1-.9-.3-.8.1-1.8.9-2.1.8-.3 1.7.1 2.1.9zm-2.2-6.3c.2.8-.2 1.7-1.1 2-.9.3-1.7-.2-2-1.1-.3-.9.2-1.7 1.1-2 .9-.3 1.7.2 2 1.1zm-1.7-6.6c.2.9-.4 1.7-1.3 1.9-.9.2-1.6-.4-1.8-1.3-.2-.9.4-1.7 1.3-1.9.9-.2 1.7.5 1.8 1.3zm-1-6.6c.1.9-.5 1.7-1.4 1.8-.9.1-1.7-.6-1.8-1.5-.1-.9.5-1.7 1.4-1.8.9-.1 1.7.6 1.8 1.5zm-.4-6.8c0 .9-.7 1.6-1.6 1.6-.9 0-1.6-.7-1.6-1.6 0-.9.7-1.6 1.6-1.6.9 0 1.5.7 1.6 1.6zm.1-6.7c-.1.9-.8 1.5-1.7 1.5-.9 0-1.5-.8-1.5-1.7 0-.9.8-1.5 1.7-1.5.9 0 1.6.8 1.5 1.7zm.7-6.7c-.1.9-1 1.5-1.8 1.3-.8-.2-1.5-1-1.3-1.8.2-.8 1-1.5 1.8-1.3.9.1 1.5.9 1.3 1.8zm1.4-6.6c-.2.9-1.1 1.4-1.9 1.2-.8-.2-1.4-1.2-1.2-2 .2-.8 1.1-1.4 1.9-1.2.8.2 1.4 1.1 1.2 2zm1.9-6.5c-.3.8-1.2 1.3-2 1-.8-.3-1.3-1.2-1-2 .3-.8 1.2-1.3 2-1 .8.3 1.3 1.2 1 2zm2.5-6.3c-.4.8-1.3 1.2-2.1.8-.8-.4-1.2-1.3-.8-2.1.4-.8 1.3-1.2 2.1-.8.8.4 1.1 1.3.8 2.1zm3-6c-.4.8-1.4 1.1-2.2.6-.8-.5-1.1-1.4-.6-2.2.5-.8 1.4-1.1 2.2-.6.8.5 1 1.4.6 2.2zm3.5-5.8c-.5.7-1.5.9-2.2.4-.7-.5-.9-1.5-.4-2.2.5-.7 1.5-.9 2.2-.4.7.5.9 1.5.4 2.2zm4.1-5.4c-.6.7-1.6.8-2.3.2-.7-.6-.8-1.6-.2-2.3.6-.7 1.6-.8 2.3-.2.7.6.7 1.6.2 2.3zm4.5-5c-.6.6-1.6.7-2.3 0-.6-.6-.7-1.6 0-2.3.6-.6 1.6-.7 2.3 0 .6.7.6 1.7 0 2.3zm4.9-4.6c-.7.6-1.7.5-2.3-.2-.6-.7-.5-1.7.2-2.3.7-.6 1.7-.5 2.3.2.6.7.5 1.7-.2 2.3zm5.3-4.2c-.7.5-1.7.3-2.2-.4-.5-.7-.3-1.7.4-2.2.7-.5 1.7-.3 2.2.4.5.7.3 1.7-.4 2.2zm5.7-3.6c-.8.4-1.7.2-2.2-.6-.5-.8-.2-1.7.6-2.2.8-.5 1.7-.2 2.2.6.5.8.1 1.7-.6 2.2zm5.9-3.2c-.8.4-1.8 0-2.1-.8-.4-.8 0-1.8.8-2.1.8-.4 1.8 0 2.1.8.3.8 0 1.7-.8 2.1zm6.3-2.6c-.8.3-1.7-.1-2.1-1-.4-.9.1-1.7 1-2.1.9-.4 1.7.1 2.1 1 .4.9-.2 1.8-1 2.1zm6.4-2.1c-.9.2-1.7-.3-2-1.1-.3-.8.3-1.7 1.1-2 .8-.3 1.7.3 2 1.1.3.8-.3 1.8-1.1 2zm6.6-1.4c-.9.2-1.7-.4-1.9-1.3-.2-.9.4-1.7 1.3-1.9.9-.2 1.7.4 1.9 1.3.1.9-.5 1.7-1.3 1.9zm6.7-.9c-.9.1-1.7-.6-1.7-1.5S72 1.1 72.9 1c.9-.1 1.7.6 1.7 1.5s-.6 1.6-1.4 1.7z"/>
        </g>
        <g fill="#FFF" fill-rule="nonzero">
            <path d="M21.7 101.3l.6 1.5c-1.1.5-1.6 1.4-1.1 2.5.4 1 1.1 1.3 1.9 1 .7-.3.9-.7.9-1.9v-1.7c0-1.3.5-2.2 1.6-2.7 1.4-.6 2.9.1 3.6 1.8.7 1.8.1 3.4-1.5 4.1l-.6-1.5c1-.4 1.3-1.2.9-2.2-.4-.8-1-1.1-1.7-.8-.6.3-.8.9-.8 2.1v1.5c0 1.3-.5 2.2-1.7 2.7-1.5.6-3-.1-3.8-1.9-.9-2-.3-3.7 1.7-4.5zM30.8 105.8l2.8 4.8-1.2.7-2-3.4-2.3 1.4 2 3.4-1.2.7-2-3.4-2.3 1.3 2 3.4-1.2.7-2.8-4.8zM30.2 114.4c2.3-1.8 5.1-1.7 7 .7 1.7 2.1 1.6 4.3.2 5.8l-1.1-1.3c.8-1.1.8-2.4-.2-3.6-1.3-1.6-3.2-1.7-4.9-.3-1.7 1.4-2 3.2-.7 4.9 1 1.2 2.3 1.5 3.5.9l1.1 1.3c-1.8 1.1-4 .7-5.7-1.4-1.9-2.3-1.5-5.1.8-7zM36.3 124.2l4.3-4.8 1.2 1-4.2 4.7c-.9 1-.8 2.1.1 2.9.9.8 2 .8 2.9-.2l4.2-4.7 1.2 1-4.3 4.8c-1.5 1.7-3.3 1.6-4.9.2-1.6-1.4-2-3.3-.5-4.9zM47.4 133l-.1 3.6-1.5-1 .1-3.4-1.3-.8-1.6 2.4-1.3-.9 5.3-8 3 1.9c1.6 1.1 2 3 .9 4.6-.8 1.3-2.2 1.8-3.5 1.6zm-2-2.8l1.6 1c.9.6 2 .3 2.6-.6.6-.9.4-2-.4-2.6l-1.6-1-2.2 3.2zM53.8 129.1l1.4.7-4.4 8.5-1.4-.7zM57.8 132.7l-2.6-1 .6-1.4 6.6 2.7-.6 1.4-2.6-1.1-3.1 7.5-1.5-.6zM70.4 135l-7 8.1-1.7-.4 2.8-3.3-2.1-6.4 1.8.4 1.5 4.6 3-3.5zM73.1 140.3c.1-2.9 2-5 5.2-4.9 2.6.1 4.3 1.6 4.5 3.7l-1.7-.1c-.3-1.3-1.2-2.2-2.8-2.2-2.1-.1-3.4 1.3-3.5 3.5-.1 2.2 1.1 3.7 3.2 3.7 1.6.1 2.6-.7 3-2l1.7.1c-.4 2-2.1 3.4-4.8 3.4-3.1-.1-4.9-2.3-4.8-5.2zM83.9 135.6l5.5-.6.2 1.4-3.9.5.3 2.7 3.9-.5.2 1.4-3.9.5.3 2.6 3.9-.5.2 1.4-5.5.6zM97.1 139.8l2.6 2.5-1.7.4-2.4-2.4-1.5.4.7 2.8-1.5.4-2.4-9.3 3.4-.9c1.9-.5 3.5.5 4 2.4.3 1.6-.1 3-1.2 3.7zm-3.4-.3l1.8-.5c1-.3 1.5-1.2 1.3-2.3-.3-1.1-1.2-1.7-2.2-1.4l-1.8.5.9 3.7zM100.5 133.4l-2.6 1-.6-1.4 6.6-2.7.6 1.4-2.6 1 3 7.5-1.5.6zM104.6 130l1.4-.7 4.4 8.5-1.4.7zM107.6 128.5l4.7-3 .8 1.2-3.3 2.1 1.6 2.6 3.3-2.1.8 1.2-3.3 2.1 2 3.1-1.3.8zM113.3 124.6l1.2-1 5.9 7.6-1.2 1zM118.9 126.5c-2.1-2.1-2.2-4.9 0-7.1 1.9-1.9 4.1-2 5.8-.8l-1.2 1.2c-1.1-.7-2.4-.6-3.5.5-1.5 1.5-1.4 3.4.2 4.9 1.5 1.6 3.4 1.7 4.9.2 1.1-1.1 1.3-2.4.6-3.5l1.2-1.2c1.2 1.6 1.1 3.9-.8 5.8-2.3 2.3-5.1 2.1-7.2 0zM132.4 116.8l-2.2 3 .8 1-1 1.4-5.8-8.3.8-1.1 9.6 3.1-1 1.4-1.2-.5zm-1.4-.5l-4.7-1.7 3 4 1.7-2.3zM129 109.4l-1.4 2.4-1.3-.7 3.6-6.2 1.3.7-1.4 2.4 7 4.1-.8 1.4zM130.1 104.3l2.2-5.1 1.3.5-1.5 3.6 2.5 1.1 1.5-3.6 1.3.5-1.5 3.6 2.4 1 1.5-3.6 1.3.5-2.1 5.2z"/>
        </g>
        <g fill="#FFF" fill-rule="nonzero">
            <path d="M31.5 55.2l1.6-.3v1.5l-2.1.3c-1.4 2.6-4.1 3.1-6.3 1.9-2.3-1.2-3.4-3.7-2-6.3 1.4-2.6 4.1-3.1 6.3-1.9 1.8 1 2.8 2.8 2.5 4.8zm-3.2-3.4c-1.6-.9-3.5-.6-4.4 1.1-.9 1.8-.1 3.5 1.5 4.3 1.6.9 3.5.6 4.4-1.1.9-1.8.1-3.5-1.5-4.3zM31.1 50l-4.8-3.6.9-1.2 4.7 3.6c1 .8 2 .6 2.7-.3.7-.9.6-1.9-.4-2.7l-4.7-3.6.9-1.2 4.8 3.6c1.7 1.3 1.8 3 .5 4.6-1.2 1.7-2.9 2.1-4.6.8zM40.8 41.5L38.4 44l.6 1.1-1.1 1.1-4.3-8.5.9-.9L43 41l-1.1 1.1-1.1-.6zm-1.2-.6l-4.1-2.2 2.2 4.1 1.9-1.9zM38.2 33.2l1.2-.9 6.8 3-3.9-5.2 1.1-.9 5.4 7.2-1.2.9-6.8-3 3.9 5.2-1.1.9zM48 28.1l-2.3 1.3-.7-1.2 5.8-3.3.7 1.2-2.3 1.3L53 34l-1.3.7zM54.1 30l1.4-.6c.5 1.1 1.3 1.5 2.4 1 .9-.4 1.2-1 .9-1.7-.3-.6-.7-.8-1.8-.8h-1.6c-1.2 0-2.1-.5-2.5-1.5-.6-1.3.1-2.7 1.7-3.4 1.6-.7 3.2-.1 3.8 1.4l-1.4.7c-.4-.9-1.1-1.2-2-.8-.8.3-1.1.9-.8 1.5.2.6.8.8 1.9.8h1.4c1.2 0 2.1.5 2.5 1.6.6 1.4-.1 2.8-1.7 3.5-1.9.8-3.4.2-4.2-1.7zM61.4 22.3l-2.5.7-.4-1.3 6.4-1.9.4 1.3-2.5.7 2.1 7.3-1.4.4zM71.7 26.6l-3.4.6-.1 1.2-1.6.3 1.4-9.4 1.3-.2 4.5 8.3-1.6.3-.5-1.1zm-.6-1.3L69 21.2l-.5 4.6 2.6-.5zM74.5 18.2h1.4l3 6.8 2.8-6.9h1.4l.1 9h-1.4l-.1-5.9-2.2 6h-1.1l-2.4-6 .1 6h-1.4zM92 22.4c-.3 1.8-1.7 2.9-3.5 2.7l-1.8-.3-.4 2.7-1.5-.2 1.3-8.9 3.3.5c1.7.2 2.8 1.7 2.6 3.5zm-1.5-.2c.1-1-.5-1.9-1.4-2l-1.7-.2-.5 3.6 1.7.2c.9.1 1.7-.5 1.9-1.6zM96.9 20.4l1.5.5-.2 7 4.1-5.6 1.5.5-5.7 7.6-1.3-.5zM105.5 23.5l4.7 2.3-.6 1.2-3.3-1.6-1.1 2.3 3.3 1.6-.6 1.2-3.3-1.6-1.1 2.2 3.3 1.6-.6 1.2-4.7-2.3zM112.9 34.6l-.1 3.4-1.4-.9.1-3.2-1.2-.8-1.5 2.3-1.2-.8 4.9-7.5 2.8 1.8c1.5 1 1.9 2.8.9 4.3-.8 1.2-2.1 1.7-3.3 1.4zM111 32l1.5 1c.8.5 1.8.3 2.4-.6.6-.9.4-1.9-.4-2.5l-1.5-1-2 3.1zM119.4 31.9l1.2.9-5.6 7-1.2-.9zM122.5 34.4l3.7 3.6-.9 1-2.7-2.6-2 2.1 2.7 2.6-.9 1-2.7-2.6-2.4 2.5-1.1-1zM127.8 39.7l1 1.1-6.8 5.9-1-1.1zM130.4 42.7l3 4.2-1.1.8-2.2-3-2.1 1.5 2.2 3-1.1.8-2.2-3-2 1.5 2.2 3-1.1.8-3-4.2zM134.9 49.2l1.4 2.7c1.4 2.6.2 5-1.8 6.1-2.1 1.1-4.7.7-6.1-1.9l-1.4-2.7 7.9-4.2zm-5.4 6.2c1 1.9 2.9 2 4.3 1.3 1.4-.8 2.4-2.3 1.3-4.3l-.7-1.3-5.6 3 .7 1.3z"/>
        </g>
    </g>
</svg>
