<svg xmlns="http://www.w3.org/2000/svg" width="162" height="28" viewBox="0 0 162 28">
    <g fill="none" fill-rule="evenodd">
        <path fill="#FFF" d="M51.275 14.65c0 1.54-.374 2.94-1.123 4.2a6.923 6.923 0 0 1-3.14 2.814l1.449 1.89-2.982 1.512-1.995-2.646h-.063c-1.596 0-2.989-.35-4.179-1.05-1.19-.7-2.1-1.641-2.73-2.825-.63-1.183-.945-2.481-.945-3.895 0-1.414.315-2.712.945-3.896.63-1.183 1.54-2.124 2.73-2.824 1.19-.7 2.583-1.05 4.179-1.05s2.989.35 4.179 1.05c1.19.7 2.1 1.641 2.73 2.825.63 1.183.945 2.481.945 3.895zm-7.854 4.725c.896 0 1.67-.21 2.32-.63a4.004 4.004 0 0 0 1.481-1.712c.336-.72.504-1.515.504-2.383 0-.868-.168-1.662-.504-2.383a4.004 4.004 0 0 0-1.48-1.712c-.652-.42-1.425-.63-2.321-.63-.91 0-1.69.21-2.341.63-.652.42-1.145.99-1.481 1.712-.336.72-.497 1.515-.483 2.383-.014.868.147 1.662.483 2.383.336.722.83 1.292 1.48 1.712.652.42 1.432.63 2.342.63zm13.356 2.898c-1.204 0-2.128-.36-2.772-1.081-.644-.722-.966-1.74-.966-3.056v-6.258h3.255v5.544c0 .714.133 1.25.399 1.607s.693.535 1.281.535c.658 0 1.148-.196 1.47-.588.322-.392.483-.945.483-1.659v-5.439h3.192V22h-3.192v-1.449c-.294.546-.703.97-1.228 1.27-.526.302-1.166.452-1.922.452zm13.041 0c-.98 0-1.83-.231-2.552-.693a4.45 4.45 0 0 1-1.648-1.9c-.378-.806-.567-1.719-.567-2.741 0-1.008.196-1.918.588-2.73a4.53 4.53 0 0 1 1.69-1.911c.736-.462 1.579-.693 2.531-.693.714 0 1.351.154 1.911.462.56.308.98.728 1.26 1.26v-1.449h3.192V22h-3.192v-1.428c-.28.504-.71.913-1.291 1.229a3.966 3.966 0 0 1-1.922.472zm.924-2.667c.77 0 1.365-.252 1.785-.756.42-.504.63-1.141.63-1.911 0-.756-.21-1.386-.63-1.89-.42-.504-1.015-.756-1.785-.756-.728 0-1.312.245-1.754.735-.44.49-.661 1.127-.661 1.911s.22 1.424.662 1.921c.44.498 1.025.746 1.753.746zm8.148-7.728h3.213v1.47a3.04 3.04 0 0 1 1.281-1.292c.56-.3 1.225-.451 1.995-.451 2.464 0 3.696 1.379 3.696 4.137V22h-3.234v-5.208c0-.868-.136-1.498-.41-1.89-.273-.392-.731-.588-1.375-.588s-1.13.203-1.46.609c-.329.406-.493 1.001-.493 1.785V22H78.89V11.878zm18.06 7.623c.448 0 .819-.021 1.113-.063V22a12.09 12.09 0 0 1-2.142.168c-1.022 0-1.876-.245-2.562-.735-.686-.49-1.029-1.484-1.029-2.982v-4.032h-1.596v-2.541h1.596V8.875h3.213v3.003h2.289v2.541h-2.289v3.36c0 .686.119 1.144.357 1.375.238.232.588.347 1.05.347zm7.014 2.772c-.952 0-1.788-.14-2.51-.42-.72-.28-1.28-.668-1.68-1.166a2.687 2.687 0 0 1-.598-1.732h3.192c0 .35.154.633.462.85.308.218.707.326 1.197.326.35 0 .633-.08.85-.241.218-.162.326-.389.326-.683a.762.762 0 0 0-.231-.578c-.154-.147-.441-.269-.861-.367l-2.121-.525c-.812-.196-1.438-.55-1.88-1.06-.44-.512-.661-1.145-.661-1.901 0-.952.395-1.718 1.186-2.3.792-.58 1.838-.871 3.14-.871 1.428 0 2.537.27 3.328.809.792.539 1.187 1.312 1.187 2.32h-3.171c0-.35-.122-.62-.368-.809-.245-.189-.584-.283-1.018-.283-.35 0-.63.077-.84.231-.21.154-.315.35-.315.588s.084.434.252.588c.168.154.455.28.861.378l2.142.588c.812.21 1.442.56 1.89 1.05.448.49.672 1.113.672 1.869 0 1.036-.399 1.851-1.197 2.447-.798.595-1.876.892-3.234.892zm11.739-2.772c.448 0 .819-.021 1.113-.063V22a12.09 12.09 0 0 1-2.142.168c-1.022 0-1.876-.245-2.562-.735-.686-.49-1.029-1.484-1.029-2.982v-4.032h-1.596v-2.541h1.596V8.875h3.213v3.003h2.289v2.541h-2.289v3.36c0 .686.119 1.144.357 1.375.238.232.588.347 1.05.347zm6.993 2.772c-.98 0-1.83-.231-2.552-.693a4.45 4.45 0 0 1-1.648-1.9c-.378-.806-.567-1.719-.567-2.741 0-1.008.196-1.918.588-2.73a4.53 4.53 0 0 1 1.69-1.911c.736-.462 1.579-.693 2.531-.693.714 0 1.351.154 1.911.462.56.308.98.728 1.26 1.26v-1.449h3.192V22h-3.192v-1.428c-.28.504-.71.913-1.291 1.229a3.966 3.966 0 0 1-1.922.472zm.924-2.667c.77 0 1.365-.252 1.785-.756.42-.504.63-1.141.63-1.911 0-.756-.21-1.386-.63-1.89-.42-.504-1.015-.756-1.785-.756-.728 0-1.312.245-1.754.735-.44.49-.661 1.127-.661 1.911s.22 1.424.662 1.921c.44.498 1.025.746 1.753.746zm8.148-7.728h3.213v1.47a2.772 2.772 0 0 1 1.102-1.26c.512-.322 1.11-.483 1.796-.483 1.596 0 2.653.623 3.171 1.869.28-.56.707-1.011 1.281-1.354.574-.344 1.225-.515 1.953-.515 2.394 0 3.591 1.372 3.591 4.116V22h-3.234v-5.691c0-.686-.126-1.19-.378-1.512-.252-.322-.63-.483-1.134-.483-.546 0-.966.185-1.26.556-.294.372-.441 1.012-.441 1.922V22h-3.234v-5.712c0-.686-.122-1.186-.367-1.502-.246-.315-.62-.472-1.124-.472-.56 0-.987.185-1.281.556-.294.372-.441 1.012-.441 1.922V22h-3.213V11.878zm25.158-.273c.91 0 1.718.224 2.425.672.708.448 1.257 1.074 1.649 1.88.392.805.588 1.732.588 2.782s-.2 1.977-.599 2.782c-.399.806-.958 1.432-1.68 1.88-.72.448-1.543.672-2.467.672a3.939 3.939 0 0 1-1.943-.483c-.58-.322-1.011-.728-1.291-1.218V26.2h-3.192V11.878h3.192v1.449c.28-.504.721-.917 1.323-1.239a4.162 4.162 0 0 1 1.995-.483zm-1.008 8.001c.7 0 1.274-.248 1.722-.746.448-.497.672-1.137.672-1.921s-.224-1.421-.672-1.911c-.448-.49-1.022-.735-1.722-.735-.728 0-1.316.245-1.764.735-.448.49-.672 1.127-.672 1.911 0 .798.227 1.442.683 1.932.455.49 1.039.735 1.753.735z"/>
        <path fill="#4CBBFD" fill-rule="nonzero" d="M25.36 13.99a11.303 11.303 0 0 0-1.837-6.182l4.458-4.459L24.633 0l-4.456 4.459a11.32 11.32 0 0 0-12.366 0L3.35 0 0 3.349l4.459 4.459a11.32 11.32 0 0 0 0 12.366L0 24.633l3.349 3.348 4.459-4.458a11.32 11.32 0 0 0 12.366 0l4.459 4.458 3.348-3.348-4.458-4.456c1.2-1.84 1.839-3.99 1.837-6.187zm-18.001 0a6.633 6.633 0 1 1 12.682 2.707l-4.375-4.381-3.35 3.35 4.376 4.375a6.62 6.62 0 0 1-9.333-6.05z"/>
    </g>
</svg>
