<svg xmlns="http://www.w3.org/2000/svg" width="20" height="24" viewBox="0 0 20 24">
    <path fill="#708090" fill-rule="nonzero" d="M9.63 0c5.309 0 9.63 4.317 9.64 9.62a9.883 9.883 0 0 1-.236 2.128 9.361 9.361 0 0 1-.645 1.897c-1.038 2.44-3.324 6.189-8.326 10.204a.684.684 0 0 1-.856 0C4.201 19.834 1.92 16.086.881 13.645a9.468 9.468 0 0 1-.71-2.219A9.46 9.46 0 0 1 0 9.62C0 4.317 4.321 0 9.63 0zm.05 5.018c-2.498 0-4.55 1.96-4.55 4.456 0 2.495 2.052 4.544 4.55 4.544 2.408 0 4.46-2.05 4.46-4.544 0-2.495-2.052-4.456-4.46-4.456z"/>
</svg>
