<svg xmlns="http://www.w3.org/2000/svg" width="32" height="40" viewBox="0 0 32 40">
    <g fill="#708090" fill-rule="nonzero">
        <path d="M3.659 3.713v32.585h24.043v-23.7h-3.928a4.348 4.348 0 0 1-4.348-4.349V3.713H3.66zM1.919.235h17.507a3.478 3.478 0 0 1 3.479 3.478V8.25c0 .48.389.87.87.87h3.927a3.478 3.478 0 0 1 3.478 3.478v25.44c0 .96-.779 1.74-1.74 1.74H1.92a1.74 1.74 0 0 1-1.74-1.74V1.974c0-.96.78-1.74 1.74-1.74z"/>
        <path d="M15.355 27.332c-.485 0-.9.172-1.242.513a1.692 1.692 0 0 0-.513 1.241c0 .486.171.9.513 1.242.343.342.757.514 1.242.514s.9-.172 1.242-.514c.342-.342.513-.756.513-1.242 0-.484-.17-.898-.513-1.24a1.695 1.695 0 0 0-1.242-.514m3.849-11.284a5.616 5.616 0 0 0-1.745-.758 8.139 8.139 0 0 0-1.999-.245 5.54 5.54 0 0 0-1.879.32 5.618 5.618 0 0 0-1.591.864 4.415 4.415 0 0 0-1.11 1.26 2.947 2.947 0 0 0-.417 1.504c0 .427.138.751.416.972.277.22.602.331.972.331.342 0 .609-.071.801-.214a1.86 1.86 0 0 0 .48-.523c.13-.206.243-.43.342-.672.1-.242.231-.467.396-.673.164-.206.377-.38.64-.523.264-.143.623-.214 1.08-.214.64 0 1.142.16 1.505.481.363.32.545.773.545 1.356 0 .356-.092.67-.275.94a4.28 4.28 0 0 1-.691.78c-.278.249-.577.49-.897.726-.32.235-.62.487-.898.758-.277.27-.508.566-.693.887-.185.32-.277.694-.277 1.121 0 .341.113.665.341.972.228.306.57.46 1.026.46.355 0 .623-.058.8-.172.178-.113.317-.26.417-.438.1-.178.182-.374.245-.587.065-.213.16-.413.289-.598a2.1 2.1 0 0 1 .524-.513l.78-.566c.285-.206.581-.434.888-.684.306-.248.584-.523.833-.822.25-.3.453-.633.61-1.004.156-.37.236-.79.236-1.26 0-.755-.154-1.402-.462-1.943a3.857 3.857 0 0 0-1.232-1.323"/>
    </g>
</svg>
