<svg xmlns="http://www.w3.org/2000/svg" width="63" height="70" viewBox="0 0 63 70">
    <g fill="#FFB700" fill-rule="evenodd">
        <path d="M35.193 1.357l23.555 13.562c2.498 1.428 3.569 3.569 3.569 6.424v27.124c0 2.856-1.071 4.997-3.57 6.424L35.194 68.454c-2.142 1.427-4.997 1.427-7.495 0L4.143 54.89C2 53.464.573 51.323.573 48.467V21.343c0-2.855 1.428-4.996 3.57-6.424L27.698 1.357c2.498-1.428 5.353-1.428 7.495 0zm-1.919 2.451a3.323 3.323 0 0 0-3.658 0L5.47 17.71c-1.463.732-1.83 1.83-1.83 3.293v27.804c0 1.464.367 2.561 1.83 3.293l24.146 13.902a3.323 3.323 0 0 0 3.658 0L57.42 52.1c1.098-.732 1.83-1.83 1.83-3.293V21.003c0-1.463-.732-2.56-1.83-3.293L33.274 3.808z"/>
        <g fill-rule="nonzero" stroke="#FFB700" stroke-width=".5">
            <path d="M19.244 35.623H17.81v1.435h.717v3.589h1.436V36.34a.718.718 0 0 0-.718-.718zM24.986 42.082H23.55v1.436h.718v3.588h1.436V42.8a.718.718 0 0 0-.718-.718zM21.397 42.082h-2.87a.718.718 0 0 0-.718.718v3.589c0 .396.321.717.717.717h2.871a.718.718 0 0 0 .718-.717V42.8a.718.718 0 0 0-.718-.718zm-.717 3.589h-1.436v-2.153h1.436v2.153zM24.986 35.623h-2.871a.718.718 0 0 0-.718.718v3.588c0 .397.322.718.718.718h2.87a.718.718 0 0 0 .719-.718v-3.588a.718.718 0 0 0-.718-.718zm-.718 3.589h-1.435v-2.154h1.435v2.154zM30.727 35.623h-2.87a.718.718 0 0 0-.718.718v3.588c0 .397.321.718.718.718h2.87a.718.718 0 0 0 .718-.718v-3.588a.718.718 0 0 0-.718-.718zm-.717 3.589h-1.436v-2.154h1.436v2.154zM34.316 42.082h-2.87a.718.718 0 0 0-.719.718v3.589c0 .396.322.717.718.717h2.871a.718.718 0 0 0 .718-.717V42.8a.718.718 0 0 0-.718-.718zm-.718 3.589h-1.435v-2.153h1.435v2.153zM24.986 29.164H23.55v1.435h.718v3.589h1.436V29.88a.718.718 0 0 0-.718-.717zM34.316 29.164h-1.435v1.435h.717v3.589h1.436V29.88a.718.718 0 0 0-.718-.717zM34.316 35.623h-1.435v1.435h.717v3.589h1.436V36.34a.718.718 0 0 0-.718-.718zM28.574 42.082H27.14v1.436h.718v3.588h1.435V42.8a.718.718 0 0 0-.718-.718zM21.397 29.164h-2.87a.718.718 0 0 0-.718.717v3.589c0 .396.321.718.717.718h2.871a.718.718 0 0 0 .718-.718V29.88a.718.718 0 0 0-.718-.717zm-.717 3.588h-1.436V30.6h1.436v2.153zM30.727 29.164h-2.87a.718.718 0 0 0-.718.717v3.589c0 .396.321.718.718.718h2.87a.718.718 0 0 0 .718-.718V29.88a.718.718 0 0 0-.718-.717zm-.717 3.588h-1.436V30.6h1.436v2.153z"/>
            <path d="M37.905 19.116h-15.79a.718.718 0 0 0-.507.21l-7.178 7.177a.718.718 0 0 0-.21.507v22.967c0 .397.322.718.718.718h22.967a.718.718 0 0 0 .717-.718V19.833a.718.718 0 0 0-.717-.717zm-.718 30.143H15.656V27.73h6.459a.718.718 0 0 0 .718-.719v-4.306h-1.436v3.589H16.67l5.742-5.742h14.775V49.26zM42.929 19.116h-2.871v1.435h2.153V49.26h-2.153v1.436h2.87a.718.718 0 0 0 .718-.718V19.833a.718.718 0 0 0-.717-.717zM47.952 19.116h-2.87v1.435h2.153V49.26h-2.153v1.436h2.87a.718.718 0 0 0 .718-.718V19.833a.718.718 0 0 0-.718-.717z"/>
            <path d="M32.88 23.422v-1.435h-7.894a.718.718 0 0 0-.718.717v2.871c0 .396.321.718.718.718h7.895v-1.436h-7.177v-1.435h7.177zM34.316 21.986h1.435v1.435h-1.435zM34.316 24.857h1.435v1.435h-1.435z"/>
        </g>
    </g>
</svg>
