<svg xmlns="http://www.w3.org/2000/svg" width="63" height="70" viewBox="0 0 63 70">
    <g fill="#052892" fill-rule="evenodd">
        <path d="M34.754 1.373l23.555 13.562c2.498 1.428 3.57 3.57 3.57 6.424v27.125c0 2.855-1.072 4.996-3.57 6.424L34.754 68.47c-2.141 1.427-4.997 1.427-7.495 0L3.704 54.908C1.563 53.48.135 51.338.135 48.484V21.359c0-2.855 1.428-4.996 3.569-6.424L27.259 1.373c2.498-1.427 5.354-1.427 7.495 0zm-1.74 2.546a3.323 3.323 0 0 0-3.658 0L5.211 17.821c-1.464.732-1.83 1.83-1.83 3.293v27.804c0 1.464.366 2.561 1.83 3.293l24.145 13.902a3.323 3.323 0 0 0 3.659 0L57.16 52.211c1.097-.732 1.829-1.83 1.829-3.293V21.114c0-1.463-.732-2.561-1.83-3.293L33.016 3.92z"/>
        <g fill-rule="nonzero" stroke="#052892">
            <path d="M30.573 28.336a.612.612 0 0 0 .413.169.73.73 0 0 0 .11-.012.36.36 0 0 0 .11-.035.324.324 0 0 0 .099-.052 1.25 1.25 0 0 0 .093-.07.672.672 0 0 0 .122-.192.582.582 0 0 0 .047-.22.601.601 0 0 0-.169-.413 1.336 1.336 0 0 0-.093-.07.324.324 0 0 0-.099-.052.596.596 0 0 0-.633.122.903.903 0 0 0-.07.087.432.432 0 0 0-.052.104.383.383 0 0 0-.035.105.582.582 0 0 0 .035.337c.03.07.07.136.122.192zM31.398 41.456a1.336 1.336 0 0 0-.093-.07.324.324 0 0 0-.099-.052.579.579 0 0 0-.633.122.67.67 0 0 0-.122.192.58.58 0 0 0-.035.337.379.379 0 0 0 .035.104.43.43 0 0 0 .052.105c.022.03.045.06.07.087a.612.612 0 0 0 .413.169.73.73 0 0 0 .11-.012.36.36 0 0 0 .11-.035.324.324 0 0 0 .1-.052 1.25 1.25 0 0 0 .092-.07.6.6 0 0 0 .169-.412.58.58 0 0 0-.047-.221.676.676 0 0 0-.122-.192zM28.603 28.923c.153.001.3-.06.407-.169a1.02 1.02 0 0 0 .075-.087c.018-.035.035-.064.052-.099l.036-.11a.566.566 0 0 0-.163-.523.372.372 0 0 0-.087-.076 1.74 1.74 0 0 0-.099-.052c-.035-.011-.076-.023-.11-.035a.584.584 0 0 0-.649.796c.09.216.303.357.538.355zM33.78 41.038a.552.552 0 0 0-.087-.076c-.035-.017-.064-.035-.098-.052a.816.816 0 0 0-.111-.03.5.5 0 0 0-.226 0 .796.796 0 0 0-.111.03c-.035.017-.07.035-.099.052a.38.38 0 0 0-.087.076.51.51 0 0 0-.128.186.569.569 0 0 0 .128.634c.025.029.054.054.087.075.03.017.064.035.099.052a.794.794 0 0 0 .11.035c.037.007.074.01.11.011a.766.766 0 0 0 .117-.011.809.809 0 0 0 .11-.035c.035-.017.064-.035.1-.052a.552.552 0 0 0 .086-.076.56.56 0 0 0 .169-.407.625.625 0 0 0-.04-.226.601.601 0 0 0-.129-.186zM25.965 29.777a.604.604 0 0 0 .128.192.587.587 0 0 0 .413.169.605.605 0 0 0 .406-.17.597.597 0 0 0 .076-.092c.017-.03.034-.064.052-.099l.035-.11a.667.667 0 0 0 .012-.11.732.732 0 0 0-.012-.117l-.035-.11c-.017-.035-.035-.064-.052-.1a.715.715 0 0 0-.262-.215.596.596 0 0 0-.447 0 .71.71 0 0 0-.261.216c-.018.035-.036.064-.053.099-.012.034-.023.075-.035.11a.804.804 0 0 0-.011.116.732.732 0 0 0 .011.11l.035.111zM35.79 39.754a.76.76 0 0 0-.098-.053.584.584 0 0 0-.761.76c.028.072.072.136.128.187a.562.562 0 0 0 .523.157.787.787 0 0 0 .11-.029.814.814 0 0 0 .186-.128.588.588 0 0 0 .128-.186.624.624 0 0 0 .04-.226.586.586 0 0 0-.168-.413c-.029-.023-.059-.046-.087-.07zM24.535 30.997a.586.586 0 0 0-.168.413.575.575 0 0 0 .04.22c.032.071.076.136.128.192a.58.58 0 0 0 .82-.825.6.6 0 0 0-.82 0zM37.435 37.97a.579.579 0 0 0-.732-.07.583.583 0 0 0 0 .964c.03.024.063.041.099.053.034.018.072.03.11.035.037.007.074.01.11.012a.6.6 0 0 0 .413-.169.672.672 0 0 0 .122-.192.547.547 0 0 0 0-.442.672.672 0 0 0-.122-.191zM24.117 34.269a.587.587 0 0 0 .581-.581.507.507 0 0 0-.046-.227.572.572 0 0 0-.122-.186.601.601 0 0 0-.82 0 .507.507 0 0 0-.127.186.61.61 0 0 0-.047.227.596.596 0 0 0 .581.58zM38.388 35.884a.328.328 0 0 0-.052-.099.373.373 0 0 0-.076-.087.594.594 0 0 0-.523-.163l-.11.035c-.035.018-.064.035-.099.052a1.07 1.07 0 0 0-.087.076.563.563 0 0 0-.157.523.793.793 0 0 0 .029.11.554.554 0 0 0 .058.099.319.319 0 0 0 .07.087c.028.027.057.052.087.076.035.017.064.035.099.052a.797.797 0 0 0 .226.04.56.56 0 0 0 .407-.168.543.543 0 0 0 .174-.412.723.723 0 0 0-.011-.11.413.413 0 0 0-.035-.111zM24.53 36.517a.576.576 0 0 0 .122-.186.507.507 0 0 0 .046-.226.587.587 0 0 0-.168-.407.595.595 0 0 0-.82 0 .568.568 0 0 0 0 .82.563.563 0 0 0 .524.156.72.72 0 0 0 .104-.029l.105-.052c.03-.024.06-.049.087-.076zM37.44 33.275a.576.576 0 0 0-.156.523.624.624 0 0 0 .029.11.554.554 0 0 0 .058.1c.017.033.04.063.07.086.027.027.057.052.087.076.035.017.064.035.099.052l.11.035a.566.566 0 0 0 .523-.163.375.375 0 0 0 .075-.087.328.328 0 0 0 .053-.099.358.358 0 0 0 .035-.11.732.732 0 0 0 .011-.11.802.802 0 0 0-.011-.117.416.416 0 0 0-.035-.11.554.554 0 0 0-.128-.186.579.579 0 0 0-.523-.157.764.764 0 0 0-.11.03l-.099.051c-.03.024-.06.05-.087.076zM24.535 37.97a.59.59 0 0 0 0 .825c.111.107.259.167.413.169a.58.58 0 0 0 .407-.994.6.6 0 0 0-.82 0zM36.912 30.84a.347.347 0 0 0-.11.035.586.586 0 0 0-.262.21.457.457 0 0 0-.052.104.68.68 0 0 0-.035.105.592.592 0 0 0 .25.598c.03.023.063.04.099.052.034.018.072.03.11.035.037.007.074.01.11.012a.812.812 0 0 0 .117-.012.377.377 0 0 0 .104-.035.443.443 0 0 0 .105-.052 19.4 19.4 0 0 0 .087-.07.974.974 0 0 0 .07-.087.43.43 0 0 0 .052-.104.382.382 0 0 0 .035-.105.6.6 0 0 0 0-.232.378.378 0 0 0-.035-.105.432.432 0 0 0-.052-.105.903.903 0 0 0-.07-.087.596.596 0 0 0-.523-.157zM27.04 40.015a1.908 1.908 0 0 0-.052-.099.373.373 0 0 0-.075-.087.51.51 0 0 0-.187-.128.596.596 0 0 0-.447 0 .508.508 0 0 0-.186.128.375.375 0 0 0-.075.087c-.018.03-.035.064-.053.1l-.035.11a.58.58 0 0 0 .163.523.592.592 0 0 0 .186.127.58.58 0 0 0 .227.041.57.57 0 0 0 .22-.04.595.595 0 0 0 .187-.128.582.582 0 0 0 .162-.523l-.035-.11zM35.059 29.963a.568.568 0 0 0 .819 0 .588.588 0 0 0 .128-.186.598.598 0 0 0-.128-.634.807.807 0 0 0-.186-.128.787.787 0 0 0-.11-.028.576.576 0 0 0-.523.976zM29.01 41.038a.601.601 0 0 0-.82 0 .59.59 0 0 0-.127.186.605.605 0 0 0-.041.226.575.575 0 0 0 .04.221c.03.07.074.133.128.186a.569.569 0 0 0 .82 0 .591.591 0 0 0 .174-.407.59.59 0 0 0-.174-.413zM33.048 28.83c.03.017.064.035.099.052a.764.764 0 0 0 .22.04.787.787 0 0 0 .227-.04c.035-.017.064-.035.1-.052a.538.538 0 0 0 .086-.076.582.582 0 0 0 0-.819.538.538 0 0 0-.185-.128.859.859 0 0 0-.111-.035.738.738 0 0 0-.226 0 .828.828 0 0 0-.111.035c-.035.018-.07.035-.099.052a.375.375 0 0 0-.087.076.568.568 0 0 0 0 .82c.025.029.054.054.087.075z"/>
            <path stroke-width=".5" d="M45.512 36.058c.641 0 1.161-.52 1.162-1.162V33.07a2.32 2.32 0 0 0-.581-4.565 2.32 2.32 0 0 0-.581 4.565v1.826h-4.649a9.812 9.812 0 0 0-2.893-6.984 9.986 9.986 0 0 0-1.174-.992v-.74h8.135c.641 0 1.161-.52 1.162-1.162v-1.244a2.324 2.324 0 1 0-1.162 0v1.244h-8.135c-.64.001-1.158.518-1.162 1.157a9.797 9.797 0 0 0-4.067-1.128v-1.19h2.324c.641-.002 1.161-.521 1.162-1.163v-.664a2.324 2.324 0 1 0-1.162 0v.664h-2.324c-.642 0-1.162.52-1.163 1.162v1.19a9.871 9.871 0 0 0-2.324.406V20.95c0-.642-.52-1.161-1.162-1.162h-5.893a2.324 2.324 0 1 0 0 1.162h5.893v4.95a9.863 9.863 0 0 0-5.377 6.09h-5.082v-2.988a2.324 2.324 0 1 0-1.162 0v2.988c0 .641.52 1.161 1.162 1.162h4.809a9.971 9.971 0 0 0-.16 1.743h-1.162c-.642 0-1.162.52-1.163 1.162v8.135h-.663a2.324 2.324 0 1 0 0 1.162h.663c.642 0 1.162-.52 1.163-1.162v-8.135h1.236a9.833 9.833 0 0 0 5.736 7.834v5.53H23.35a2.324 2.324 0 1 0 0 1.163h3.57c.64-.001 1.16-.521 1.161-1.163V44.34a9.872 9.872 0 0 0 2.324.406v1.19c.001.641.521 1.161 1.163 1.162h4.067v.664a2.324 2.324 0 1 0 1.162 0v-.664c0-.641-.52-1.161-1.162-1.162h-4.067v-1.19a9.798 9.798 0 0 0 6.403-2.865 9.912 9.912 0 0 0 1.736-2.337h4.644v5.893a2.324 2.324 0 1 0 1.162 0v-5.893c-.001-.641-.52-1.16-1.162-1.162h-4.128c.283-.748.474-1.529.567-2.324h4.723zm-.581-5.23a1.162 1.162 0 1 1 2.324 0 1.162 1.162 0 0 1-2.324 0zm-.581-9.296a1.162 1.162 0 1 1 2.324 0 1.162 1.162 0 0 1-2.324 0zm-11.04-1.743a1.162 1.162 0 1 1 2.324 0 1.162 1.162 0 0 1-2.324 0zm-14.527 1.743a1.162 1.162 0 1 1 0-2.324 1.162 1.162 0 0 1 0 2.324zm-2.905 6.392a1.162 1.162 0 1 1 0-2.324 1.162 1.162 0 0 1 0 2.324zm0 18.012a1.162 1.162 0 1 1 0-2.324 1.162 1.162 0 0 1 0 2.324zm5.23 5.23a1.162 1.162 0 1 1 0-2.325 1.162 1.162 0 0 1 0 2.325zm15.107-2.325a1.162 1.162 0 1 1 0 2.324 1.162 1.162 0 0 1 0-2.324zm.933-7.782a8.715 8.715 0 1 1 2.553-6.163 8.658 8.658 0 0 1-2.553 6.163zm7.783 5.458a1.162 1.162 0 1 1 0 2.324 1.162 1.162 0 0 1 0-2.324z"/>
        </g>
    </g>
</svg>
