<svg xmlns="http://www.w3.org/2000/svg" xmlns:xlink="http://www.w3.org/1999/xlink" width="70" height="71" viewBox="0 0 70 71">
    <defs>
        <circle id="a" cx="35" cy="35.187" r="35"/>
        <path id="c" d="M42.595 42.783a32.646 32.646 0 0 1-4.6 3.826c1.076.49 2.175.914 3.288 1.269a35.386 35.386 0 0 0 3.407-2.995 35.273 35.273 0 0 0 5.072-6.398 32.358 32.358 0 0 1 2.226 13.687c-8.84.492-17.838-2.64-24.587-9.389a32.234 32.234 0 0 1-3.82-4.6 29.012 29.012 0 0 0-1.273 3.289 35.946 35.946 0 0 0 2.996 3.41 35.4 35.4 0 0 0 6.404 5.068 32.293 32.293 0 0 1-13.698 2.222c-.486-8.835 2.64-17.83 9.391-24.582A31.94 31.94 0 0 1 32 23.769a29.638 29.638 0 0 0-3.287-1.272 35.924 35.924 0 0 0-3.41 2.995 35.478 35.478 0 0 0-5.069 6.4A32.396 32.396 0 0 1 18.01 18.2c8.838-.486 17.836 2.64 24.585 9.39a31.833 31.833 0 0 1 3.82 4.603 28.046 28.046 0 0 0 1.27-3.286 34.333 34.333 0 0 0-2.995-3.414 35.539 35.539 0 0 0-6.398-5.07A32.33 32.33 0 0 1 51.988 18.2c.488 8.837-2.645 17.836-9.393 24.584m-7.583-24.156a35.34 35.34 0 0 0-18.523-3.286 1.476 1.476 0 0 0-1.333 1.328 35.207 35.207 0 0 0 3.287 18.502 35.26 35.26 0 0 0-3.287 18.528c.028.33.174.653.425.904.251.256.577.395.908.43a35.263 35.263 0 0 0 18.497-3.29 35.26 35.26 0 0 0 18.52 3.29c.334-.03.658-.174.913-.43.251-.25.39-.574.425-.904A35.228 35.228 0 0 0 51.55 35.2a35.184 35.184 0 0 0 3.293-18.522 1.494 1.494 0 0 0-1.329-1.337 35.294 35.294 0 0 0-18.503 3.286z"/>
    </defs>
    <g fill="none" fill-rule="evenodd">
        <mask id="b" fill="#fff">
            <use xlink:href="#a"/>
        </mask>
        <use fill="#FFECBB" xlink:href="#a"/>
        <circle cx="35" cy="35.187" r="5.5" fill="#FF4C00" mask="url(#b)"/>
        <mask id="d" fill="#fff">
            <use xlink:href="#c"/>
        </mask>
        <use fill="#FF4C00" xlink:href="#c"/>
        <path fill="#E7A500" d="M35 16.626c7.498-2.082 13.23-2.969 17.2-2.66 3.968.308 5.486 2.115 4.553 5.422-1.412 5.26-2.589 9.207-3.53 11.838a39.788 39.788 0 0 1-3.59 7.486c-2.9 5.473-5.023 8.677-6.365 9.611-2.122 1.476-5.7-.477-5.73-1.325-.06-1.652 3.866-7.316 11.779-16.992-1.413-1.81-2.59-3.222-3.528-4.237-1.205-1.303-3.658-3.06-7.359-5.27-.863-.498-1.515-.868-1.956-1.11-.44-.244-.932-.5-1.474-.77v-1.993z" mask="url(#d)"/>
        <path fill="#E7A500" d="M13 24.626c7.498-2.082 13.23-2.969 17.2-2.66 3.968.308 5.486 2.115 4.553 5.422-1.474 5.795-2.669 9.948-3.582 12.46a37.797 37.797 0 0 1-3.414 7.058c-2.984 5.344-5.147 8.483-6.49 9.417-2.121 1.476-5.698-.477-5.73-1.325-.06-1.652 3.867-7.316 11.78-16.992-1.413-1.81-2.59-3.222-3.528-4.237-1.205-1.303-3.695-2.956-7.47-4.959-.472-.318-.937-.603-1.397-.854a36.96 36.96 0 0 0-1.902-.946L13 24.626z" mask="url(#d)" transform="rotate(180 24.01 39.382)"/>
    </g>
</svg>
