<svg xmlns="http://www.w3.org/2000/svg" width="40" height="40" viewBox="0 0 40 40">
    <g fill="none" fill-rule="evenodd">
        <circle cx="20" cy="20" r="20" fill="#E3E3E3"/>
        <path fill="#D6EBFF" d="M13.403 9.049c2.747-1.588 4.772-2.382 6.075-2.382 1.302 0 4.066.794 8.29 2.382l-7.823 7.539-6.542-7.54zM12.992 31.276c3.366 1.61 5.7 2.416 7.003 2.416 1.302 0 3.793-.805 7.474-2.416l-2.322-2.143-5.663-5.496-6.492 7.64z"/>
        <path fill="#FFF" d="M31.912 27.737c1.17-3.722 1.811-6.231 1.925-7.529.113-1.297-.692-3.853-2.417-7.668l-2.853 2.685-4.573 4.983 7.918 7.53zM9.728 27.972c-1.88-3.878-2.878-6.466-2.991-7.764-.114-1.297.692-3.853 2.416-7.668l2.854 2.685 4.112 5.5-6.391 7.247z"/>
        <path fill="#1E2837" fill-rule="nonzero" d="M20.087 23.584l-7.351 7.351a13.165 13.165 0 0 0 7.351 2.229c2.64 0 5.181-.775 7.352-2.229l-7.352-7.351zm0 10.83c-2.977 0-5.844-.903-8.268-2.592a1.045 1.045 0 0 1-.142-1.596l7.672-7.671a1.045 1.045 0 0 1 1.477 0l7.672 7.671c.46.46.392 1.224-.142 1.596a14.415 14.415 0 0 1-8.269 2.592zm0-11.41l8.005 8.003-.654.42a13.576 13.576 0 0 1-7.35 2.147c-2.627 0-5.162-.744-7.35-2.148l-.655-.419 8.004-8.004zm-6.004 7.771a12.331 12.331 0 0 0 6.004 1.55c2.123 0 4.177-.535 6.005-1.55l-6.005-6.004-6.004 6.004zm19.234-10.84c0-2.64-.775-5.18-2.23-7.352l-7.35 7.352 7.35 7.351a13.165 13.165 0 0 0 2.23-7.351zm-10.61.739a1.045 1.045 0 0 1 0-1.478l7.672-7.671a1.045 1.045 0 0 1 1.596.141 14.415 14.415 0 0 1 2.592 8.269c0 2.978-.903 5.845-2.592 8.269a1.045 1.045 0 0 1-1.596.141l-7.672-7.671zm11.02-.74c0 2.627-.744 5.162-2.148 7.351l-.42.654-8.003-8.004 8.004-8.004.419.653a13.576 13.576 0 0 1 2.148 7.35zm-1.25 0c0-2.122-.534-4.176-1.55-6.003l-6.003 6.004 6.004 6.004a12.331 12.331 0 0 0 1.549-6.004zm-25.619 0c0 2.64.775 5.181 2.23 7.352l7.35-7.351-7.35-7.352a13.165 13.165 0 0 0-2.23 7.352zm2.347-7.528a.208.208 0 0 0 .014-.016l-.014.016zm8.263 6.79c.408.408.408 1.07 0 1.478l-7.672 7.671c-.46.46-1.224.392-1.596-.141a14.415 14.415 0 0 1-2.592-8.27c0-2.977.903-5.844 2.592-8.268a1.045 1.045 0 0 1 1.596-.141l7.672 7.671zm-11.02.739c0-2.626.744-5.161 2.148-7.35l.419-.654 8.004 8.004-8.004 8.004-.419-.654a13.576 13.576 0 0 1-2.148-7.35zm1.25 0c0 2.122.534 4.177 1.55 6.004l6.003-6.004-6.004-6.004a12.331 12.331 0 0 0-1.549 6.004zm5.038-11l7.351 7.351 7.352-7.351a13.165 13.165 0 0 0-7.352-2.23c-2.639 0-5.18.776-7.351 2.23zm7.351-3.48c2.978 0 5.845.903 8.27 2.593.533.371.6 1.136.14 1.596l-7.67 7.671a1.045 1.045 0 0 1-1.478 0l-7.672-7.671a1.045 1.045 0 0 1 .142-1.596 14.415 14.415 0 0 1 8.268-2.592zm0 11.411l-8.004-8.004.654-.419a13.576 13.576 0 0 1 7.35-2.148c2.627 0 5.161.745 7.35 2.148l.655.42-8.005 8.003zm0-1.767l6.005-6.005a12.331 12.331 0 0 0-6.005-1.549c-2.122 0-4.177.535-6.004 1.55l6.004 6.004z"/>
    </g>
</svg>
