<svg xmlns="http://www.w3.org/2000/svg" width="70" height="71" viewBox="0 0 70 71">
    <g fill="none" fill-rule="evenodd">
        <circle cx="35" cy="35.187" r="35" fill="#DCEBF4"/>
        <path fill="#00B5FF" fill-rule="nonzero" stroke="#00B5FF" stroke-width=".5" d="M55.44 21.206v11.308c0 2.677-2.148 4.85-4.825 4.85H37.586c-.255 0-.464-.002-.64-.005a5.333 5.333 0 0 0-.471.003c-.084.056-.29.245-.49.428l-.263.24-3.686 3.36a1.022 1.022 0 0 1-1.093.177 1.024 1.024 0 0 1-.62-.92V21.207c0-2.678 2.22-4.828 4.897-4.828h15.395a4.81 4.81 0 0 1 4.824 4.828zm-2.01 0a2.8 2.8 0 0 0-2.815-2.819H35.22c-1.57 0-2.888 1.25-2.888 2.819V38.37l2.02-1.826c.094-.085.198-.164.275-.234.922-.85 1.158-.986 2.361-.961.165.003.36.005.598.005h13.029a2.818 2.818 0 0 0 2.815-2.841V21.206z"/>
        <path fill="#052892" fill-rule="nonzero" stroke="#052892" stroke-width=".5" d="M29.833 29.996H19.8c-1.57 0-2.871 1.287-2.871 2.856V44.16c0 1.57 1.301 2.804 2.87 2.804h14.554c.25 0 .485.115.67.284l3.003 2.769v-9.549a1.005 1.005 0 1 1 2.01 0v11.826a.99.99 0 0 1-.592.914.964.964 0 0 1-.399.08c-.246 0-.488-.101-.677-.274l-4.404-4.041H19.799c-2.678 0-4.88-2.136-4.88-4.813V32.852c0-2.677 2.202-4.865 4.88-4.865h10.034v2.01z"/>
        <path fill="#00B5FF" stroke="#00B5FF" d="M22.441 37.252a1.005 1.005 0 1 0 0 2.01h.084a1.005 1.005 0 1 0 0-2.01h-.084zM26.77 37.252a1.005 1.005 0 1 0 0 2.01h.083a1.005 1.005 0 1 0 0-2.01h-.084z"/>
        <path fill="#052892" d="M45.92 25.08c0 1.227-.893 1.973-1.546 2.521-.247.208-.707.586-.706.728a.99.99 0 0 1-.996.998h-.008c-.551 0-1-.43-1.005-.982-.009-1.088.785-1.74 1.423-2.275.501-.42.83-.716.83-.987a.995.995 0 0 0-1.989 0 1.005 1.005 0 1 1-2.009 0 3.003 3.003 0 1 1 6.007-.004zM42.691 30.254a.986.986 0 0 0-.982 1.005v.007c0 .555.428 1.001.982 1.001.555 0 1.005-.454 1.005-1.008 0-.555-.45-1.005-1.005-1.005z"/>
    </g>
</svg>
