<svg xmlns="http://www.w3.org/2000/svg" xmlns:xlink="http://www.w3.org/1999/xlink" width="70" height="71" viewBox="0 0 70 71">
    <defs>
        <circle id="a" cx="35" cy="35.187" r="35"/>
    </defs>
    <g fill="none" fill-rule="evenodd">
        <mask id="b" fill="#fff">
            <use xlink:href="#a"/>
        </mask>
        <use fill="#DCEBF4" xlink:href="#a"/>
        <g mask="url(#b)">
            <g transform="translate(15.532 15.65)">
                <rect width="14.385" height="28.055" x="1.25" y="6.074" stroke="#052892" stroke-width="2.5" rx="4"/>
                <path fill="#DCEBF4" stroke="#052892" stroke-width="2.5" d="M5.605 34.13h22.46a2.75 2.75 0 0 0 2.75-2.75V4.414a2.75 2.75 0 0 0-2.75-2.75H8.724a2.75 2.75 0 0 0-2.75 2.75v27.26c-.005 1.06-.114 1.858-.367 2.447a5.264 5.264 0 0 1-.003.009z"/>
                <path fill="#052892" d="M11 5h15a1 1 0 0 1 1 1v1a1 1 0 0 1-1 1H11a1 1 0 0 1-1-1V6a1 1 0 0 1 1-1zM21 11h5a1 1 0 0 1 0 2h-5a1 1 0 0 1 0-2zM21 14h5a1 1 0 0 1 0 2h-5a1 1 0 0 1 0-2zM11 20h2.818a1 1 0 0 1 .57.178c1.649 1.143 2.44 1.75 2.371 1.822-.072.075-1.58.075-4.526 0a1 1 0 0 0-.025 0H11a1 1 0 0 1 0-2zM11 24h2.275a1 1 0 1 1 0 2H11a1 1 0 0 1 0-2zM11 28h3.296a1 1 0 1 1 0 2H11a1 1 0 0 1 0-2zM11 11h6a1 1 0 0 1 1 1v5a1 1 0 0 1-1 1h-6a1 1 0 0 1-1-1v-5a1 1 0 0 1 1-1z"/>
            </g>
            <g fill-rule="nonzero">
                <g transform="translate(29.474 33.265)">
                    <path fill="#DCEBF4" stroke="#00B5FF" stroke-width="2.5" d="M0 6.156V17.08A3.023 3.023 0 0 0 3.021 20.1h18.715a3.023 3.023 0 0 0 3.021-3.021V6.156a2.876 2.876 0 0 0-2.874-2.875H17.86l-.096-.419A3.673 3.673 0 0 0 14.167.008h-3.582a3.681 3.681 0 0 0-3.597 2.854l-.096.42H2.875A2.88 2.88 0 0 0 0 6.155z"/>
                    <circle cx="4.85" cy="7.823" r="1.49" fill="#00B5FF"/>
                </g>
                <path fill="#00B5FF" stroke="#00B5FF" d="M41.85 49.587c2.59 0 4.7-2.11 4.7-4.7 0-2.59-2.11-4.7-4.7-4.7-2.59 0-4.7 2.105-4.7 4.7 0 2.594 2.11 4.7 4.7 4.7zm0-8.281a3.587 3.587 0 0 1 3.581 3.58 3.587 3.587 0 0 1-3.58 3.582 3.587 3.587 0 0 1-3.582-3.581 3.587 3.587 0 0 1 3.581-3.581z"/>
            </g>
        </g>
    </g>
</svg>
