<svg xmlns="http://www.w3.org/2000/svg" xmlns:xlink="http://www.w3.org/1999/xlink" width="70" height="71" viewBox="0 0 70 71">
    <defs>
        <circle id="a" cx="35" cy="35.187" r="35"/>
    </defs>
    <g fill="none" fill-rule="evenodd">
        <mask id="b" fill="#fff">
            <use xlink:href="#a"/>
        </mask>
        <use fill="#E5F4DC" xlink:href="#a"/>
        <path fill="#1FAC21" fill-rule="nonzero" d="M55.956 30.2c-2.122 0-3.926 1.38-4.616 3.236h-6.42a10.44 10.44 0 0 0-1.75-4.244l4.51-4.51a4.87 4.87 0 0 0 5.623-.955c1.91-1.91 1.91-5.04 0-6.95-1.91-1.91-5.04-1.91-6.95 0-1.485 1.486-1.804 3.767-.955 5.571l-4.615 4.562c-1.22-.848-2.653-1.485-4.191-1.75v-6.42a4.886 4.886 0 0 0 3.236-4.615c0-2.706-2.228-4.934-4.934-4.934s-4.934 2.228-4.934 4.934c0 2.175 1.38 3.979 3.342 4.668v6.42c-1.538.265-3.024.849-4.244 1.75l-4.562-4.562c.848-1.804.53-4.085-.955-5.57-1.91-1.91-5.04-1.91-6.95 0-1.91 1.91-1.91 5.04 0 6.95 1.538 1.538 3.82 1.856 5.623.954l4.563 4.563c-.902 1.22-1.486 2.652-1.75 4.244h-6.473a4.886 4.886 0 0 0-4.616-3.236c-2.706 0-4.934 2.228-4.934 4.934 0 2.705 2.228 4.934 4.934 4.934 2.175 0 3.98-1.38 4.669-3.343h6.42c.264 1.539.848 3.024 1.75 4.244l-4.563 4.563c-1.803-.849-4.085-.53-5.57.955-1.91 1.91-1.91 5.04 0 6.95 1.91 1.91 5.04 1.91 6.95 0 1.538-1.539 1.857-3.82.955-5.624l4.562-4.562c1.273.902 2.706 1.538 4.297 1.804v6.419c-1.91.69-3.342 2.493-3.342 4.669 0 2.705 2.228 4.933 4.934 4.933s4.934-2.228 4.934-4.933c0-2.123-1.38-3.926-3.236-4.616v-6.579c1.591-.265 3.024-.848 4.244-1.75l4.51 4.51a4.87 4.87 0 0 0 .954 5.623c1.91 1.91 5.04 1.91 6.95 0 1.91-1.91 1.91-5.04 0-6.95-1.485-1.486-3.767-1.804-5.57-.955l-4.563-4.563c.902-1.22 1.486-2.705 1.75-4.244h6.42c.69 1.91 2.494 3.342 4.669 3.342 2.706 0 4.934-2.228 4.934-4.933-.106-2.706-2.282-4.934-5.04-4.934zm-7.428-11.194c.69-.69 1.804-.69 2.494 0 .69.69.69 1.803 0 2.493s-1.804.69-2.494 0a1.761 1.761 0 0 1 0-2.493zm-27.163 2.546c-.69.69-1.803.69-2.493 0a1.761 1.761 0 0 1 0-2.493c.69-.69 1.804-.69 2.493 0 .69.636.69 1.75 0 2.493zm-7.427 15.385a1.789 1.789 0 0 1-1.804-1.803c0-1.008.796-1.804 1.804-1.804s1.804.796 1.804 1.804-.849 1.803-1.804 1.803zm7.427 14.325c-.69.69-1.803.69-2.493 0a1.761 1.761 0 0 1 0-2.494c.69-.69 1.804-.69 2.493 0 .69.69.69 1.804 0 2.494zm11.778-37.137c0-1.008.796-1.804 1.804-1.804s1.804.796 1.804 1.804a1.789 1.789 0 0 1-1.804 1.804c-1.008-.053-1.804-.85-1.804-1.804zm3.608 42.017a1.789 1.789 0 0 1-1.804 1.804 1.789 1.789 0 0 1-1.804-1.804c0-1.008.796-1.803 1.804-1.803 1.008.053 1.804.848 1.804 1.803zm11.777-7.427c.69-.69 1.804-.69 2.494 0 .69.69.69 1.804 0 2.494-.69.69-1.804.69-2.494 0-.69-.637-.69-1.751 0-2.494zm7.428-11.778a1.789 1.789 0 0 1-1.804-1.803c0-1.008.796-1.804 1.804-1.804s1.804.796 1.804 1.804a1.789 1.789 0 0 1-1.804 1.803z" mask="url(#b)"/>
        <path fill="#FFF" d="M34.18 27.85v1.717c-1.95.39-3.043 1.64-3.043 3.2 0 1.717 1.327 2.654 3.2 3.278 1.327.469 1.872.859 1.872 1.56 0 .702-.702 1.093-1.716 1.093-1.17 0-2.185-.39-2.966-.78l-.546 2.108c.702.39 1.873.702 3.043.78v1.717h1.795V40.65c2.03-.39 3.2-1.717 3.2-3.278 0-1.639-.858-2.576-2.966-3.355-1.56-.547-2.184-.937-2.184-1.561 0-.469.39-1.015 1.56-1.015 1.327 0 2.107.391 2.576.625l.546-2.029c-.625-.312-1.405-.546-2.576-.625v-1.56l-1.795-.002z" mask="url(#b)"/>
    </g>
</svg>
