<svg xmlns="http://www.w3.org/2000/svg" width="211" height="150" viewBox="0 0 211 150">
    <g fill="none" fill-rule="evenodd">
        <path fill="#052892" fill-rule="nonzero" d="M139.1 48.307a38.92 38.92 0 0 0-6.325-21.289l15.354-15.353L136.597.134l-15.34 15.353a38.976 38.976 0 0 0-42.582 0L63.31.134 51.778 11.665 67.13 27.018a38.976 38.976 0 0 0 0 42.581L51.778 84.953 63.31 96.484l15.353-15.353a38.976 38.976 0 0 0 42.58 0l15.354 15.353 11.532-11.531-15.354-15.34a38.92 38.92 0 0 0 6.326-21.306zm-61.984 0a22.839 22.839 0 1 1 43.67 9.32l-15.065-15.086-11.536 11.536 15.07 15.065a22.792 22.792 0 0 1-32.139-20.835z"/>
        <path fill="#1E2837" d="M24.93 131.385c0 4.8-2.434 9.132-6.766 11.132l2.3 3-4.733 2.399-3.166-4.2h-.1C4.633 143.716 0 138.017 0 131.386c0-6.633 4.633-12.332 12.465-12.332s12.464 5.699 12.464 12.331zm-12.465 7.499c4.432 0 6.832-3.433 6.832-7.499s-2.4-7.499-6.832-7.499c-4.466 0-6.866 3.433-6.833 7.5-.033 4.065 2.367 7.498 6.833 7.498zm21.196 4.6c-3.866 0-5.932-2.4-5.932-6.566v-9.932h5.166v8.798c0 2.2.733 3.4 2.666 3.4 2.166 0 3.1-1.4 3.1-3.566v-8.632h5.065v16.064H38.66v-2.3c-.9 1.7-2.566 2.733-4.999 2.733zm20.697 0c-4.8 0-7.566-3.634-7.566-8.466 0-4.8 2.966-8.465 7.632-8.465 2.333 0 4.166 1.1 5.033 2.732v-2.3h5.066v16.065h-5.066v-2.266c-.867 1.6-2.866 2.7-5.1 2.7zm1.466-4.234c2.533 0 3.833-1.9 3.833-4.232 0-2.3-1.3-4.2-3.833-4.2-2.366 0-3.833 1.767-3.833 4.2 0 2.433 1.467 4.232 3.833 4.232zm12.931-12.264h5.1v2.333c.933-1.8 2.766-2.766 5.198-2.766 3.9 0 5.866 2.2 5.866 6.565v9.932h-5.132v-8.265c0-2.7-.767-3.933-2.833-3.933-2.033 0-3.1 1.333-3.1 3.8v8.398h-5.099v-16.064zm28.662 12.098c.633 0 1.3-.033 1.766-.1v4.066c-.733.133-1.933.266-3.399.266-2.4 0-5.699-.533-5.699-5.899v-6.398h-2.533v-4.033h2.533v-4.766h5.1v4.766h3.632v4.033h-3.633v5.332c0 2.366.967 2.733 2.233 2.733zm11.132 4.466c-4.7 0-7.6-2.3-7.6-5.333h5.067c0 1.1 1.066 1.9 2.633 1.9 1.1 0 1.866-.567 1.866-1.5 0-.633-.3-1.166-1.167-1.366l-3.932-1c-2.666-.667-4.033-2.333-4.033-4.633 0-3 2.633-5.099 6.866-5.099 4.699 0 7.165 1.967 7.165 5h-5.032c0-1.134-.834-1.767-2.2-1.767-1.1 0-1.833.533-1.833 1.333 0 .733.5 1.2 1.366 1.433l3.8 1.033c2.466.667 4.066 2.167 4.066 4.466 0 3.3-2.633 5.533-7.032 5.533zm18.63-4.466c.633 0 1.3-.033 1.766-.1v4.066c-.733.133-1.933.266-3.4.266-2.399 0-5.698-.533-5.698-5.899v-6.398h-2.533v-4.033h2.533v-4.766h5.099v4.766h3.633v4.033h-3.633v5.332c0 2.366.966 2.733 2.233 2.733zm11.098 4.4c-4.8 0-7.565-3.634-7.565-8.466 0-4.8 2.966-8.465 7.632-8.465 2.333 0 4.166 1.1 5.032 2.732v-2.3h5.066v16.065h-5.066v-2.266c-.866 1.6-2.866 2.7-5.099 2.7zm1.466-4.234c2.533 0 3.833-1.9 3.833-4.232 0-2.3-1.3-4.2-3.833-4.2-2.366 0-3.832 1.767-3.832 4.2 0 2.433 1.466 4.232 3.832 4.232zm12.932-12.264h5.099v2.333c.7-1.6 2.366-2.766 4.599-2.766 2.866 0 4.333 1.266 5.032 2.966.867-1.733 2.767-2.966 5.133-2.966 4.6 0 5.699 3.166 5.699 6.532v9.965h-5.133v-9.032c0-2.233-.833-3.166-2.4-3.166-1.599 0-2.699.9-2.699 3.933v8.265h-5.132v-9.065c0-2.233-.8-3.133-2.366-3.133-1.633 0-2.733.9-2.733 3.933v8.265h-5.1v-16.064zm29.595 0h5.099v2.3c.833-1.534 2.833-2.733 5.232-2.733 4.4 0 7.399 3.4 7.399 8.465 0 5.032-3.1 8.465-7.532 8.465-2.366 0-4.3-1.2-5.1-2.7v8.932h-5.098v-22.73zm19.885 4.068v-4.16H201V126h3.328v.894h-1.167v4.16h-1.006zm2.844 0V126h1.689l1.018 3.303 1.006-3.303h1.689v5.054h-.994v-4.048l-1.266 4.048h-.882l-1.267-4.048v4.048H205zM191 139.25c2.233 0 3.8-1.733 3.8-4.232 0-2.466-1.567-4.2-3.8-4.2-2.3 0-3.866 1.7-3.866 4.2 0 2.533 1.6 4.232 3.867 4.232z"/>
    </g>
</svg>
