<svg xmlns="http://www.w3.org/2000/svg" width="40" height="39" viewBox="0 0 40 39">
    <g fill="#708090" fill-rule="nonzero">
        <path d="M30.407 4.538c.273 0 .454-.181.454-.453V1.362c0-.273-.181-.454-.454-.454-.272 0-.453.181-.453.454v2.723c0 .272.181.453.453.453zM34.946 35.4c-.272 0-.454.181-.454.454v1.815c0 .272.182.454.454.454s.454-.182.454-.454v-1.815c0-.273-.182-.454-.454-.454zM34.946 4.538c.272 0 .454-.181.454-.453V2.269c0-.272-.182-.454-.454-.454s-.454.182-.454.454v1.816c0 .272.182.453.454.453zM38.577 26.323c-.273 0-.454.181-.454.454v4.538c0 .272.181.454.454.454.272 0 .453-.182.453-.454v-4.538c0-.273-.181-.454-.453-.454zM38.123 9.53v2.724c0 .272.181.454.454.454.272 0 .453-.182.453-.454V9.53c0-.273-.181-.454-.453-.454-.273 0-.454.181-.454.454zM10.438 18.154h5.446c.273 0 .454-.182.454-.454s-.181-.454-.454-.454h-5.446c-.272 0-.453.182-.453.454s.181.454.453.454zM15.43 23.146c0 .272.182.454.454.454h5.447c.272 0 .453-.182.453-.454s-.181-.454-.453-.454h-5.447c-.272 0-.453.182-.453.454zM15.884 28.138h-5.446c-.272 0-.453.182-.453.454s.181.454.453.454h5.446c.273 0 .454-.182.454-.454s-.181-.454-.454-.454zM10.438 23.6h3.631c.272 0 .454-.182.454-.454s-.182-.454-.454-.454h-3.63c-.273 0-.454.182-.454.454s.181.454.453.454zM10.438 27.23h3.631c.272 0 .454-.181.454-.453 0-.273-.182-.454-.454-.454h-3.63c-.273 0-.454.181-.454.454 0 .272.181.454.453.454zM10.438 19.97h6.354c.272 0 .454-.182.454-.455 0-.272-.182-.454-.454-.454h-6.354c-.272 0-.453.182-.453.454 0 .273.181.454.453.454zM13.615 21.33c0 .273.182.454.454.454h6.354c.272 0 .454-.181.454-.453 0-.273-.182-.454-.454-.454h-6.354c-.272 0-.454.181-.454.454zM10.438 25.415h6.354c.272 0 .454-.181.454-.454 0-.272-.182-.454-.454-.454h-6.354c-.272 0-.453.182-.453.454 0 .273.181.454.453.454zM17.246 17.7c0 .272.182.454.454.454h2.723c.272 0 .454-.182.454-.454s-.182-.454-.454-.454H17.7c-.272 0-.454.182-.454.454zM14.977 15.43h4.538c.273 0 .454-.18.454-.453s-.181-.454-.454-.454h-4.538c-.273 0-.454.181-.454.454 0 .272.181.454.454.454zM10.438 21.784h1.816c.272 0 .454-.181.454-.453 0-.273-.182-.454-.454-.454h-1.816c-.272 0-.453.181-.453.454 0 .272.181.453.453.453zM20.423 26.323h-1.815c-.273 0-.454.181-.454.454 0 .272.181.454.454.454h1.815c.272 0 .454-.182.454-.454 0-.273-.182-.454-.454-.454zM22.238 25.415h.908c.272 0 .454-.181.454-.454 0-.272-.182-.454-.454-.454h-.908c-.272 0-.454.182-.454.454 0 .273.182.454.454.454zM14.977 32.677h-.908c-.272 0-.454.181-.454.453 0 .273.182.454.454.454h.908c.272 0 .454-.181.454-.454 0-.272-.182-.453-.454-.453zM16.792 26.323h-.908c-.272 0-.453.181-.453.454 0 .272.181.454.453.454h.908c.272 0 .454-.182.454-.454 0-.273-.182-.454-.454-.454zM12.254 32.677h-1.816c-.272 0-.453.181-.453.453 0 .273.181.454.453.454h1.816c.272 0 .454-.181.454-.454 0-.272-.182-.453-.454-.453zM20.423 24.507h-1.815c-.273 0-.454.182-.454.454 0 .273.181.454.454.454h1.815c.272 0 .454-.181.454-.454 0-.272-.182-.454-.454-.454zM21.784 27.23c-.907 0-1.724.364-2.36.908H17.7c-.272 0-.454.182-.454.454s.182.454.454.454h.998c-.272.545-.544 1.18-.544 1.815a3.641 3.641 0 0 0 3.63 3.631 3.641 3.641 0 0 0 3.631-3.63 3.641 3.641 0 0 0-3.63-3.631zm0 5.447a1.82 1.82 0 0 1-1.815-1.816 1.82 1.82 0 0 1 1.815-1.815A1.82 1.82 0 0 1 23.6 30.86a1.82 1.82 0 0 1-1.816 1.816z"/>
        <circle cx="21.784" cy="30.861" r="1"/>
        <path d="M36.307 13.161V9.35c0-.363.182-.726.363-.998l1.634-1.634c.454-.363.726-.999.726-1.543V3.54c.545-.182.908-.726.908-1.27 0-.727-.635-1.362-1.361-1.362-.727 0-1.362.635-1.362 1.361 0 .636.363 1.09.908 1.271v1.634c0 .363-.182.726-.363.998l-1.634 1.634c-.454.363-.726.999-.726 1.543v3.268c-.545-.272-1.18-.545-1.816-.636V8.078c.545-.181.908-.726.908-1.27 0-.727-.635-1.362-1.362-1.362-.726 0-1.361.635-1.361 1.362 0 .635.363 1.089.908 1.27v3.813c-.273 0-.636-.091-.908-.091-.998 0-1.906.181-2.723.454v-5.9c0-1.543-1.18-2.723-2.723-2.723h-1.816v-.908C24.507 1.18 23.327 0 21.784 0s-2.723 1.18-2.723 2.723v.908H2.723C1.18 3.63 0 4.81 0 6.354V35.4c0 1.543 1.18 2.723 2.723 2.723h23.6c1.543 0 2.723-1.18 2.723-2.723v-7.716a8.557 8.557 0 0 0 2.723.454v5.537a1.365 1.365 0 0 0-.908 1.27c0 .727.636 1.362 1.362 1.362.726 0 1.361-.635 1.361-1.361 0-.636-.363-1.09-.907-1.27v-5.629c.635-.09 1.27-.181 1.815-.453v1.997c0 .635.272 1.18.635 1.633l1.634 1.634c.273.272.363.636.363.999v1.633a1.365 1.365 0 0 0-.907 1.271c0 .726.635 1.362 1.361 1.362s1.362-.636 1.362-1.362c0-.635-.363-1.089-.908-1.27v-1.634c0-.636-.272-1.18-.635-1.634l-1.634-1.634c-.273-.272-.363-.635-.363-.998v-2.36c2.723-1.362 4.538-4.085 4.538-7.353 0-2.723-1.452-5.264-3.63-6.717zm2.27-11.346c.272 0 .453.182.453.454 0 .273-.181.454-.453.454-.273 0-.454-.181-.454-.454 0-.272.181-.454.454-.454zm-.908 34.492c.272 0 .454.182.454.454 0 .273-.182.454-.454.454s-.454-.181-.454-.454c0-.272.182-.454.454-.454zM33.13 6.354c.273 0 .454.181.454.454 0 .272-.181.453-.454.453-.272 0-.453-.181-.453-.453 0-.273.181-.454.453-.454zm-12.253-3.63c0-.546.363-.909.907-.909.545 0 .908.363.908.908v.908h-1.815v-.908zM2.723 36.306c-.545 0-.908-.363-.908-.907V6.354c0-.545.363-.908.908-.908h.182c-.091.272-.182.545-.182.908V35.4c0 .363.09.635.182.907h-.182zm2.905 0h-.182c-.545 0-.908-.363-.908-.907V6.354c0-.545.363-.908.908-.908h5.99L6.264 10.62c-.545.545-.817 1.18-.817 1.906V35.4c0 .363.09.635.182.907zm7.08-29.59v3.268c0 .544-.363.907-.908.907H8.532l4.176-4.175zM27.23 35.4c0 .544-.364.907-.908.907H8.169c-.544 0-.908-.363-.908-.907V13.615c0-.544.364-.907.908-.907h3.63c1.544 0 2.724-1.18 2.724-2.723V6.354c0-.545.363-.908.908-.908h7.261v5.446c0 .545-.363.908-.908.908-.544 0-.907-.363-.907-.908V8.17c0-.544-.363-.908-.908-.908s-.908.364-.908.908v2.723c0 1.543 1.18 2.723 2.723 2.723s2.723-1.18 2.723-2.723V5.446h1.816c.544 0 .908.363.908.908v6.807c-1.907 1.271-3.268 3.45-3.54 5.9h-5.083c-.273 0-.454.182-.454.454 0 .273.181.454.454.454H23.6c0 .272 0 .635.09.908h-1.452c-.272 0-.454.181-.454.454 0 .272.182.453.454.453h1.543c.454 2.088 1.725 3.813 3.45 4.993V35.4zm4.992 0c-.272 0-.454-.182-.454-.454s.182-.454.454-.454.454.182.454.454-.182.454-.454.454zm-.454-9.077a6.315 6.315 0 0 1-6.354-6.354 6.315 6.315 0 0 1 6.354-6.354 6.315 6.315 0 0 1 6.354 6.354 6.315 6.315 0 0 1-6.354 6.354z"/>
        <path d="M34.492 19.061v-1.815c0-1.543-1.18-2.723-2.723-2.723s-2.723 1.18-2.723 2.723v1.815c-.545 0-.908.363-.908.908v3.63c0 .545.363.908.908.908h5.446c.545 0 .908-.363.908-.907v-3.63c0-.546-.363-.909-.908-.909zm-2.723 3.631c-.545 0-.908-.363-.908-.908 0-.544.363-.907.908-.907s.908.363.908.907c0 .545-.363.908-.908.908zm.908-3.63H30.86v-1.816c0-.545.363-.908.908-.908s.908.363.908.908v1.815z"/>
    </g>
</svg>
