<svg xmlns="http://www.w3.org/2000/svg" width="20" height="20" viewBox="0 0 20 20">
    <path fill="#708090" fill-rule="nonzero" d="M18.523 5.253a9.85 9.85 0 0 0-3.6-3.6C13.407.77 11.753.326 9.957.326c-1.795 0-3.45.443-4.965 1.327a9.849 9.849 0 0 0-3.6 3.6C.506 6.77.064 8.424.064 10.22c0 2.155.628 4.094 1.887 5.816 1.258 1.721 2.883 2.913 4.875 3.574.232.043.404.013.515-.09a.504.504 0 0 0 .168-.386l-.007-.696c-.004-.438-.006-.82-.006-1.146l-.297.051a3.78 3.78 0 0 1-.715.045 5.447 5.447 0 0 1-.895-.09 2 2 0 0 1-.863-.386 1.634 1.634 0 0 1-.567-.792l-.128-.297a3.219 3.219 0 0 0-.406-.656c-.185-.24-.371-.404-.56-.49l-.09-.064a.946.946 0 0 1-.168-.155.707.707 0 0 1-.116-.18c-.026-.06-.004-.11.065-.149.068-.039.193-.057.373-.057l.258.038c.171.035.384.137.637.31.254.17.462.394.625.669.198.352.436.62.715.805.279.185.56.277.844.277.283 0 .528-.022.734-.064.206-.043.399-.108.58-.194.077-.575.287-1.017.63-1.327a8.82 8.82 0 0 1-1.32-.231 5.257 5.257 0 0 1-1.21-.503 3.468 3.468 0 0 1-1.038-.863c-.274-.343-.5-.794-.676-1.352-.176-.559-.264-1.203-.264-1.933 0-1.039.34-1.923 1.018-2.653-.318-.782-.288-1.657.09-2.628.25-.077.618-.02 1.108.174.49.193.848.359 1.075.496.228.137.41.254.548.348a9.147 9.147 0 0 1 2.473-.335c.85 0 1.675.112 2.473.335l.49-.31c.335-.205.73-.394 1.185-.566.455-.172.803-.219 1.044-.142.386.97.42 1.847.102 2.628.679.73 1.018 1.615 1.018 2.654 0 .73-.088 1.375-.264 1.938-.176.563-.403 1.013-.682 1.353-.28.339-.627.624-1.044.856-.416.232-.82.4-1.21.503-.392.103-.832.18-1.321.232.446.386.67.996.67 1.829v2.717c0 .155.053.284.16.387.108.102.278.133.51.09 1.992-.661 3.617-1.853 4.875-3.575 1.258-1.721 1.887-3.66 1.887-5.816 0-1.794-.443-3.449-1.327-4.965z"/>
</svg>
