<svg xmlns="http://www.w3.org/2000/svg" width="32" height="40" viewBox="0 0 32 40">
    <g fill="#708090" fill-rule="evenodd">
        <path fill-rule="nonzero" d="M3.659 3.713v32.585h24.043v-23.7h-3.928a4.348 4.348 0 0 1-4.348-4.349V3.713H3.66zM1.919.235h17.507a3.478 3.478 0 0 1 3.479 3.478V8.25c0 .48.389.87.87.87h3.927a3.478 3.478 0 0 1 3.478 3.478v25.44c0 .96-.779 1.74-1.74 1.74H1.92a1.74 1.74 0 0 1-1.74-1.74V1.974c0-.96.78-1.74 1.74-1.74z"/>
        <rect width="18.908" height="2.881" x="6.226" y="15.652" rx="1.44"/>
        <rect width="18.908" height="2.881" x="6.226" y="21.739" rx="1.44"/>
        <path d="M7.243 27.826h7.81a1 1 0 0 1 1 1v.88a1 1 0 0 1-1 1h-7.81a1 1 0 0 1-1-1v-.88a1 1 0 0 1 1-1z"/>
    </g>
</svg>
