<svg height="999" viewBox="0 0 1442 999" width="1442" xmlns="http://www.w3.org/2000/svg"><g fill="#f9f9f9" opacity=".35" transform="translate(0 .640625)"><path d="m707.125377 370.502754c-333.012134 200.107412-489.74891 212.13466-705.87244731 290.142665v336.570401l1438.29590031-1.118164v-995.86914037c-300.33166 0-399.41132 170.16588737-732.423453 370.27423837z" opacity=".04"/><path d="m681.126357 541.778605c-341.910904 177.695404-526.412473 142.416987-679.11659138 219.297386v235.713072h1438.41503438v-848.029297c-337.03539 0-417.38754 215.322495-759.298443 393.018839z" opacity=".08"/><path d="m1441.00195 246.179968c-297.76662 0-416.09694 282.999348-733.995556 444.880043-317.898612 161.880695-481.360814 75.893718-706.61186275 175.883002v130.644389h1440.60741875z" opacity=".12"/><path d="m719.374099 807.022941c-350.905598 141.977824-371.114441-3.136977-719.15339587 148.525663v42.132426h1440.59570687v-554.919311c-245.94567-16.508765-370.53487 222.283398-721.442311 364.261222z" opacity=".16"/><path d="m625.977811 917.788911c-354.56216 46.916529-337.013159-21.938334-625.70004 79.917754h1441.128479v-383.655884c-289.3204 0-460.866279 256.823481-815.428439 303.73813z" opacity=".2"/></g></svg>