<svg xmlns="http://www.w3.org/2000/svg" width="70" height="71" viewBox="0 0 70 71">
    <g fill="none" fill-rule="evenodd">
        <circle cx="35" cy="35.187" r="35" fill="#E5F4DC"/>
        <path fill="#A7D988" d="M11.745 28.576l4.17 1.106.805 19.02 18.6 5.14c2.375-1.605 4.212-2.59 5.511-2.953 1.3-.362 5.6-1.092 12.899-2.187l.931-19.02c2.288-1.99 3.533-2.358 3.735-1.106.203 1.253.203 9.328 0 24.226l-23.075 6.122c-6.702-2.226-11.566-3.65-14.595-4.274-3.028-.623-6.391-.893-10.09-.808l1.11-25.266z"/>
        <path fill="#11A817" fill-rule="nonzero" d="M18.54 53.014c8.38 1.122 14.211 2.858 16.898 4.935.542.42.634 1.19.206 1.72a1.268 1.268 0 0 1-1.756.202c-2.243-1.734-7.717-3.364-15.686-4.431-.997-.134-3.457-.24-7.311-.313a1.237 1.237 0 0 1-1.227-1.224V28.28c0-.657.53-1.197 1.2-1.223 1.753-.069 3.59.313 5.503 1.13.633.271.922.993.646 1.613a1.26 1.26 0 0 1-1.646.632c-1.127-.481-2.193-.774-3.202-.885v23.157c3.258.074 5.367.175 6.375.31z"/>
        <path fill="#11A817" fill-rule="nonzero" d="M51.21 53.014c-8.477 1.135-14.564 2.906-17.213 4.955a1.207 1.207 0 0 0-.207 1.719c.428.53 1.214.621 1.756.202 2.2-1.7 7.94-3.37 16.003-4.45.996-.134 3.456-.24 7.31-.313a1.237 1.237 0 0 0 1.227-1.224V28.28c0-.657-.53-1.197-1.2-1.223-1.753-.069-3.589.313-5.502 1.13-.633.271-.922.993-.646 1.613a1.26 1.26 0 0 0 1.646.632c1.126-.481 2.193-.774 3.201-.885v23.157c-3.257.074-5.366.175-6.375.31z"/>
        <path fill="#11A817" fill-rule="nonzero" d="M36.027 51.345c3.282-1.58 8.71-2.863 16.357-3.91v-22.56a58.313 58.313 0 0 0-8.605 1.933c-2.995.913-5.58 1.957-7.752 3.129v21.408zm-1.88-23.18c2.47-1.41 5.432-2.64 8.889-3.695a60.687 60.687 0 0 1 10.445-2.212c.746-.09 1.404.48 1.404 1.215v25.031c0 .614-.464 1.133-1.086 1.214-9.7 1.265-15.835 2.897-18.248 4.762-.82.634-2.025.062-2.025-.96V29.222c0-.435.236-.838.62-1.057zm-8.622-1.69a40.87 40.87 0 0 0-7.638-1.648V47.44c7.194 1.016 12.359 2.278 15.554 3.843l.083-21.354a43.805 43.805 0 0 0-8-3.455zm10.502 2.753l-.094 24.242c-.004 1.02-1.207 1.589-2.025.956-2.417-1.869-8.276-3.48-17.441-4.709a1.233 1.233 0 0 1-1.08-1.213V23.473c0-.717.625-1.28 1.354-1.22 3.228.266 6.414.896 9.554 1.892a46.5 46.5 0 0 1 9.114 4.022c.384.22.62.625.618 1.06z"/>
        <path fill="#A7D988" fill-rule="nonzero" stroke="#11A817" stroke-width="2" d="M35 10.685l-1.17 2.371a1.69 1.69 0 0 1-1.274.925l-2.617.38 1.894 1.847c.398.388.58.948.486 1.496l-.447 2.607 2.341-1.23a1.692 1.692 0 0 1 1.574 0l2.34 1.23-.446-2.606a1.691 1.691 0 0 1 .486-1.498l1.894-1.846-2.617-.38a1.69 1.69 0 0 1-1.274-.925L35 10.685zm-3.682 9.917zm6.916.326zm-3.511-10.805zm-2.454 1.879zm-.233.169z"/>
    </g>
</svg>
