<svg xmlns="http://www.w3.org/2000/svg" xmlns:xlink="http://www.w3.org/1999/xlink" width="40" height="40" viewBox="0 0 40 40">
    <defs>
        <ellipse id="a" cx="20.003" cy="19.726" rx="19.672" ry="19.463"/>
    </defs>
    <g fill="none" fill-rule="evenodd">
        <mask id="b" fill="#fff">
            <use xlink:href="#a"/>
        </mask>
        <use fill="#FFEBD6" xlink:href="#a"/>
        <path fill="#E34234" fill-rule="nonzero" d="M12.503 10.567h-.834a2.503 2.503 0 0 0-2.5 2.5v13.334c0 1.378 1.122 2.5 2.5 2.5h16.667c1.378 0 2.5-1.122 2.5-2.5v-13c-.015-1.049-.276-1.801-.782-2.258-.505-.457-1.29-.649-2.354-.576H12.503zm-.667 1.667a.833.833 0 1 1 0 1.666.833.833 0 0 1 0-1.666zM29.169 26.4c0 .459-.374.833-.833.833H11.669a.834.834 0 0 1-.833-.833V15.845c0-.153.125-.278.278-.278H28.89c.153 0 .278.125.278.278v10.556zM14.336 13.067a.833.833 0 1 1 1.666 0 .833.833 0 0 1-1.666 0zm3.333 0a.833.833 0 1 1 1.667 0 .833.833 0 0 1-1.667 0z" mask="url(#b)"/>
        <g fill="#E34234" mask="url(#b)">
            <g transform="matrix(1 0 0 -1 18.5 26.468)">
                <path d="M1.503 3.967c.537 0 .972.435.972.972v3.547a.972.972 0 1 1-1.944 0V4.94c0-.537.435-.972.972-.972z"/>
                <rect width="2" height="2" x=".53" y=".792" rx="1"/>
            </g>
        </g>
    </g>
</svg>
