<svg xmlns="http://www.w3.org/2000/svg" xmlns:xlink="http://www.w3.org/1999/xlink" width="70" height="71" viewBox="0 0 70 71">
    <defs>
        <circle id="a" cx="35" cy="35.187" r="35"/>
    </defs>
    <g fill="none" fill-rule="evenodd">
        <mask id="b" fill="#fff">
            <use xlink:href="#a"/>
        </mask>
        <use fill="#DDEBFF" xlink:href="#a"/>
        <g mask="url(#b)">
            <path fill="#052892" d="M38.063 26.808l10.868 6.424.006-.009a.75.75 0 0 0 .805-1.266l-9.258-5.323a1.5 1.5 0 1 1 1.46-2.608l9.05 5.196a.75.75 0 0 0 .808-1.26l.002-.002-6.087-3.47A1.5 1.5 0 1 1 47.2 21.9l13.9 8.168a6.5 6.5 0 0 1 .699 11.2v.006l-.112.069a6.5 6.5 0 0 1-.256.156L47.56 49.985a1.796 1.796 0 0 1-.17.104l-.023.014-.001-.001a1.796 1.796 0 0 1-1.585-3.224l2.776-1.712a2 2 0 0 0 .04-3.711L36.17 34.35a1.5 1.5 0 1 1 1.246-2.725v-.001l9.204 5.238a.75.75 0 0 0 .82-1.252l.003-.004-10.723-6.157a1.5 1.5 0 1 1 1.342-2.641z"/>
            <path fill="#2A54D5" d="M41.797 42.862l-10.998 6.2.005.009a.75.75 0 0 0 .694 1.33l9.239-5.355a1.5 1.5 0 1 1 1.528 2.568l-9.025 5.24a.75.75 0 0 0 .687 1.329l.002.003 6.047-3.537a1.5 1.5 0 1 1 1.5 2.58l-14.022 7.955a6.5 6.5 0 0 1-10.05-4.996l-.004-.002-.003-.132a6.5 6.5 0 0 1-.008-.3l-.413-16.257a1.796 1.796 0 0 1-.005-.2v-.026h.001a1.796 1.796 0 0 1 3.584.24l.096 3.26a2 2 0 0 0 3.193 1.89l12.365-7.209a1.5 1.5 0 1 1 1.738 2.442v.001l-9.138 5.352a.75.75 0 0 0 .674 1.336l.003.004L40.18 40.38a1.5 1.5 0 1 1 1.617 2.483z"/>
            <path fill="#83AED8" stroke="#83AED8" stroke-width="2" d="M26.017 22.935l-.688-.053-.078.997.997.084a1.746 1.746 0 0 0-.231-1.028zm-2.87-.224a1.752 1.752 0 0 0-.388.978l.997.073.078-.997-.688-.054zm-1.396 1.312l.001-.05-1-.033.988.158c.004-.025.008-.05.01-.075zm-3.144-1.243a1.752 1.752 0 0 0-.345 1.031l1 .007.056-.998-.711-.04zm7.31-13.115l.489.26.512-.383-.598-.8-.508.86.105.063zm14.399 8.495l.069.042.508-.861-.862-.507-.472.804.757.522zm-3.767-.374l-.07-.04-.504.862.65-.758a3.009 3.009 0 0 0-.076-.064zm-4.87 2.555c0 .022.003.045.005.068l.995-.094-.999-.03-.002.056zm-1.43 14.43l-.007-.95-.974-.02-.021 1 1 .028.001-.059zm.3-10.474l.002-.054-1-.029.986.165c.005-.027.009-.054.012-.082zm-3.137-1.257a1.752 1.752 0 0 0-.35 1.02l1 .018.056-.998-.706-.04zm-2.987 1.777l-.255-.02.085-1.003a.25.25 0 0 0 .498.04l-.073 1.003-.255-.02zm-4.663-1.003l.003-.03a.248.248 0 0 0-.003.03z"/>
        </g>
    </g>
</svg>
