<svg xmlns="http://www.w3.org/2000/svg" xmlns:xlink="http://www.w3.org/1999/xlink" width="70" height="71" viewBox="0 0 70 71">
    <defs>
        <circle id="a" cx="35" cy="35.187" r="35"/>
    </defs>
    <g fill="none" fill-rule="evenodd">
        <mask id="b" fill="#fff">
            <use xlink:href="#a"/>
        </mask>
        <use fill="#DCEBF4" xlink:href="#a"/>
        <g mask="url(#b)">
            <g transform="translate(15 14.687)">
                <path fill="#052892" fill-rule="nonzero" d="M39.79 19.09C39.135 9.148 31.19 1.199 21.245.546V.5H18.591v.045C8.647 1.198.698 9.147.045 19.091H0V21.746h.045c.653 9.944 8.602 17.89 18.546 18.543v.048H21.246v-.048c9.944-.653 17.89-8.6 18.543-18.543h.048V19.091h-.048zM12.468 4.843c-1.283 1.705-2.348 3.843-3.123 6.281H5.367a17.354 17.354 0 0 1 7.102-6.28zm-8.49 8.937h4.668a31.54 31.54 0 0 0-.653 5.312H2.706c.141-1.87.582-3.657 1.272-5.312zm-1.273 7.967h5.288a31.54 31.54 0 0 0 .653 5.312H3.978a17.113 17.113 0 0 1-1.272-5.312zm2.661 7.968h3.976c.776 2.438 1.84 4.576 3.126 6.28a17.335 17.335 0 0 1-7.102-6.28zm13.224 7.797c-2.73-.73-5.08-3.662-6.507-7.797h6.507v7.797zm0-10.453h-7.253a29.682 29.682 0 0 1-.688-5.312h7.94v5.312zm0-7.967H10.65c.077-1.87.313-3.657.688-5.312h7.253v5.312zm0-7.968h-6.507c1.426-4.135 3.776-7.067 6.507-7.795v7.795zm15.879 0h-3.973c-.779-2.438-1.84-4.576-3.129-6.28a17.37 17.37 0 0 1 7.102 6.28zM21.246 3.328c2.728.728 5.081 3.66 6.507 7.795h-6.507V3.328zm0 10.451h7.25c.378 1.655.609 3.442.691 5.312h-7.94v-5.312zm0 7.967h7.941a29.439 29.439 0 0 1-.69 5.312h-7.25v-5.312zm0 15.765v-7.797h6.507c-1.426 4.135-3.779 7.067-6.507 7.797zm6.122-1.516c1.283-1.708 2.35-3.843 3.129-6.281h3.973a17.352 17.352 0 0 1-7.102 6.28zm8.49-8.937H31.19a31.54 31.54 0 0 0 .653-5.312h5.285a17.036 17.036 0 0 1-1.27 5.312zm-4.015-7.967a31.54 31.54 0 0 0-.653-5.312h4.669a17.113 17.113 0 0 1 1.272 5.312h-5.288z"/>
                <circle cx="9.5" cy="20.419" r="3" fill="#DCEBF4" stroke="#00B5FF" stroke-width="3"/>
                <circle cx="29.5" cy="12.419" r="3" fill="#DCEBF4" stroke="#00B5FF" stroke-width="3"/>
                <circle cx="29.5" cy="28.419" r="3" fill="#DCEBF4" stroke="#00B5FF" stroke-width="3"/>
            </g>
        </g>
    </g>
</svg>
