<svg xmlns="http://www.w3.org/2000/svg" xmlns:xlink="http://www.w3.org/1999/xlink" width="41" height="42" viewBox="0 0 41 42">
    <defs>
        <ellipse id="a" cx="20.003" cy="19.726" rx="19.672" ry="19.463"/>
        <circle id="c" cx="19.971" cy="19.365" r="11.471"/>
    </defs>
    <g fill="none" fill-rule="evenodd" transform="translate(.486 .495)">
        <mask id="b" fill="#fff">
            <use xlink:href="#a"/>
        </mask>
        <use fill="#FFEBD6" xlink:href="#a"/>
        <g mask="url(#b)">
            <use fill="#E34234" xlink:href="#c"/>
            <circle cx="19.971" cy="19.365" r="11.971" stroke="#FFF"/>
            <use stroke="#E34234" stroke-width="3" xlink:href="#c"/>
            <circle cx="19.971" cy="19.365" r="10.471" stroke="#FFF" stroke-linejoin="square" stroke-width="2"/>
        </g>
        <path fill="#FFF" fill-rule="nonzero" stroke="#FFF" stroke-width=".25" d="M20.017 23.111a1.18 1.18 0 0 1 1.187 1.231c.03.626-.55 1.174-1.187 1.174a1.223 1.223 0 0 1-1.217-1.203c0-.654.555-1.202 1.217-1.202zm-.298-9.596c.567-.127 1.134.131 1.376.64.081.18.11.362.11.566-.029.567-.081 1.134-.11 1.7-.052.876-.11 1.751-.161 2.626-.029.286-.029.545-.029.826a.871.871 0 0 1-.89.825c-.486 0-.863-.336-.891-.798l-.243-4.068c-.029-.358-.052-.72-.081-1.079 0-.594.352-1.084.92-1.238z" mask="url(#b)"/>
    </g>
</svg>
