<svg xmlns="http://www.w3.org/2000/svg" width="39" height="38" viewBox="0 0 39 38">
    <g fill="#708090" fill-rule="evenodd">
        <path d="M30.979 33.59a18.586 18.586 0 0 1-11.314 3.817A18.586 18.586 0 0 1 8.35 33.59l-3.103 3.104-3.536-3.536 3.104-3.103A18.586 18.586 0 0 1 .997 18.74c0-4.254 1.423-8.175 3.818-11.314L1.711 4.322 5.247.786 8.35 3.89A18.586 18.586 0 0 1 19.665.072c4.253 0 8.174 1.423 11.314 3.818L34.082.786l3.536 3.536-3.104 3.104a18.586 18.586 0 0 1 3.818 11.314c0 4.253-1.422 8.174-3.818 11.314l3.104 3.103-3.536 3.536-3.103-3.104zm-11.321-.405c7.978 0 14.445-6.468 14.445-14.445 0-7.978-6.467-14.445-14.445-14.445-7.978 0-14.445 6.467-14.445 14.445 0 7.977 6.467 14.445 14.445 14.445z"/>
        <path d="M13.525 26.93L8.348 12.55h4.54l2.589 8.67 2.486-8.67h3.39l2.486 8.67 2.588-8.67h4.54L25.79 26.93h-3.739l-2.383-7.827-2.404 7.827z"/>
    </g>
</svg>
