<svg xmlns="http://www.w3.org/2000/svg" xmlns:xlink="http://www.w3.org/1999/xlink" width="23" height="23" viewBox="0 0 23 23">
    <defs>
        <ellipse id="a" cx="11.251" cy="11.096" rx="11.066" ry="10.948"/>
    </defs>
    <g fill="none" fill-rule="evenodd">
        <mask id="b" fill="#fff">
            <use xlink:href="#a"/>
        </mask>
        <use fill="#708090" xlink:href="#a"/>
        <path fill="#FFF" d="M5.751 13.668H8.18a.5.5 0 0 1 .5.5v2.428a.5.5 0 0 1-.5.5H5.751a.5.5 0 0 1-.5-.5v-2.428a.5.5 0 0 1 .5-.5zm0-4.286H8.18a.5.5 0 0 1 .5.5v2.428a.5.5 0 0 1-.5.5H5.751a.5.5 0 0 1-.5-.5V9.882a.5.5 0 0 1 .5-.5zm4.286 0h2.429a.5.5 0 0 1 .5.5v2.428a.5.5 0 0 1-.5.5h-2.429a.5.5 0 0 1-.5-.5V9.882a.5.5 0 0 1 .5-.5zm0 4.286h2.429a.5.5 0 0 1 .5.5v2.428a.5.5 0 0 1-.5.5h-2.429a.5.5 0 0 1-.5-.5v-2.428a.5.5 0 0 1 .5-.5zm0-8.572h2.429a.5.5 0 0 1 .5.5v2.429a.5.5 0 0 1-.5.5h-2.429a.5.5 0 0 1-.5-.5V5.596a.5.5 0 0 1 .5-.5zm4.286 4.286h2.428a.5.5 0 0 1 .5.5v2.428a.5.5 0 0 1-.5.5h-2.428a.5.5 0 0 1-.5-.5V9.882a.5.5 0 0 1 .5-.5zm0 4.286h2.428a.5.5 0 0 1 .5.5v2.428a.5.5 0 0 1-.5.5h-2.428a.5.5 0 0 1-.5-.5v-2.428a.5.5 0 0 1 .5-.5z" mask="url(#b)"/>
    </g>
</svg>
