<svg xmlns="http://www.w3.org/2000/svg" xmlns:xlink="http://www.w3.org/1999/xlink" width="40" height="40" viewBox="0 0 40 40">
    <defs>
        <circle id="a" cx="20" cy="20" r="19.841"/>
    </defs>
    <g fill="none" fill-rule="evenodd">
        <mask id="b" fill="#fff">
            <use xlink:href="#a"/>
        </mask>
        <path fill="#708090" d="M20 26.834a7.716 7.716 0 1 0 0-15.432 7.716 7.716 0 0 0 0 15.432z" mask="url(#b)"/>
        <ellipse cx="20" cy="40.805" fill="#708090" mask="url(#b)" rx="11.243" ry="14.456" transform="rotate(90 20 40.805)"/>
        <path fill="#708090" fill-rule="nonzero" d="M20 37.063c9.424 0 17.063-7.64 17.063-17.063 0-9.424-7.64-17.063-17.063-17.063-9.424 0-17.063 7.64-17.063 17.063 0 9.424 7.64 17.063 17.063 17.063zm0 2.778C9.042 39.841.159 30.958.159 20 .159 9.042 9.042.159 20 .159 30.958.159 39.841 9.042 39.841 20c0 10.958-8.883 19.841-19.841 19.841z" mask="url(#b)"/>
    </g>
</svg>
