<svg xmlns="http://www.w3.org/2000/svg" width="36" height="40" viewBox="0 0 36 40">
    <g fill="#708090" fill-rule="evenodd">
        <path d="M16.219 14.049l7.785 4.603.003-.003a.549.549 0 0 0 .831-.47.552.552 0 0 0-.241-.458l.004-.007-6.89-3.96.012-.02a1.105 1.105 0 0 1-.53-.946c0-.61.489-1.103 1.092-1.103.281 0 .538.107.731.283l6.434 3.694a.541.541 0 0 0 .373.148.549.549 0 0 0 .546-.551.552.552 0 0 0-.332-.508l-4.546-2.59.013-.022a1.105 1.105 0 0 1-.501-.927c0-.61.49-1.103 1.092-1.103.289 0 .55.112.746.296l10.39 6.106-.014.016a4.788 4.788 0 0 1 2.24 4.064 4.784 4.784 0 0 1-2.798 4.363l-9.47 5.846a1.298 1.298 0 0 1-.94.402 1.315 1.315 0 0 1-1.308-1.32c0-.433.206-.816.524-1.057l-.013-.021 2.152-1.34a1.47 1.47 0 0 0 1.04-1.41c0-.606-.362-1.126-.88-1.351l-9.232-5.278.016-.028a1.105 1.105 0 0 1-.54-.952c0-.61.489-1.104 1.092-1.104.297 0 .567.12.764.315l6.476 3.685a.549.549 0 0 0 .848-.46.552.552 0 0 0-.278-.481l.001-.002-8.163-4.686.016-.024a1.105 1.105 0 0 1-.422-.872c0-.61.489-1.103 1.092-1.103.308 0 .586.129.785.336z"/>
        <path d="M18.796 25.73l-8.01 4.56.003.007a.555.555 0 0 0-.024.968.541.541 0 0 0 .53.01l6.729-3.939a1.084 1.084 0 0 1 1.187-.061 1.11 1.11 0 0 1-.075 1.95l-6.573 3.854a.555.555 0 0 0-.06.985c.18.105.395.095.56-.008l.002.003 4.405-2.602a1.084 1.084 0 0 1 1.188-.062 1.11 1.11 0 0 1-.096 1.96L8.35 39.205a4.695 4.695 0 0 1-4.962.14 4.781 4.781 0 0 1-2.357-3.814l-.003-.001-.002-.098a4.827 4.827 0 0 1-.006-.22l-.3-11.956a1.334 1.334 0 0 1-.004-.147v-.02c.01-.204.066-.41.175-.6a1.301 1.301 0 0 1 1.787-.483c.454.265.692.764.65 1.26l.068 2.397a1.476 1.476 0 0 0 .713 1.495c.525.306 1.16.245 1.613-.105l9.006-5.301c.34-.273.826-.324 1.225-.091a1.11 1.11 0 0 1 .04 1.887l-6.655 3.936a.555.555 0 0 0-.064.987c.178.104.39.095.555-.004l.002.003 7.788-4.566a1.085 1.085 0 0 1 1.279-.137 1.11 1.11 0 0 1-.101 1.964z"/>
        <path d="M6.338 21.045l.415-9.275h-.008a.554.554 0 0 0-.062-.306.544.544 0 0 0-1.027.22l-.258 7.85c.028.42-.185.838-.577 1.049a1.087 1.087 0 0 1-1.478-.456 1.107 1.107 0 0 1-.121-.641l.247-7.671a.554.554 0 0 0-.057-.345.544.544 0 0 0-.739-.229.552.552 0 0 0-.29.484H2.38l-.15 5.15c.03.421-.184.84-.577 1.05a1.087 1.087 0 0 1-1.477-.455 1.107 1.107 0 0 1-.118-.665l.5-11.846A4.788 4.788 0 0 1 3.067.635 4.689 4.689 0 0 1 7.522.64l.003-.002.083.05c.063.035.126.072.188.111l10.2 6.079c.043.022.085.047.126.074l.016.01v.001a1.327 1.327 0 0 1-.13 2.253 1.298 1.298 0 0 1-1.402-.11l-2.05-1.212a1.446 1.446 0 0 0-1.633-.182c-.535.287-.82.864-.767 1.438l-.32 10.52c.049.437-.166.88-.573 1.098a1.087 1.087 0 0 1-1.478-.456 1.107 1.107 0 0 1-.128-.51l.22-7.785a.554.554 0 0 0-.056-.35.544.544 0 0 0-.738-.227.552.552 0 0 0-.29.477h-.004l-.293 9.089c.082.458-.133.937-.563 1.168a1.087 1.087 0 0 1-1.477-.457 1.107 1.107 0 0 1-.117-.67z"/>
    </g>
</svg>
