<svg xmlns="http://www.w3.org/2000/svg" width="42" height="42" viewBox="0 0 42 42">
    <path fill="#708090" fill-rule="nonzero" d="M34.247 29.293l.199-.334a15.542 15.542 0 0 0 2.184-7.96c.001-2.8-.754-5.548-2.184-7.953l-.2-.334 6.047-6.046-4.96-4.959-6.04 6.046-.335-.199a15.564 15.564 0 0 0-15.907 0l-.334.2-6.051-6.047-4.959 4.959 6.046 6.046-.199.334a15.564 15.564 0 0 0 0 15.908l.2.334-6.047 6.046 4.959 4.959 6.046-6.046.334.199a15.564 15.564 0 0 0 15.908 0l.334-.2 6.046 6.047 4.959-4.959-6.046-6.04zm7.46 6.04l-6.373 6.374-6.207-6.206a16.564 16.564 0 0 1-16.255 0l-6.206 6.206-6.373-6.373 6.206-6.206a16.564 16.564 0 0 1 0-16.255L.293 6.666 6.665.294 12.877 6.5a16.564 16.564 0 0 1 16.255 0L35.334.292l6.373 6.373-6.207 6.207a16.54 16.54 0 0 1 2.13 8.126 16.542 16.542 0 0 1-2.13 8.133l6.207 6.202zm-7.05-5.957l6.2 5.958-5.523 5.494-5.958-6.218c-4.957 3.233-10.085 3.957-15.041.724l-1.486-.724-6.183 6.218-5.684-5.494 5.684-5.958.778-.68C5.7 26.022 4.28 23.294 5.42 17.732c.179-.874.705-2.689 1.578-5.445L.982 6.666 6.666 1.22l5.85 6.153c4.957-3.233 9.662-3.94 14.619-.707l2.24.707 5.959-5.84 5.122 5.133-5.8 6.179.678.645c1.582 2.425 1.956 3.992 1.955 6.888.003 2.898.291 2.514-1.292 4.941l-.663 2.877-.678 1.18zm-2.505.133l.584-.895A13.909 13.909 0 0 0 34.996 21a13.91 13.91 0 0 0-2.26-7.609l-.583-.895 5.83-5.83-2.649-2.649-5.825 5.83-.895-.583a13.93 13.93 0 0 0-15.218 0l-.895.583-5.835-5.83-2.65 2.649 5.831 5.83-.584.895a13.93 13.93 0 0 0 0 15.218l.584.895-5.83 5.83 2.649 2.65 5.83-5.831.895.584a13.93 13.93 0 0 0 15.218 0l.895-.584 5.83 5.83 2.649-2.648-5.83-5.826zm-8.039-.437l-.825.23A8.6 8.6 0 0 1 12.383 21a8.617 8.617 0 1 1 16.92 2.296l-.23.825-5.817-5.824-4.96 4.96 5.817 5.816zM26.49 15.7A7.617 7.617 0 0 0 13.383 21a7.6 7.6 0 0 0 8.77 7.527l-5.272-5.27 6.376-6.375 5.27 5.278A7.62 7.62 0 0 0 26.49 15.7zm.27-.434c-2.62-2.721-5.157-3.279-8.659-1.864-3.501 1.415-5.15 3.322-5.143 7.1-.006 3.135.195 5.142 2.826 6.847 2.63 1.706 4 2.653 6.86 1.367l-1.039-1.367-4.068-3.985 5.7-5.6 5.74 5.6c.267-3.584-.471-6.283-2.217-8.098zm.16 14.302l-1.74.782A10.232 10.232 0 0 1 10.75 21a10.25 10.25 0 1 1 19.6 4.185l-.783 1.742-6.311-6.32-2.65 2.65 6.313 6.31z"/>
</svg>
