<svg xmlns="http://www.w3.org/2000/svg" width="29" height="21" viewBox="0 0 29 21">
    <path fill="#708090" fill-rule="nonzero" d="M26.552 2.038C25.567.868 23.75.391 20.278.391h-12.6c-3.55 0-5.4.508-6.38 1.754C.342 3.36.342 5.149.342 7.627v4.721c0 4.8 1.134 7.236 7.336 7.236h12.6c3.01 0 4.679-.421 5.758-1.454 1.106-1.059 1.579-2.788 1.579-5.782V7.627c0-2.613-.074-4.413-1.063-5.589zm-8.7 8.601l-5.723 2.99a.879.879 0 0 1-1.287-.779V6.888a.88.88 0 0 1 1.285-.78l5.722 2.97a.88.88 0 0 1 .002 1.561z"/>
</svg>
