<svg xmlns="http://www.w3.org/2000/svg" width="22" height="20" viewBox="0 0 22 20">
    <g fill="#708090" fill-rule="evenodd">
        <path d="M21.3 12.496v7.38H17.02V12.99c0-1.73-.619-2.91-2.167-2.91-1.183 0-1.886.796-2.196 1.565-.112.275-.142.658-.142 1.044v7.187h-4.28s.058-11.662 0-12.87h4.28V8.83c-.009.014-.02.028-.028.042h.028V8.83c.569-.876 1.584-2.127 3.857-2.127 2.816 0 4.927 1.84 4.927 5.793zM3.76.801c-1.465 0-2.423.96-2.423 2.224 0 1.235.93 2.224 2.366 2.224h.028c1.493 0 2.42-.989 2.42-2.224C6.125 1.762 5.225.8 3.76.8zM1.592 19.876H5.87V7.006H1.592z"/>
    </g>
</svg>
