<svg xmlns="http://www.w3.org/2000/svg" width="42" height="40" viewBox="0 0 42 40">
    <path fill="#708090" fill-rule="nonzero" d="M35.006 15.995l6.824 3.874-6.824 3.9 6.824 3.874-20.608 11.774L.612 27.643l6.825-3.875L.612 19.87l6.825-3.874-6.825-3.9L21.222.394 41.83 12.096l-6.824 3.899zm4.445 3.878l-6.825-3.875 6.825-3.9L21.22 1.748 2.992 12.099l6.825 3.899-6.824 3.875 6.824 3.899-6.824 3.874 18.23 10.415L39.45 27.646l-6.825-3.874 6.825-3.9zm-18.23-16.5l-15.373 8.73 15.374 8.782 15.373-8.783-15.373-8.73zm18.677 8.757L21.222 22.242 2.109 12.13 21.222 1.062 39.898 12.13zm-34.05 7.746l15.374 8.783 15.373-8.783-4.204-2.387-11.17 6.38-11.168-6.38-4.205 2.387zm26.73-4.726l7.625 4.723-18.981 10.143-19.6-10.143 7.624-4.723 11.976 6.585 11.356-6.585zm-.187 10.112l-11.17 6.381-11.168-6.38-4.205 2.387 15.374 8.783 15.373-8.783-4.204-2.388zm.336-2.331l8.376 4.716L21.222 38.61 2.22 27.647l7.462-4.716 11.54 6.53 11.505-6.53z"/>
</svg>
