<svg xmlns="http://www.w3.org/2000/svg" width="25" height="20" viewBox="0 0 25 20">
    <path fill="#708090" fill-rule="nonzero" d="M24.56 2.613a9.744 9.744 0 0 1-2.802.768A4.9 4.9 0 0 0 23.903.684a9.837 9.837 0 0 1-3.1 1.184 4.88 4.88 0 0 0-8.314 4.449A13.853 13.853 0 0 1 2.43 1.219c-.42.72-.66 1.558-.66 2.452 0 1.693.863 3.187 2.17 4.06a4.88 4.88 0 0 1-2.21-.611v.06a4.884 4.884 0 0 0 3.914 4.785c-.409.11-.84.17-1.286.17-.315 0-.62-.03-.918-.09a4.882 4.882 0 0 0 4.557 3.389 9.79 9.79 0 0 1-6.06 2.085c-.394 0-.782-.023-1.164-.067a13.792 13.792 0 0 0 7.48 2.196c8.975 0 13.882-7.435 13.882-13.882l-.017-.632a9.744 9.744 0 0 0 2.44-2.52z"/>
</svg>
